<?xml version="1.0" encoding="utf-8"?>
<!-- Generator: Adobe Illustrator 22.0.1, SVG Export Plug-In . SVG Version: 6.00 Build 0)  -->
<svg version="1.1" id="圖層_1" xmlns="http://www.w3.org/2000/svg" xmlns:xlink="http://www.w3.org/1999/xlink" x="0px" y="0px"
	 viewBox="0 0 593 624.3" style="enable-background:new 0 0 593 624.3;" xml:space="preserve">
<style type="text/css">
	.st0{fill:#FFFFFF;}
	.st1{fill:none;stroke:#FFFFFF;stroke-miterlimit:10;}
</style>
<g>
	<rect x="111.5" y="570.2" class="st0" width="419" height="18"/>
	<rect x="78.5" y="318.2" class="st1" width="419" height="282"/>
	<g>
		<path d="M340.8,523.8h25.1c0.7,0,1-0.3,1-1v-25.1c0-0.7-0.3-1-1-1h-25.1c-0.7,0-1,0.3-1,1v25.1
			C339.8,523.5,340.1,523.8,340.8,523.8z M343.8,500.9c0-0.2,0.1-0.4,0.2-0.6c0.1-0.2,0.3-0.3,0.5-0.3c0.7,0,1.4,0.2,2,0.5
			c0.7,0.3,1.4,0.6,2.1,1c0.7,0.3,1.5,0.7,2.2,1c0.8,0.3,1.6,0.5,2.4,0.5c0.6,0,1.1-0.2,1.5-0.5c0.4-0.3,0.8-0.6,1.1-1
			c0.3-0.3,0.7-0.7,1.1-1c0.4-0.3,0.8-0.5,1.4-0.5c0.3,0,0.7,0.2,1.3,0.6c0.6,0.4,1.2,0.8,1.7,1.3c0.6,0.5,1.1,1,1.5,1.5
			c0.4,0.5,0.7,0.9,0.7,1.2c-0.1,0.3-0.2,0.7-0.3,1.1c-0.1,0.4-0.3,0.8-0.4,1.1c-0.4,1.6-0.5,3.2-0.4,4.9c0.1,1.7,0,3.4-0.3,5
			c0,0.1,0,0.2-0.1,0.3c0,0-0.1,0.1-0.1,0.3c-0.3,0.5-0.7,0.8-1.3,0.9c-0.6,0.1-1.1,0.2-1.7,0.2c-1.2,0-2-0.1-2.2-0.4
			c-0.3-0.3-0.4-0.6-0.5-1c-0.1-0.4-0.3-0.7-0.6-1c-0.3-0.3-1.1-0.4-2.3-0.4c-0.7,0-1.4,0.2-1.9,0.6c-0.5,0.4-1.1,0.8-1.6,1.2
			c-0.5,0.4-1.1,0.8-1.6,1.2c-0.6,0.4-1.2,0.6-1.9,0.6c-0.5,0-1,0-1.3-0.1c-0.3,0-0.6-0.3-0.8-0.9c-0.1-0.4-0.2-1.4-0.3-3
			c-0.1-1.6-0.1-3.3-0.2-5.2c-0.1-1.9-0.1-3.7-0.1-5.4C343.8,502.8,343.8,501.6,343.8,500.9z"/>
		<path d="M370.6,481.1c-0.7,0-1.5,0-2.3,0.1c-0.9,0.1-1.7,0.2-2.6,0.4c-0.8,0.2-1.4,0.3-1.7,0.3c-0.6,0-1-0.2-1.2-0.5
			c-0.2-0.3-0.4-0.6-0.5-1c-0.1-0.3-0.3-0.7-0.6-1c-0.2-0.3-0.7-0.5-1.5-0.5c-0.3,0-0.6,0-0.9,0.1c-0.3,0.1-0.5,0.3-0.5,0.6v6.5
			c0,0.7,0.3,1,1,1c0.3,0,0.9,0,1.7-0.1c0.8,0,1.6-0.1,2.4-0.2c0.8-0.1,1.6-0.2,2.4-0.3c0.7-0.1,1.2-0.2,1.4-0.4
			c0.2-0.1,0.5-0.4,1-0.8c0.4-0.4,0.9-0.8,1.3-1.3c0.4-0.5,0.8-0.9,1.1-1.4c0.3-0.4,0.5-0.8,0.5-1.1
			C371.6,481.3,371.2,481.1,370.6,481.1z"/>
		<path d="M351.7,513.6h3.4c0.7,0,1-0.3,1-1v-6.9c0-0.3-0.1-0.5-0.4-0.8c-0.7-0.1-1.5-0.2-2.3-0.2c-0.8,0-1.5,0.1-2.3,0.2
			c-0.1,0.1-0.3,0.3-0.4,0.6v7.1C350.6,513.3,351,513.6,351.7,513.6z"/>
		<path d="M250.3,282.3h-40.1c-1.3,0-1.9,0.6-1.9,1.9v15.3c0,1.3,0.6,1.9,1.9,1.9H240c0.8,0,1.8-0.5,3.2-1.4c1.4-1,2.8-2.1,4.2-3.5
			c1.4-1.4,2.7-2.9,3.9-4.6c1.2-1.7,2.1-3.2,2.6-4.6c0.5-1.4,0.5-2.6,0-3.5C253.4,282.8,252.2,282.3,250.3,282.3z"/>
		<path d="M171.9,200.9h48.4c1.3,0,1.9-0.6,1.9-1.9v-12.8c0-1.3-0.6-1.9-1.9-1.9h-48.4c-1.3,0-1.9,0.6-1.9,1.9V199
			C170,200.2,170.6,200.9,171.9,200.9z"/>
		<path d="M212.1,266.4c0,0.4-0.2,0.7-0.6,1.1c-0.4,0.3-0.8,0.6-1.3,1c-0.5,0.3-1,0.6-1.3,1c-0.4,0.3-0.6,0.7-0.6,1.2v7.8
			c0,0.8,0.3,1.1,1.1,1.1c0.7,0,1.3,0,1.8,0c0.9,0,2.3,0,4.3,0c2,0,4.1-0.1,6.3-0.2c2.2-0.1,4.3-0.3,6.1-0.5
			c1.8-0.2,3.1-0.5,3.7-0.9c0.4-0.3,1.1-0.9,2-1.8c1-1,1.9-2,2.9-3.2c1-1.1,1.8-2.3,2.5-3.3c0.7-1.1,1.1-1.9,1.2-2.4
			c-0.5-1.1-1.3-2.5-2.3-4c-1-1.5-2.2-3-3.4-4.3c-1.3-1.3-2.6-2.5-4.1-3.4c-1.5-1-2.9-1.4-4.3-1.4c-1.1,0-3.4,0.2-6.7,0.5
			c-3.3,0.3-6.7,0.8-10.2,1.4c-3.5,0.6-6.6,1.4-9.4,2.3c-2.7,0.9-4,2-3.9,3.2c0,0.6,0.9,1.1,2.6,1.5c1.7,0.4,3.6,0.7,5.6,1.1
			c2,0.3,3.9,0.6,5.5,1C211.2,265.5,212.1,265.9,212.1,266.4z"/>
		<path d="M362.1,476v-6.8c0-0.7-0.3-1-1-1h-16.3c-0.7,0-1,0.3-1,1v6.8c0,0.7,0.3,1,1,1h16.3C361.8,477,362.1,476.7,362.1,476z"/>
		<path d="M443.2,266.8c0.8-0.8,1.3-1.3,1.7-1.7l0.4-1.3l-0.4-1v-0.2c-0.4-0.1-1-0.3-1.9-0.4c-0.9-0.1-1.9-0.2-3-0.2
			c-1.1,0-2.1,0-3.1,0s-1.7,0-2.2,0c-1.1,0-1.9-0.6-2.2-1.7c-0.3-1.1-1.1-1.8-2.4-2.1c-1.7-0.4-3.3-0.6-5.1-0.6s-3.4,0-5.1,0
			c-4.8-0.1-9.7-0.2-14.5-0.1c-4.8,0.1-9.7,0-14.5-0.3c-2.8-0.1-5.6-0.2-8.4-0.3c-2.8-0.1-5.6-0.1-8.4-0.1c-0.5,0-1.1,0.2-1.7,0.6
			c-0.6,0.4-1.1,0.8-1.3,1.1c-0.8,2.4-1.4,4.4-1.8,5.8c-0.4,1.5-0.8,2.8-1.1,4c-0.3,1.2-0.5,1.9-0.5,2c0,1.1,0.6,1.7,1.9,1.7h66.7
			c0.5,0,1.2-0.3,2-0.9c0.8-0.6,1.7-1.3,2.5-2.1C441.6,268.4,442.4,267.6,443.2,266.8z"/>
		<path d="M353.4,189.3c-1-0.2-2-0.1-3.2,0.3s-2.2,1-3.2,1.8c-1,0.8-1.4,1.8-1.4,3c0,1.1,0.5,2.1,1.4,3c1,0.8,2,1.4,3.2,1.8
			s2.2,0.5,3.2,0.3c1-0.2,1.4-0.7,1.4-1.6v-7.1C354.9,190,354.4,189.5,353.4,189.3z"/>
		<path d="M436.9,166.1c-1.4-1.3-2.7-2.5-3.8-3.8c-1.1-1.3-2.3-2.4-3.3-3.3c-1.1-1-2.3-1.4-3.5-1.4h-46.6c-0.4,0-1.2,0.5-2.6,1.5
			c-1.3,1-2.9,2.3-4.7,3.7c-1.8,1.5-3.7,3.1-5.6,5c-2,1.8-3.8,3.6-5.4,5.2c-1.6,1.6-2.9,3-4,4.3c-1.1,1.3-1.6,2.1-1.6,2.5
			s0.2,0.6,0.6,0.8c0.4,0.1,0.7,0.2,1,0.2c0.9,0,2,0,3.2,0c1.3,0,2.6-0.1,3.9-0.2c1.3-0.1,2.6-0.3,3.8-0.5c1.2-0.2,2.2-0.4,3-0.7
			c0.9-0.4,1.3-1,1.3-1.7c0-0.8-0.1-1.6-0.3-2.4c-0.2-0.8-0.3-1.6-0.4-2.2c-0.1-0.6,0.3-1,1.1-1c1.1,0,2.4,0.3,3.7,1
			c1.3,0.6,2.7,1.4,4,2.4s2.6,2,3.8,3.1c1.2,1.1,2.2,2,3,2.8l1.3,0.6c0.8,0,1.9,0,3.5,0.1c1.6,0.1,3.2,0.1,4.9,0.1
			c1.7,0,3.2,0,4.6,0c1.4,0,2.4-0.1,3.1-0.4c0.5-0.4,1.2-1,2-1.7c0.8-0.8,1.6-1.6,2.4-2.5c0.8-0.9,1.4-1.8,2-2.7
			c0.6-0.9,0.8-1.7,0.7-2.5l-0.6-1.1c-0.6-0.4-1.9-0.6-3.7-0.6c-1.8,0-3.9,0.1-6.1,0.2c-2.2,0.1-4.4,0.3-6.6,0.4
			c-2.2,0.1-3.8,0.1-5-0.2c-0.4-0.1-0.8-0.3-1.2-0.4c-0.4-0.1-0.7-0.4-0.7-1c0-0.6,0.8-1.1,2.3-1.2c1.5-0.2,3.3-0.3,5.3-0.3
			c2,0,3.9,0.1,5.7,0.2c1.8,0.1,3.1,0.2,3.7,0.2c0.4,0,1-0.4,1.7-1.1s1.5-1.6,2.3-2.5c0.8-0.9,1.5-1.7,2.1-2.5
			c0.6-0.8,1.1-1.1,1.5-1.1c0.6,0,1.6,0.3,2.8,1c1.2,0.6,2.4,1.4,3.6,2.3c1.2,0.9,2.3,1.8,3.2,2.9c1,1,1.4,1.8,1.4,2.5l-1,0.8
			c-0.4,0-1,0.1-1.8,0.2c-0.8,0.1-1.7,0.3-2.6,0.5c-0.9,0.2-1.7,0.5-2.3,0.9c-0.6,0.4-1,0.8-1,1.3c0,0.5,0.3,1.1,0.9,1.9
			c0.6,0.8,1.2,1.5,2,2.3c0.8,0.8,1.6,1.4,2.4,2c0.8,0.6,1.5,0.9,2,0.9h13.2l1.3-0.6c1.3-1.3,2.5-2.9,3.7-4.8c1.2-1.9,1.9-3.8,2-5.5
			c-0.1-0.1-0.4-0.3-0.8-0.6C440,168.3,438.3,167.4,436.9,166.1z"/>
		<path d="M526.9,67.1L23.4,106.8l39.6,503.4l503.4-39.6L526.9,67.1z M303.3,132.5c0.9-0.3,1.5-0.5,1.7-0.5c2.8,0,5.7,0.6,8.7,1.9
			c3,1.3,5.7,3,8.2,5.1c2.5,2.1,4.6,4.5,6.2,7.2c1.7,2.7,2.5,5.5,2.5,8.4c0,2.6-0.6,5-1.9,7.3c-1.3,2.3-3.4,3.4-6.3,3.4
			c-3.2,0-5.9-1.2-8-3.5c-2.2-2.4-4-5.2-5.4-8.6c-1.5-3.4-2.6-6.9-3.5-10.4c-0.9-3.6-1.7-6.5-2.5-8.8
			C302.2,133.3,302.4,132.8,303.3,132.5z M213,146.6c0.9,0,2.5,0,5,0.1c2.4,0.1,4.9,0.1,7.6,0.1c2.6,0,5,0,7.3-0.1
			c2.2-0.1,3.5-0.2,3.9-0.5c0.4-0.5,1.2-1.6,2.5-3.2c1.3-1.6,2.6-3.2,4.1-4.9c1.5-1.7,2.8-3.1,4.1-4.4c1.3-1.3,2.2-1.9,2.7-1.9
			c1,0,2.4,0.4,4.2,1.2c1.8,0.8,3.6,1.8,5.5,3.1c1.9,1.2,3.8,2.6,5.6,4c1.8,1.5,3.3,2.8,4.5,4c1.1,1.2,1.8,2.2,2,3.1
			c0.2,0.8-0.4,1.2-1.6,1.2h-58.5c-0.3,0-0.5-0.1-0.8-0.4C211.4,147.1,212,146.6,213,146.6z M180.1,163.2v-31.9
			c0-1.3,0.6-1.9,1.9-1.9c1.1,0,3.1,0.1,5.8,0.2c2.7,0.1,5.6,0.3,8.6,0.6c3,0.3,5.8,0.5,8.4,0.9c2.6,0.3,4.4,0.7,5.3,1.1
			c0.3,0.1,0.6,0.3,1,0.5c0.4,0.2,0.6,0.5,0.6,0.9s-0.6,1-1.7,1.9c-1.1,0.9-1.7,1.7-1.7,2.5c0,4.1,0,8.1,0,12c0,4,0.1,8,0.4,12
			c0,0.3,0,0.7,0.1,1.4c0.1,0.7,0.2,1.1,0.3,1.2l1.1,0.6c0.9,0,2.1,0,3.5-0.1c1.5-0.1,2.9-0.1,4.4-0.2c1.5-0.1,2.9-0.2,4.3-0.3
			c1.4-0.1,2.5-0.3,3.2-0.6c0.6-0.1,1.5-0.8,2.7-2.1c1.1-1.3,2.4-2.6,3.6-4c1.3-1.4,2.5-2.7,3.8-3.8c1.3-1.1,2.5-1.7,3.6-1.7
			s2.9,0.4,5.2,1.3c2.3,0.9,4.5,2,6.7,3.4c2.2,1.4,4.1,2.9,5.7,4.5c1.7,1.6,2.5,3,2.5,4.3c0,0.4-0.2,0.7-0.7,0.9
			c-0.4,0.2-0.8,0.3-1.1,0.3H149l-1.1,0.6l-1,2.1c0.1,1,1.3,2.1,3.4,3.3c2.2,1.2,4.6,2.4,7.4,3.4c2.7,1.1,5.4,2,8,2.8
			c2.6,0.8,4.4,1.1,5.4,1.1c1,0,2.9,0,5.5,0c2.7,0,5.8,0,9.4,0.1c3.6,0.1,7.3,0.1,11.3,0.1c3.9,0,7.6,0,10.9,0
			c3.3,0,6.1-0.1,8.3-0.2c2.2-0.1,3.5-0.3,3.7-0.4c0.4-0.4,1.1-1.1,2.3-2.2c1.1-1.1,2.4-2.2,3.6-3.3c1.3-1.1,2.5-2.2,3.5-3.1
			c1.1-0.9,1.8-1.3,2-1.3c0.9,0,2.5,0.7,5,2c2.4,1.3,4.9,2.9,7.5,4.7c2.5,1.8,4.8,3.5,6.8,5.3c2,1.7,3,3,3,3.9
			c0,0.6-0.2,1.2-0.7,1.6c-0.4,0.4-1,0.9-1.5,1.2c-0.6,0.4-1.1,0.8-1.5,1.2c-0.4,0.4-0.7,0.9-0.7,1.4v13.2c0,1.3-1.1,2.3-3.3,3.2
			c-2.2,0.8-4.8,1.5-7.6,1.9c-2.9,0.4-5.6,0.8-8.3,1c-2.7,0.2-4.5,0.3-5.5,0.3c-1.1,0-1.9-0.4-2.2-1.1c-0.3-0.8-0.5-1.6-0.7-2.6
			c-0.1-1-0.3-1.8-0.6-2.7c-0.3-0.8-0.8-1.2-1.5-1.2h-45.9c-2.3,0-4.6,0.5-6.9,1.4c-2.3,1-4.6,2-7,3.2c-2.4,1.2-4.7,2.3-7.1,3.2
			c-2.4,1-4.8,1.4-7.2,1.4c-1.3,0-1.9-0.6-1.9-1.9v-36.7c0-1.5-0.4-2.8-1.3-3.8c-0.9-1-2-1.8-3.3-2.4c-1.3-0.6-2.7-1-4.2-1.2
			c-1.5-0.3-2.9-0.4-4-0.4l-0.6-0.6l0.8-0.6h47C179.5,165.1,180.1,164.5,180.1,163.2z M118.2,147.3c1.1,0,3.3,0,6.5,0
			c3.2,0,6.8,0,11-0.1c4.1-0.1,8.5-0.1,13-0.1c4.5,0,8.7,0,12.5,0s7.1,0.1,9.8,0.2c2.7,0.1,4.2,0.3,4.6,0.4l0.4,0.6
			c-0.1,0.1-1.5,0.2-4.2,0.2c-2.7,0-6,0-10,0c-4,0-8.4,0-13.1,0c-4.7,0-9.2,0-13.5,0c-4.3,0-8,0-11.1,0c-3.1,0-5.1,0-5.8,0l-0.6-0.6
			L118.2,147.3z M111.5,228.2c1.9-2.7,4.1-5.4,6.6-8.1c2.5-2.7,4.9-5.2,7.4-7.4c2.4-2.2,4.2-3.2,5.4-3.2c0.3,0,0.6,0.4,1.1,1.3
			c0.5,0.9,1.1,1.9,1.6,3.1c0.6,1.1,1.1,2.2,1.4,3.2c0.4,1,0.6,1.7,0.6,2.1c0,2.6-0.3,5.4-0.9,8.4c-0.6,3.1-1.5,5.9-2.8,8.5
			c-1.3,2.6-3,4.8-5.1,6.6c-2.1,1.8-4.8,2.7-7.9,2.7c-3.7,0-6.3-1.1-7.9-3.2c-1.6-2.1-2.4-4.9-2.4-8.3
			C108.6,232.8,109.6,230.9,111.5,228.2z M131.2,279.8h42.1c0.4,0,0.8,0.1,1.2,0.3c0.4,0.2,0.8,0.4,1.1,0.7
			c-0.3,0.3-0.4,0.4-0.6,0.4c-0.8,0.1-2.4,0.3-4.8,0.4c-2.4,0.1-5.2,0.3-8.4,0.4c-3.2,0.1-6.6,0.2-10.1,0.3c-3.6,0.1-6.9,0.1-10,0.1
			c-3.1,0-5.8,0-7.9-0.1c-2.2-0.1-3.5-0.2-4-0.3l-0.2-0.2l0.2-1.1l0.2-0.2L131.2,279.8z M104.3,474.3c0.3,0,1,0,2.1-0.1
			c1.1,0,2.2-0.1,3.4-0.1c1.2,0,2.3,0,3.2,0.1c0.9,0,1.5,0.1,1.6,0.2l-0.2,0.3l-0.7,0.3h-9.4l-0.4-0.4L104.3,474.3z M142.7,474.9
			c-0.4,0.1-0.7,0.1-0.9,0.2c-0.5,0.1-1.4,0-2.8-0.1c-1.4-0.1-2.8-0.2-4.3-0.3c-1.5,0-2.8,0-4,0.2c-1.2,0.1-1.7,0.5-1.7,1.1v14.8
			l0.3,0.7c0.1,0.1,0.3,0.2,0.4,0.2c0.3,0,1-0.2,2-0.5c1-0.3,2.1-0.7,3.3-1.1c1.2-0.4,2.4-0.8,3.6-1.2c1.2-0.4,2.2-0.6,2.9-0.7
			l0.4,0.4l-0.3,0.6c-1.2,0.8-2.3,1.6-3.4,2.5c-1.1,0.8-2.2,1.6-3.4,2.4c-1,0.7-2,1.3-3,2c-1,0.6-2,1.4-2.9,2.2l-0.2,0.5v36.3
			c0,1.3-0.5,2.5-1.5,3.6c-1,1.1-2.2,2-3.7,2.8c-1.4,0.8-2.9,1.4-4.5,1.8c-1.6,0.4-2.9,0.7-4,0.7c-0.3,0-0.6-0.1-0.7-0.3
			c-0.1-0.2-0.2-0.4-0.4-0.7c-0.1-0.3-0.2-0.7-0.3-1.1c-0.1-0.4-0.1-0.8-0.2-1.2c-0.3-1.3-0.6-2.6-1.1-3.8c-0.4-1.3-1.1-2.4-1.9-3.4
			c-0.2-0.3-0.4-0.6-0.7-0.9c-0.3-0.3-0.4-0.7-0.4-1c0-0.3,0.3-0.6,0.8-0.7c0.5-0.1,1.1-0.2,1.8-0.3c0.7-0.1,1.4-0.2,2.2-0.4
			c0.7-0.2,1.3-0.5,1.7-1c0.1-0.1,0.2-0.6,0.3-1.6c0.1-1,0.2-2.2,0.3-3.6c0.1-1.4,0.1-2.9,0.2-4.6c0-1.7,0.1-3.2,0.1-4.7
			c0-1.5,0.1-2.8,0.1-4c0-1.2,0.1-1.9,0.1-2.3c0-0.5,0-1.1-0.1-1.7c0-0.6-0.4-0.9-1.2-0.9c-0.5,0-1.2,0.3-2.1,0.9
			c-0.8,0.6-1.7,1.3-2.5,2c-0.8,0.7-1.6,1.4-2.4,2.1c-0.7,0.6-1.3,1-1.7,1.2l-0.3-0.4c-0.5-1.8-1-3.8-1.6-5.9
			c-0.6-2.1-1.3-4-2.3-5.7c-0.1-0.3-0.3-0.6-0.5-0.9c-0.2-0.3-0.3-0.6-0.3-0.9c0-0.3,0-0.6,0.1-0.8c0-0.2,0.2-0.4,0.6-0.5
			c0.1-0.1,0.4-0.1,0.9-0.1c0.4,0,0.8,0,1,0c0.5,0,1.3-0.1,2.4-0.3c1.1-0.2,2.3-0.4,3.5-0.6c1.2-0.2,2.4-0.5,3.4-0.8
			c1-0.3,1.7-0.5,2.1-0.7c0.7-0.5,1.1-1,1.1-1.7v-42.6c0-0.2,0.1-0.4,0.2-0.7c0.1-0.2,0.3-0.4,0.6-0.4c2,0,4.1,0.2,6.2,0.5
			c2.1,0.3,4.1,0.7,6,1.1c0.2,0.1,0.4,0.1,0.7,0.2c0.2,0,0.4,0.2,0.4,0.6c0,0.3-0.2,0.7-0.6,1.1c-0.4,0.4-0.7,0.7-1,0.9l-0.3,0.7
			c0,0.5,0,1.8-0.1,3.7c0,1.9-0.1,3.9-0.1,6s0,4.1,0.1,5.7c0,1.7,0.1,2.6,0.3,2.7c0.1,0.1,0.3,0.2,0.5,0.2c0.3,0,0.7-0.4,1.2-1.2
			c0.5-0.8,1-1.7,1.6-2.8c0.5-1,1.1-2,1.6-2.9c0.5-0.9,1-1.5,1.3-1.7c0.4,0.1,1,0.7,1.9,1.6c0.9,0.9,1.7,1.9,2.6,3.1
			c0.8,1.2,1.6,2.3,2.3,3.3c0.7,1.1,1,1.8,1,2.2C143.2,474.6,143.1,474.8,142.7,474.9z M195,504c-0.3,0.2-0.6,0.5-1,0.7
			c-0.4,0.2-0.7,0.5-1,0.8c-0.3,0.3-0.4,0.5-0.4,0.8v33c0,0.9-0.5,1.6-1.4,2.1c-1,0.5-2,0.9-3.3,1.1c-1.2,0.2-2.5,0.4-3.7,0.4
			c-1.3,0-2.2-0.1-2.8-0.2c-0.5-0.1-0.8-0.5-1-1.4c-0.2-0.9-0.4-1.8-0.5-2.9c-0.1-1.1-0.2-2.1-0.2-3.1s0-1.7,0-2.1
			c0-4.9,0-9.8,0.1-14.7c0.1-4.9,0.1-9.8,0.1-14.7c0-0.7-0.3-1-1-1h-19.2c-0.7,0-1,0.3-1,1v29.8c0,0.7,0.3,1,1,1h16.4
			c0.1,0,0.4,0.1,0.9,0.3c0.4,0.2,0.7,0.4,0.8,0.5c0.1,0.1,0,0.2-0.2,0.2c-0.2,0-0.3,0-0.4,0h-17.2c-0.3,0-0.5,0.2-0.6,0.7
			c-0.1,0.5-0.3,1-0.4,1.7c-0.1,0.7-0.3,1.3-0.4,2c-0.1,0.6-0.3,1.1-0.6,1.4c-0.5,0.6-1.2,1.1-2.1,1.5c-0.8,0.4-1.8,0.7-2.8,0.9
			c-1,0.2-2,0.4-3,0.5c-1,0.1-1.8,0.2-2.6,0.2c-0.7,0-1-0.3-1-1V497c0-0.2,0.1-0.4,0.2-0.7c0.1-0.3,0.3-0.4,0.6-0.4
			c0.4,0,1.2,0.3,2.4,0.8c1.2,0.5,2.4,1.1,3.8,1.7s2.6,1.2,3.8,1.7c1.2,0.5,2,0.8,2.4,0.8H178l0.7-0.3l5.6-5.6
			c0.1-0.1,0.2-0.1,0.3-0.1c0.1,0,0.2,0,0.3-0.1c0.2-0.1,0.8,0.3,1.9,1.1c1.1,0.8,2.3,1.7,3.6,2.7c1.3,1,2.4,2,3.5,3
			c1,1,1.5,1.6,1.5,1.9C195.4,503.5,195.3,503.8,195,504z M177.6,518.2c-0.2,0.1-1.2,0.1-2.8,0.2c-1.7,0-3.5,0-5.5,0
			c-2,0-3.8-0.1-5.4-0.1c-1.6,0-2.5-0.1-2.5-0.1l1.1-0.5c0.5,0,1.6,0,3.1,0c1.5,0,3.1,0,4.8,0c1.7,0,3.2,0,4.6,0.1
			c1.4,0,2.2,0.1,2.5,0.2L177.6,518.2z M196.9,487c-0.8,0.9-1.8,1.6-3.1,2.1c-1.2,0.5-2.5,0.9-3.8,1.1c-1.3,0.2-2.5,0.4-3.5,0.4
			h-33.1c-1.9,0-3.5-0.7-4.8-2.2c-1.3-1.5-2-3.2-2-5c0-2.7,0-5.4,0-8.1c0-2.7-0.1-5.4-0.2-8.1c-0.1-2.7-0.3-5.4-0.4-8.1
			c-0.1-2.7-0.2-5.4-0.2-8.1c0-0.7,0.3-1,1-1c0.4,0,1.3,0.1,2.6,0.2c1.4,0.1,2.8,0.3,4.3,0.5c1.5,0.2,2.9,0.4,4.2,0.6
			c1.3,0.2,2,0.4,2.2,0.5c-0.2,0.5-0.6,1-1.2,1.5c-0.6,0.5-0.9,1-0.9,1.3l-0.6,13c0,0.3,0.1,0.6,0.4,0.7c0.3,0.1,0.5,0.2,0.8,0.2
			c0.9,0,2-0.4,3.5-1.2c1.4-0.8,2.9-1.8,4.6-3s3.3-2.5,5-3.9c1.7-1.4,3.2-2.6,4.6-3.9c1.4-1.2,2.6-2.2,3.6-3c1-0.8,1.7-1.2,1.9-1.2
			c0.3,0,1,0.5,2.2,1.4c1.2,0.9,2.4,2,3.8,3.2c1.3,1.2,2.5,2.3,3.6,3.4c1,1.1,1.6,1.7,1.6,1.9c0,0.3-0.2,0.5-0.5,0.6
			c-0.3,0.1-0.6,0.1-0.9,0.2c-4.2,0.6-8.3,1.3-12.4,2.2c-4,0.8-8.1,1.8-12.1,2.8c-0.3,0.1-1,0.2-2,0.5c-1,0.3-2,0.6-3,0.9
			c-1,0.3-1.9,0.6-2.7,1c-0.8,0.3-1.2,0.6-1.2,0.8c0,0.4,0,1.1-0.1,2c0,1,0,1.9,0.1,2.9c0.1,1,0.3,1.9,0.6,2.6
			c0.3,0.7,0.8,1.1,1.4,1.1h25.1c1.2,0,2.2-0.4,2.9-1.2c0.7-0.8,1.3-1.6,1.8-2.6c0.5-0.9,0.9-1.8,1.2-2.6c0.3-0.8,0.7-1.2,1.1-1.2
			c0.1,0,0.3,0.2,0.5,0.7c0.2,0.5,0.4,1,0.6,1.7c0.2,0.6,0.4,1.3,0.6,1.8c0.2,0.6,0.3,1,0.5,1.2c0.3,0.6,0.7,1.1,1.2,1.5
			c0.4,0.4,0.8,0.8,1.2,1.3c0.4,0.4,0.7,0.9,1,1.4c0.3,0.5,0.4,1.2,0.4,2C198.1,485,197.7,486.1,196.9,487z M212.9,509.7
			c-1.5,0-2.8-0.1-4-0.3c-1.2-0.2-1.8-0.5-1.8-1c0-0.3,0-0.4,0.1-0.5c0.5-2.6,1.1-5.3,1.8-7.9c0.6-2.6,1.2-5.3,1.6-8
			c0.3-2,0.6-3.9,0.8-5.8c0.2-1.9,0.4-3.9,0.7-5.8c0.1-0.9,0.2-1.9,0.3-2.8c0.1-0.9,0.2-1.8,0.5-2.7c0.1-0.6,0.4-0.9,0.9-0.9
			c0.2,0,0.4,0,0.5,0.1c2.2,0.8,4.5,1.6,6.8,2.3c2.3,0.7,4.6,1.4,7,1.9c1.6,0.3,3.2,0.6,4.8,0.7c1.6,0.1,3.2,0.3,4.8,0.6
			c0.3,0,0.5,0.2,0.5,0.5c0,0.3-0.2,0.5-0.5,0.5h-12.4c-0.2,0-0.4,0.3-0.6,1c-0.2,0.6-0.4,1.4-0.5,2.2c-0.1,0.8-0.3,1.6-0.4,2.3
			c-0.1,0.7-0.2,1.3-0.2,1.5c-0.1,0.7-0.2,2.2-0.4,4.4c-0.2,2.2-0.5,4.5-0.8,6.9c-0.3,2.4-0.7,4.5-1.2,6.5c-0.4,2-0.9,3.1-1.4,3.4
			c-0.4,0.2-1.3,0.4-2.6,0.6C215.8,509.6,214.4,509.7,212.9,509.7z M239.4,457.7h-29.8c-0.5,0-0.7-0.2-0.7-0.7
			c0-0.5,0.2-0.7,0.7-0.7h28.8c0.3,0,0.8-0.3,1.4-1c0.6-0.6,1.2-1.3,1.9-2.1c0.6-0.7,1.3-1.4,1.9-2.1c0.6-0.6,1.1-1,1.4-1
			c0.3,0,0.9,0.4,2,1.1c1,0.7,2.2,1.6,3.4,2.5c1.2,0.9,2.3,1.9,3.4,2.8c1,0.9,1.7,1.5,2.1,1.9c0,0.3-0.2,0.6-0.5,0.9
			c-0.3,0.3-0.7,0.5-1.1,0.8c-0.4,0.2-0.8,0.5-1.1,0.8c-0.3,0.3-0.5,0.5-0.5,0.8v22c0,0.5-0.5,1-1.5,1.3c-1,0.3-2.2,0.6-3.5,0.8
			c-1.3,0.2-2.5,0.4-3.8,0.5c-1.2,0.1-2,0.2-2.4,0.2c-0.3,0-0.6-0.4-0.8-1.1c-0.2-0.7-0.3-1.6-0.4-2.5c-0.1-0.9-0.2-1.9-0.2-2.7
			c0-0.9,0-1.5,0-1.7c0-3.3,0.1-6.5,0.2-9.8c0.1-3.3,0.2-6.6,0.2-9.8C240.4,458.1,240.1,457.7,239.4,457.7z M256.4,504.7
			c-0.9,0.5-1.6,0.9-2,1.2l-0.1,0.4c-0.7,3.3-1.3,6.7-1.7,10.2c-0.4,3.5-1,6.9-1.9,10.1s-2.2,6.3-4,9c-1.8,2.7-4.5,5-8.1,6.7
			c-0.5,0.3-1.2,0.5-2,0.8c-0.8,0.3-1.6,0.5-2.4,0.8c-0.8,0.2-1.7,0.4-2.5,0.6c-0.8,0.1-1.5,0.2-2.1,0.2c-0.5,0-0.9-0.3-1.1-0.8
			c-0.3-0.7-0.6-1.5-0.9-2.4c-0.2-0.8-0.6-1.6-1-2.4c-0.6-1.2-1.2-2.1-1.9-2.5c-0.6-0.5-1.3-0.8-1.9-1.1c-0.6-0.3-1.3-0.6-2-0.9
			c-0.7-0.3-1.4-0.9-2.1-1.9c-0.2-0.2-0.3-0.4-0.3-0.7c0-0.3,0.1-0.5,0.4-0.6c0.3-0.1,0.5-0.2,0.7-0.2H232c1.2,0,2.3-0.6,3.3-1.7
			c0.9-1.2,1.8-2.6,2.4-4.4c0.7-1.8,1.3-3.7,1.7-5.9c0.5-2.2,0.8-4.3,1.1-6.4c0.3-2.1,0.5-4,0.6-5.7c0.1-1.7,0.2-3.1,0.2-4
			c0-0.6-0.7-1-2.1-1.1c-1.4-0.1-3-0.2-4.8-0.1c-1.8,0.1-3.6,0.2-5.3,0.3c-1.7,0.1-2.9,0.1-3.5,0c-0.3-0.1-0.6-0.2-0.9-0.3
			c-0.3-0.1-0.5-0.3-0.6-0.7c0.1-0.1,0.9-0.2,2.4-0.3c1.5,0,3.1-0.1,4.9-0.1c1.8,0,3.5,0,5.1,0.1c1.6,0,2.6,0.1,3,0.1
			c0.2-0.2,0.7-0.7,1.6-1.4c0.8-0.7,1.7-1.5,2.7-2.3c0.9-0.8,1.8-1.5,2.5-2.1c0.7-0.6,1.2-0.9,1.3-0.9c0.3,0,0.5,0.1,0.8,0.4
			c0.3,0.3,0.5,0.5,0.6,0.6c0.3,0.3,0.9,0.8,1.8,1.6c0.9,0.8,1.9,1.6,3,2.4c1,0.8,2,1.6,2.8,2.4c0.8,0.7,1.2,1.2,1.2,1.3
			C257.8,503.7,257.4,504.2,256.4,504.7z M274.4,304.1H114.8c-0.4,0-0.8-0.1-1.1-0.3c-0.4-0.2-0.6-0.5-0.6-1.1c0-0.4,0.2-0.7,0.6-1
			c0.4-0.3,0.8-0.4,1.1-0.4h63.5c1.3,0,1.9-0.6,1.9-1.9v-35.4c0-1.3-0.6-1.9-1.9-1.9c-5.1,0-10.4,0.4-15.8,1.3
			c-5.4,0.9-10.5,2-15.4,3.4c-1,0.3-2,0.7-3.1,1.4c-1,0.7-1.9,1.1-2.7,1.2l-1.1-0.6c-0.3-0.9-0.8-2.3-1.7-4.1
			c-0.9-1.8-1.8-3.7-2.9-5.6c-1-1.9-1.9-3.6-2.7-5.2c-0.8-1.5-1.1-2.5-1.1-2.9c0-0.5,0-1,0.1-1.4c0.1-0.4,0.4-0.7,1.1-0.7
			c4.1,0,8.2,0.2,12.2,0.7c4.1,0.4,8.2,0.7,12.2,0.7c1.5,0,2.7-0.4,3.6-1.3c0.9-0.9,1.6-2,2.1-3.3c0.5-1.3,0.9-2.7,1.1-4.2
			c0.2-1.5,0.3-2.8,0.3-3.9c0-1.4-1.2-2.1-3.5-2.2c-2.4-0.1-4.9,0-7.7,0.2c-2.8,0.2-5.4,0.3-7.7,0.4c-2.4,0.1-3.5-0.5-3.5-1.6
			c0-0.8,0.4-1.1,1.3-1.1H217c1.1,0,2.2-0.5,3.2-1.5c1-1,1.9-2.1,2.9-3.3c1-1.2,2-2.3,3.1-3.3c1.1-1,2.3-1.5,3.7-1.5
			c1.9,0,3.6,0.5,5.1,1.6c1.5,1.1,2.9,2.3,4.2,3.6c1.3,1.3,2.7,2.6,4.1,3.6c1.4,1.1,2.9,1.6,4.6,1.6c0.8,0,1.5-0.8,2.1-2.3
			c0.6-1.5,1.1-3.2,1.3-5.2c0.3-1.9,0.3-3.6,0-5.2c-0.3-1.5-0.8-2.3-1.7-2.3H139.4c-0.5,0-0.8-0.2-0.8-0.6c0-1.3,0.6-1.9,1.9-1.9
			h107.6l1.3-0.6c0.4-0.4,1.2-1.2,2.5-2.5c1.3-1.3,2.6-2.6,4-3.9c1.4-1.3,2.7-2.5,3.9-3.5c1.2-1,2-1.5,2.4-1.5
			c0.4,0,1.6,0.9,3.5,2.7c2,1.8,4,3.8,6.2,6c2.2,2.2,4.1,4.3,5.9,6.3c1.8,2,2.7,3.2,2.7,3.5s-0.2,0.7-0.6,1.1
			c-0.4,0.3-0.7,0.5-1,0.7c-4.6,2.2-9.1,4.3-13.6,6.5c-2.6,1.3-5.1,2.7-7.7,4.2c-2.6,1.5-5.3,2.7-8.1,3.4c-0.6-0.3-1.3-0.8-2.1-1.5
			c-0.8-0.8-1.4-1.1-1.9-1.1h-49.9c-0.3,0-1.5,0.5-3.8,1.6c-2.3,1.1-4.8,2.3-7.4,3.6c-2.6,1.3-5,2.6-7.2,3.8c-2.2,1.2-3.3,1.9-3.4,2
			l-0.6,1.1c0.3,1,1.2,1.6,3,1.7c1.7,0.1,3,0.2,3.9,0.2c4.5,0,9-0.1,13.6-0.2c4.6-0.1,9.1-0.3,13.6-0.6c1.8-0.1,3.6-0.2,5.5-0.2
			c1.9,0,3.8-0.1,5.5-0.4c1.3-0.1,1.8-0.5,1.6-1.1c-0.2-0.6-0.6-1.3-1.2-2.1c-0.6-0.8-1.3-1.5-2.1-2.2c-0.8-0.7-1.1-1.2-1.1-1.4
			c0-0.8,0.5-1.1,1.4-1.1c1,0,1.7,0,2.2,0c2.7,0,5.9,0.1,9.8,0.3c3.8,0.2,7.5,0.8,11.1,1.8c3.6,1,6.6,2.6,9.1,4.7
			c2.5,2.1,3.7,5.1,3.7,8.9c0,2.2-0.7,4.2-2,6c-1.3,1.8-2,3.9-2,6c0,0.8,0.7,1.6,2.2,2.5c1.5,0.9,3.1,1.8,4.8,2.8
			c1.7,1,3.3,2,4.8,3.1c1.5,1.1,2.2,2.1,2.2,3.2l-0.6,1c-1,0.1-2,0.4-3.1,0.9c-1,0.4-1.5,1.3-1.5,2.6c0,1,0.8,2.3,2.4,3.9
			c1.6,1.6,3.4,3.2,5.5,4.9c2.1,1.7,4.2,3.2,6.3,4.5s3.6,2.3,4.5,3l0.6,1.1l-0.6,1c-0.3,0.3-0.6,0.5-1,0.7
			C275.2,304,274.8,304.1,274.4,304.1z M292.2,453.1c-0.4,0.3-0.8,0.5-1.3,0.8c-0.4,0.3-0.8,0.6-1.2,0.9c-0.3,0.3-0.5,0.6-0.5,0.9
			v84.4c0,0.8-0.5,1.5-1.5,2c-1,0.5-2.1,0.9-3.4,1.2c-1.3,0.3-2.6,0.5-3.8,0.7c-1.3,0.1-2.2,0.2-2.8,0.2c-0.7,0-1-0.3-1-1
			c0-4.3,0-8.7-0.1-13c0-4.3-0.1-8.7-0.2-13c-0.1-9.1-0.2-18.2-0.3-27.2c0-9-0.1-18.1-0.1-27.2c0-1.8,0-3.7-0.1-5.5
			c-0.1-1.9-0.1-3.7-0.1-5.5c0-0.5,0.2-0.8,0.5-0.9c0.3-0.1,0.6-0.2,1-0.2c2.6,0,5.1,0.1,7.6,0.4c2.5,0.3,5,0.6,7.5,0.9l0.5,0.4
			C292.9,452.6,292.6,452.9,292.2,453.1z M399.2,459.5c-0.1,0.1-0.4,0.3-0.7,0.5c-0.3,0.2-0.7,0.4-1,0.6c-0.3,0.2-0.6,0.5-0.8,0.7
			c-0.2,0.2-0.4,0.5-0.4,0.7v78.1c0,0.5-0.4,0.9-1.3,1.3s-1.9,0.8-3,1.1c-1.1,0.3-2.2,0.6-3.3,0.8c-1.1,0.2-1.8,0.3-2.2,0.3
			c-0.6,0-1,0-1.3-0.1c-0.2-0.1-0.5-0.4-0.9-0.9c-0.1-0.3-0.2-0.7-0.3-1.3c-0.1-0.6-0.1-1.2-0.2-1.9c-0.1-0.7-0.1-1.3-0.1-1.9
			s0-1.1,0-1.4v-46.5c0-0.7-0.3-1-1-1h-50.4c-0.3,0-0.6,0.1-0.9,0.4c-0.2,0.2-0.4,0.5-0.5,0.9c-0.1,0.4,0.3,0.9,1.2,1.5
			c0.8,0.6,1.8,1.1,2.9,1.6c1.1,0.5,2.2,0.9,3.2,1.3c1.1,0.3,1.8,0.5,2.2,0.5h24.7c0.3,0,0.6-0.2,1-0.5c0.4-0.3,0.8-0.7,1.3-1.2
			c0.4-0.4,0.9-0.8,1.4-1.2c0.5-0.3,0.9-0.5,1.2-0.5c0.5,0,1.2,0.2,2.2,0.5c1,0.3,1.9,0.7,2.9,1.3c0.9,0.5,1.8,1.1,2.5,1.7
			s1.1,1.2,1.1,1.8c0,0.5-0.3,1-1,1.3c-0.7,0.3-1,0.8-1,1.4v28c0,0.4-0.4,0.8-1.1,1.1c-0.7,0.3-1.5,0.6-2.4,0.9
			c-0.9,0.2-1.8,0.4-2.7,0.5s-1.5,0.2-1.9,0.2c-0.5,0-0.9-0.2-1-0.6c-0.1-0.4-0.2-0.9-0.3-1.4c-0.1-0.5-0.2-1.1-0.3-1.6
			c-0.1-0.5-0.5-0.9-1-1.1h-24.6l-0.5,0.2c-0.8,0.8-1.3,1.5-1.5,2.1c-0.2,0.6-0.4,1.1-0.7,1.5c-0.2,0.4-0.6,0.9-1.2,1.3
			c-0.6,0.4-1.7,0.8-3.3,1.3c-0.7,0.2-1.4,0.3-2.1,0.4c-0.7,0.1-1.4-0.1-2-0.6l-0.1-0.2V531v-39.7c0-0.3-0.2-0.6-0.5-0.9
			c-0.3-0.3-0.7-0.7-1.1-1c-0.4-0.3-0.8-0.7-1.1-1c-0.3-0.3-0.5-0.6-0.5-0.8c0-0.1,0.1-0.2,0.3-0.3c0.2-0.1,0.4-0.1,0.5-0.1h19.1
			c0.3,0,0.6-0.2,0.8-0.6s0.3-0.7,0.3-1c0-2.2-0.2-3.9-0.5-4.9c-0.3-1-0.8-1.6-1.4-1.8c-0.6-0.2-1.3-0.1-2.1,0.4
			c-0.8,0.4-1.7,0.9-2.7,1.5c-1,0.6-2.1,1.1-3.2,1.6c-1.1,0.5-2.3,0.8-3.5,0.8c-0.6,0-0.9-0.2-0.9-0.7l-0.7-19.3
			c0-0.6,0.3-0.9,1-0.9c0.9,0,1.9,0.2,2.7,0.6c0.9,0.4,1.7,0.9,2.5,1.4c0.8,0.5,1.7,1,2.5,1.4c0.9,0.4,1.8,0.6,2.7,0.6h15.9
			c0.3,0,0.6-0.2,1.1-0.7c0.5-0.4,1-0.9,1.5-1.5c0.5-0.6,1-1.1,1.5-1.6c0.5-0.5,1-0.8,1.4-1c0.3-0.1,0.8,0.2,1.6,0.8
			c0.8,0.6,1.7,1.3,2.6,2c0.9,0.8,1.9,1.5,2.7,2.2c0.9,0.7,1.5,1.2,1.8,1.4l0.3,0.4c0.1,0.3,0,0.7-0.4,1c-0.4,0.3-0.6,0.6-0.8,0.8
			c-0.1,0.1-0.2,0.6-0.3,1.4c-0.1,0.8-0.3,1.7-0.4,2.7c-0.1,1-0.2,1.9-0.3,2.8c-0.1,0.9-0.1,1.5-0.1,1.7c0,0.6,0.4,1.4,1.1,2.4
			c0.7,1,1.6,1.9,2.7,2.8c1.1,0.9,2.1,1.7,3.2,2.4c1,0.7,1.9,1,2.5,1c0.1,0,0.4-0.2,0.8-0.6c0.4-0.4,0.6-0.7,0.6-0.9
			c0-0.6,0-1.7,0-3.2s0-3.3,0-5.2c0-2,0-4,0-6.2c0-2.2,0-4.2,0-6s0-3.4-0.1-4.7c-0.1-1.3-0.1-2-0.2-2.2c-0.5-0.1-1.9-0.2-4.3-0.3
			c-2.4,0-5.3,0-8.7,0c-3.4,0-7.1,0.1-11.1,0.2c-4,0.1-7.8,0.2-11.5,0.3c-3.7,0.1-6.9,0.2-9.9,0.3c-2.9,0.1-4.9,0.1-6.1,0.1
			c-1.3,0-2.5-0.1-3.7-0.4c-1.2-0.2-2.4-0.4-3.7-0.4c-0.3,0-0.6,0.1-1,0.3c-0.4,0.2-0.6,0.5-0.6,0.8v75.4c0,0.7,0.3,1,1,1h57.1
			c0.1,0,0.3,0,0.4,0.1c0.1,0,0.2,0.1,0.2,0.3c0,0.7-0.4,1.1-1.1,1.1c-1,0-3.1,0-6.2,0c-3.1,0-6.8,0-10.9,0s-8.5,0-13.1-0.1
			c-4.5,0-8.7,0-12.6,0c-3.9,0-7.1,0.1-9.7,0.1c-2.6,0-3.9,0.1-4,0.2c-0.9,0.7-1.6,1.4-2.1,2.2c-0.4,0.8-0.9,1.5-1.3,2.2
			c-0.4,0.7-1.1,1.3-1.9,1.8c-0.8,0.5-2.1,0.7-3.8,0.7c-0.2,0-0.5,0-0.9,0.1c-0.4,0-0.8,0-1.2,0c-0.4,0-0.8-0.1-1.1-0.3
			c-0.3-0.2-0.5-0.4-0.5-0.8c0-15.2-0.1-30.4-0.4-45.5c-0.2-15.1-0.4-30.2-0.4-45.5c0-0.1,0.1-0.3,0.2-0.6c0.1-0.2,0.3-0.4,0.5-0.4
			c0.8,0,1.9,0.3,3.2,0.9c1.3,0.6,2.6,1.2,4,1.9c1.4,0.7,2.6,1.3,3.8,1.9c1.2,0.6,2.1,0.9,2.7,0.9h56.9c0.8,0,1.5-0.4,2.1-1.1
			c0.6-0.7,1.1-1.5,1.6-2.3c0.5-0.8,1-1.6,1.5-2.3c0.5-0.7,1.1-1.1,1.9-1.1c0.3,0,0.9,0.4,1.9,1.2c1,0.8,2,1.7,3.2,2.7
			c1.2,1,2.2,2,3.3,2.9c1,1,1.7,1.6,2,1.8l0.2,0.5L399.2,459.5z M422.4,297.4c-0.8-1.4-1.6-2.5-2.5-3.2c-0.9-0.8-1.8-1.4-2.7-1.9
			c-0.9-0.5-1.7-1-2.4-1.4c-0.7-0.4-1.3-1.1-1.8-1.8c0.3-0.5,0.6-0.8,1.1-0.9c0.4-0.1,0.9-0.1,1.4-0.1h18.4c0.8,0,1.5-0.7,2.3-2.1
			c0.8-1.4,1.4-2.9,1.9-4.6c0.5-1.7,0.8-3.2,0.9-4.6c0.1-1.4-0.4-2.1-1.2-2.1h-68.8c-0.6,0-1.2,0.3-1.7,1c-0.5,0.6-1,1.4-1.5,2.3
			c-0.5,0.9-1,1.7-1.4,2.5c-0.4,0.8-0.9,1.3-1.4,1.7c-0.4,0.3-1.6,0.4-3.6,0.6c-2,0.1-4.2,0.2-6.5,0.1c-2.3-0.1-4.4-0.3-6.2-0.8
			c-1.8-0.4-2.8-1.1-2.8-1.8c0-0.4,0.1-0.6,0.2-0.8c1.4-3.7,2.7-7.5,3.9-11.3c1.2-3.9,2.3-7.7,3.3-11.6c0.5-1.8,1-3.7,1.4-5.6
			c0.4-1.9,1-3.8,1.6-5.5c0.3-1,0.8-1.5,1.5-1.5c0.4,0,1.4,0.5,3.2,1.6c1.7,1.1,3.8,2.3,6.1,3.5c2.4,1.3,4.9,2.5,7.6,3.5
			c2.7,1.1,5.3,1.6,7.7,1.6h50.3c1.3,0,1.9-0.6,1.9-1.9c0-0.5,0.1-1.5,0.2-2.9c0.1-1.4,0.2-2.9,0.2-4.4c0-1.5-0.2-2.9-0.5-4.1
			c-0.3-1.2-0.9-1.8-1.8-1.8h-71.3c-0.6,0-1.5,0.2-2.5,0.5c-1,0.3-2,0.5-3,0.6c-1,0.1-1.8-0.1-2.5-0.5c-0.7-0.4-1.1-1.3-1.1-2.7
			c0-0.4,0.2-0.7,0.7-0.9c0.4-0.2,0.8-0.3,1.1-0.3h77.2l1.3-0.6c1.9-1.9,3.8-3.8,5.7-5.5c1.9-1.7,3.8-3.6,5.7-5.5l0.6-1.4
			c0-0.6,0.1-1.9,0.2-3.8c0.1-1.9,0.2-3.9,0.2-5.8c0-2-0.1-3.7-0.3-5.3c-0.2-1.5-0.6-2.3-1.2-2.3c-0.6,0-1.5,0.8-2.5,2.4
			c-1,1.6-2.1,3.3-3.3,5.3c-1.2,1.9-2.5,3.7-3.7,5.3c-1.3,1.6-2.5,2.4-3.6,2.4c-0.4,0-0.6-0.2-0.8-0.6c-0.1-0.4-0.2-0.7-0.2-1
			c0-0.8,0.2-2.3,0.5-4.6c0.3-2.3,0.8-4.7,1.3-7.2c0.6-2.5,1.2-4.6,2-6.5c0.8-1.9,1.6-2.8,2.5-2.8c1.3,0,2.5,0.2,3.5,0.6
			c1.1,0.4,2.3,0.6,3.5,0.8l1.3-0.6c0.3-0.4,0.4-1.1,0.6-2c0.1-1,0.2-1.9,0.2-3c0-1-0.1-1.9-0.4-2.8c-0.3-0.8-0.6-1.2-1.1-1.2
			c-1.7,0-3.1,0.5-4.4,1.6c-1.3,1.1-2.7,1.6-4.4,1.6c-0.6,0-1.2-0.4-1.8-1.1c-0.6-0.8-1.2-1.6-1.8-2.6c-0.6-1-1.2-1.8-1.8-2.7
			c-0.6-0.8-1.2-1.2-1.8-1.2h-36.3c-0.6,0-1.1,0.2-1.4,0.6c-0.3,0.4-0.6,0.8-0.9,1.3c-0.3,0.5-0.6,1-1,1.3s-0.8,0.6-1.3,0.6
			c-1.3,0-2.8,0.1-4.5,0.2c-1.7,0.1-3-0.4-3.7-1.7c-0.6-1-1.1-2.1-1.5-3.2s-1.3-1.7-2.7-1.7c-1.7,0-2.6,0.7-2.9,2.2
			c-0.3,1.5-0.4,2.8-0.4,3.9c0,2.3,0.5,4.2,1.6,5.8c1.1,1.6,2.4,3,4,4.3c1.6,1.3,3.2,2.5,5,3.6c1.7,1.1,3.2,2.5,4.5,4
			c1.1,0.6,2.2,0.4,3.2-0.8c0.4-0.5,0.5-1.6,0.4-3.2c-0.1-1.6-0.3-3.2-0.4-5c-0.1-1.7-0.1-3.2,0-4.6c0.1-1.3,0.7-2,1.7-2
			c1.4,0,2.8,0.3,4.3,0.9c1.5,0.6,2.9,1.2,4.3,1.8c1.4,0.6,2.8,1.1,4.2,1.5c1.4,0.4,2.8,0.4,4.2,0.2c0.4-0.4,0.9-0.9,1.6-1.4
			c0.7-0.6,1.5-1.2,2.3-1.9c0.8-0.7,1.6-1.3,2.3-1.8c0.7-0.5,1.2-0.9,1.6-1.1c0.5,0.3,1.3,0.8,2.5,1.7c1.1,0.9,2.3,1.8,3.4,2.9
			c1.1,1,2.1,2,3,3c0.8,1,1.2,1.7,1.2,2.2c0,0.4-0.4,0.7-1.1,1c-0.7,0.3-1.1,0.8-1.1,1.5v19.5c0,0.6-0.4,1.2-1.1,1.7
			c-0.8,0.5-1.7,0.9-2.7,1.2c-1,0.3-2,0.6-3.1,0.8c-1,0.2-1.8,0.3-2.3,0.3c-1.5,0-2.5-0.4-2.9-1.1c-0.4-0.7-0.7-1.5-1-2.3
			c-0.3-0.8-0.6-1.5-1.1-2.3c-0.4-0.7-1.5-1.1-3.2-1.1c-1.5,0-2.8,0.5-3.7,1.5c-1,1-1.9,2-2.9,3.1c-1,1.1-2,2.2-3.2,3.1
			c-1.1,1-2.7,1.5-4.8,1.5c-1.3,0-2.1-0.5-2.4-1.4c-0.3-1-0.4-2.1-0.3-3.3c0.1-1.3,0.2-2.6,0.3-3.9c0.1-1.3-0.2-2.4-0.7-3.2
			c-0.4-0.6-0.8-1-1.3-1c-0.5,0-1.1,0.1-1.6,0.3c-0.6,0.2-1.1,0.4-1.6,0.7c-0.5,0.3-1,0.4-1.5,0.4h-4c-0.6,0-1.1-0.6-1.4-1.8
			c-0.3-1.2-0.6-2.6-1-4.2c-0.3-1.6-0.7-3.2-1.1-4.9c-0.4-1.7-1.1-2.9-1.8-3.6c-1.8-0.5-2.8,0.3-3.2,2.4c-0.3,2.1-0.4,4.6-0.3,7.5
			c0.1,2.9,0.3,5.7,0.5,8.4c0.2,2.7,0,4.5-0.5,5.3c-1,1.3-2.6,2.1-4.9,2.4c-2.2,0.3-4.1,0.5-5.6,0.5c-1.3,0-2-1.1-2.1-3.2
			c-0.1-2.1-0.1-4.4,0.1-6.9s0.3-4.8,0.3-6.9s-0.4-3.2-1.3-3.2c-1.7,0-3.1,0.9-4.3,2.7c-1.2,1.8-2.4,3.7-3.6,5.8
			c-1.2,2.1-2.5,4-3.8,5.7c-1.3,1.7-3,2.6-5.1,2.6c-0.9,0-1.3-0.4-1.3-1.3c0-1.5,0.4-3.3,1.1-5.3c0.8-2,1.6-4,2.5-6.2
			c0.9-2.2,1.7-4.4,2.5-6.6c0.8-2.2,1.1-4.4,1.1-6.4c0-1.1-0.1-2.6-0.3-4.3c-0.2-1.7-0.5-3.4-1.1-5.2c-0.5-1.7-1.2-3.2-2-4.6
			c-0.8-1.3-1.9-2.3-3.2-2.8c-0.4-0.1-0.6-0.1-0.8,0.2c-1.1,1.7-2.3,4.3-3.3,7.8c-1.1,3.6-2.1,7.6-3,12c-0.9,4.5-1.7,9.2-2.4,14.2
			c-0.7,5-1.3,9.9-1.8,14.5c-0.5,4.7-0.9,9-1.1,12.9c-0.3,4-0.4,7.1-0.4,9.4c0,3.3,0.4,6.5,1.1,9.6c0.8,3.1,1.6,6.2,2.6,9.3
			c1,3.1,1.8,6.2,2.7,9.4c0.8,3.1,1.2,6.3,1.2,9.5c0,5.5-1.3,9.6-3.8,12.2c-2.6,2.7-5.3,4.2-8.3,4.7c-3,0.4-5.8-0.1-8.3-1.7
			c-2.6-1.6-3.8-3.9-3.8-7c0-2.8,0.3-6.3,0.8-10.4c0.5-4.1,0.8-8.3,1-12.5c0.1-4.2-0.1-8.2-0.8-11.9c-0.6-3.7-2-6.6-4.2-8.8
			c-0.6-0.6-1.4-1.2-2.4-1.6c-1-0.4-1.8-1-2.4-1.6c1.1-0.6,2.3-1.1,3.5-1.3c1.2-0.3,2.3-0.8,3.3-1.5c1.3-1,2.3-2.2,3.1-3.6
			c0.8-1.4,1.5-2.8,2.1-4.2c0.4-0.9,1.1-2.7,2-5.4c1-2.7,1.9-5.5,3-8.5c1-3,1.9-5.7,2.7-8.2s1.1-4,1.1-4.7c0-1,0-1.9-0.1-2.7
			c-0.1-0.8-0.7-1.3-1.8-1.5c-1.3-0.3-2.6-0.3-3.9-0.3c-1.3,0.1-2.7,0-4.1-0.3c-3.2-0.5-5.2-1.5-6.1-2.9c-0.9-1.4-1.7-3.6-2.3-6.5
			c-0.3-1.4-0.5-2.9-0.9-4.4c-0.3-1.5-0.7-3-1.1-4.4c-0.5-1.7-1.3-3.6-2.4-5.7c-1.1-2.2-1.6-4.1-1.6-5.7c0-0.5,0.2-0.8,0.6-1
			c0.4-0.1,0.8-0.2,1.1-0.2c2,0,4.3,0.6,6.8,1.8c2.5,1.2,4.9,2.7,7.4,4.5c2.4,1.8,4.7,3.7,6.8,5.6c2.1,2,3.8,3.7,5.1,5.3l1.1,0.6
			c1-0.4,2-1.9,3.1-4.5c1-2.6,2-5.4,2.9-8.4c0.9-3,1.7-5.8,2.5-8.3c0.8-2.5,1.4-3.9,1.9-4c0.1,0.1,0.2,0.3,0.2,0.6
			c0,2.3,0.3,4,0.9,5.1c0.6,1.1,1.4,1.8,2.4,2.3c1,0.4,2.2,0.7,3.6,0.7c1.4,0,3,0,4.8,0c0.5,0,1.1-0.1,1.9-0.4
			c0.8-0.6,1.7-1.8,2.9-3.3c1.1-1.6,1.7-2.9,1.7-3.9c0-0.8-0.4-1.5-1.1-2.3c-1.3-1.4-2.6-2.6-4.1-3.7c-1.5-1.1-2.7-2.5-3.7-4.1
			c-0.5-0.9-0.9-1.8-1.2-2.7c-0.3-0.9-0.7-1.8-1.2-2.7c-0.3-0.5-0.6-1.1-1.1-1.7c-0.4-0.6-0.7-1.3-0.7-1.9c0-0.5,0.3-0.9,1-1.1
			c0.6-0.2,1.4-0.3,2.2-0.4c0.8-0.1,1.6-0.1,2.4,0c0.8,0.1,1.3,0.1,1.7,0.1l1.1-0.6c1.7-3.3,2.8-6.7,3.5-10.2
			c0.7-3.5,1.8-6.9,3.3-10.2l1.1-0.6c0.5,0.1,1.5,0.4,3.1,1c1.5,0.5,3.1,1.1,4.7,1.7c1.6,0.6,3,1.3,4.2,2.1c1.2,0.8,1.8,1.4,1.8,1.9
			c0,1-1,2.1-2.9,3.3c-1.9,1.2-4,2.5-6.4,3.9c-2.4,1.4-4.5,2.9-6.4,4.6c-1.9,1.7-2.9,3.3-2.9,5c0,1.5,0.6,3.3,1.9,5.4
			c1.3,2,2.8,3.1,4.6,3.1c0.9,0,1.7-0.6,2.4-1.7c0.7-1.1,1.4-2.5,2.1-4c0.7-1.5,1.3-3,1.9-4.5c0.6-1.5,1.2-2.5,1.8-3.2l1-0.4
			c1.9,0.3,3.8,0.9,5.5,2c1.8,1.1,3.6,1.9,5.4,2.6c3.1,0.9,6.5,1.2,10.2,1.1c3.8-0.2,7.3-0.2,10.6,0.1c1,0.1,2,0.2,2.9,0.3
			c0.9,0.1,1.8,0.1,2.9,0.1c0.9,0,1.9-0.3,3-1.1c1.1-0.7,2.1-1.6,3.1-2.6c1-1,1.8-2.1,2.4-3.2c0.6-1.1,1-2.1,1.1-3l-0.4-1.1
			c-0.4-0.1-1.8-0.3-4.2-0.4c-2.4-0.1-5.1-0.2-7.9-0.2c-2.9,0-5.6,0-8.2,0c-2.6,0-4.4,0-5.3,0l-1.3-0.6c-0.3-0.3-0.4-0.6-0.4-1
			c0-0.9,0.8-1.5,2.4-1.7c1.6-0.3,3.4-0.4,5.5-0.4s4.1,0.1,6.1,0.2c2,0.1,3.3,0.2,3.9,0.2c0.4,0,0.9-0.4,1.6-1.3
			c0.7-0.9,1.5-1.8,2.3-2.9c0.8-1,1.6-2,2.4-2.9c0.8-0.9,1.4-1.3,1.9-1.3c0.4,0,1.1,0.4,2.2,1.2c1.1,0.8,2.2,1.8,3.3,2.9
			c1.1,1.1,2.2,2.1,3.2,3.1c1,1,1.4,1.6,1.4,2c0,0.5-0.2,0.9-0.6,1.1s-0.8,0.4-1.2,0.7c-0.4,0.3-0.9,0.6-1.2,1.1
			c-0.4,0.4-0.6,1.1-0.6,2c0,1.1,0.6,2.1,1.7,3c1.1,0.8,2.5,1.5,4.1,2.1c1.6,0.6,3.2,1,4.8,1.2c1.6,0.3,2.8,0.4,3.7,0.4
			c1.1,0,2-1.2,2.7-3.5c0.6-2.4,1.3-5,1.9-7.8c0.6-2.9,1.3-5.5,2-7.8c0.7-2.4,1.6-3.5,2.8-3.5c0.5,0,1.6,0.3,3.2,1
			c1.6,0.6,3.2,1.4,5,2.2c1.7,0.8,3.2,1.6,4.6,2.4s2,1.2,2,1.3c0,0.4-1,1.1-2.9,2.3c-1.9,1.1-4,2.5-6.2,4c-2.2,1.5-4.3,3.2-6.2,4.9
			s-2.9,3.3-2.9,4.7c0,0.4,0.3,1.1,0.8,2.3c0.5,1.1,1.1,2.3,1.7,3.5c0.6,1.2,1.3,2.3,1.9,3.3c0.6,1,1.1,1.4,1.5,1.4
			c0.8,0,1.6-0.7,2.4-2.2c0.8-1.5,1.7-3.1,2.6-4.9c0.9-1.8,1.8-3.4,2.6-4.9c0.8-1.5,1.6-2.2,2.4-2.2c0.1,0,0.9,0.4,2.2,1.1
			c1.3,0.7,2.8,1.5,4.5,2.3c1.7,0.8,3.2,1.7,4.5,2.5c1.3,0.8,2.1,1.3,2.4,1.4c0.3,0.3,0.4,0.4,0.4,0.6c-0.1,0.6-1.5,1.8-4.1,3.5
			c-2.6,1.7-5.4,3.7-8.5,5.9c-3.1,2.2-5.9,4.5-8.4,6.8c-2.6,2.3-3.8,4.3-3.8,6.1c0,0.8,0.6,1.2,1.7,1.2c1.1,0.1,2,0.1,2.5,0.1
			c0.5,0,1.5,0,3.1-0.1c1.5-0.1,3.1-0.2,4.7-0.4c1.6-0.2,3-0.5,4.3-1c1.3-0.4,1.9-1,1.9-1.6c0-1-0.2-1.9-0.7-2.7
			c-0.4-0.8-0.7-1.5-0.7-2.3c0-0.4,0.2-0.6,0.7-0.8c0.4-0.1,0.8-0.2,1.1-0.2c1.4,0,2.8,0.4,4.3,1.2c1.5,0.8,2.8,1.9,4,3.2
			c1.2,1.3,2.2,2.7,3,4.2c0.8,1.5,1.1,3,1.1,4.4c0,2.3-0.3,3.7-0.9,4.2c-0.6,0.5-2,0.8-4.3,0.8c-1.4,0-2.4-0.3-2.9-1.1
			c-0.5-0.7-1-1.5-1.3-2.3c-0.4-0.8-0.8-1.6-1.3-2.3c-0.5-0.7-1.5-1.1-2.9-1.1c-0.9,0-1.8,0.2-2.9,0.7c-1,0.4-1.5,1.2-1.5,2.2v8.7
			c0,0.8,1,1.6,2.9,2.6c1.9,0.9,4,2.2,6.2,3.6c2.2,1.5,4.3,3.3,6.2,5.4c1.9,2.2,2.9,4.8,2.9,7.8c0,1.8-0.5,3.2-1.5,4.4
			c-1,1.1-2.5,1.7-4.4,1.7c-2.4,0-4-1-4.8-3.1c-0.8-2.1-1.2-4.4-1.4-7c-0.2-2.6-0.5-4.9-0.9-7c-0.4-2.1-1.4-3.1-3.1-3.1
			c-0.3,0-0.7,0.1-1.2,0.4c-0.6,0.3-1,0.4-1.2,0.6c-0.3,1-0.4,2.8-0.4,5.4c0,2.6,0,5.2,0.1,8c0.1,2.8,0.1,5.3,0.2,7.6
			c0.1,2.2,0,3.5-0.3,3.7c-0.4,0.4-1.1,0.8-2.1,1.1c-1,0.4-2.1,0.8-3.2,1.2c-1.1,0.4-2,0.9-2.9,1.3c-0.8,0.4-1.2,0.9-1.2,1.4
			c0,1,0.5,2,1.4,3c1,1,2,1.8,3.2,2.7c1.2,0.8,2.3,1.6,3.2,2.4c1,0.8,1.4,1.4,1.4,1.9c0,0.9-0.6,1.6-1.8,2.2
			c-1.2,0.6-1.8,1.4-1.8,2.6c0,0.5,0,1.5,0,2.9c0,1.4,0,2.9,0,4.4c0,1.5,0,2.9-0.1,4.2c-0.1,1.3-0.2,2-0.3,2.3
			c-0.5,0.6-1,1.2-1.4,1.6c-0.4,0.4-0.9,1-1.4,1.6c0.5,0.5,1.6,1.5,3.2,3c1.7,1.5,3.4,3,5.2,4.7c1.8,1.7,3.4,3.2,4.9,4.5
			c1.5,1.3,2.2,2.2,2.2,2.6c0,0.3-0.2,0.6-0.7,1.1c-0.4,0.4-1,1-1.6,1.5c-0.6,0.6-1.2,1.1-1.8,1.6c-0.6,0.5-0.9,1-1.1,1.3
			c-0.8,1.5-1.4,3.1-2,4.8c-0.6,1.7-1.2,3.2-2,4.8c-1.7,3.4-3.4,6.2-5.2,8.4c-1.8,2.2-3.8,3.9-6.1,5.3s-4.8,2.3-7.6,2.8
			c-2.8,0.5-6.1,0.8-9.8,0.8c-0.3,0-0.6-0.5-1.1-1.6c-0.5-1.1-1.1-2.3-1.6-3.6s-1.1-2.6-1.6-3.9C423,298.6,422.6,297.8,422.4,297.4z
			 M460.4,501.1c1.3,1.4,3,3,4.9,4.9c2,1.9,4.1,3.9,6.4,6.1c2.3,2.2,4.4,4.2,6.4,6.1c2,1.9,3.6,3.5,4.9,4.9c1.3,1.4,2,2.3,2,2.7
			c0,0.3-0.3,0.8-0.9,1.4c-0.6,0.6-1,0.9-1.4,0.9c-0.4,0-1.3-0.7-2.7-2c-1.4-1.3-3-3-4.9-4.9c-1.9-2-3.9-4.1-6.1-6.4
			c-2.2-2.3-4.2-4.4-6.1-6.4c-1.9-2-3.5-3.6-4.9-4.9c-1.4-1.3-2.3-2-2.7-2s-1.3,0.7-2.7,2c-1.4,1.3-3,3-4.9,4.9
			c-1.9,2-3.9,4.1-6.1,6.4c-2.2,2.3-4.2,4.4-6.1,6.4c-1.9,2-3.5,3.6-4.9,4.9c-1.4,1.3-2.3,2-2.7,2c-0.3,0-0.8-0.3-1.4-0.9
			c-0.6-0.6-0.9-1-0.9-1.4c0-0.4,0.7-1.3,2-2.7c1.3-1.4,3-3,4.9-4.9c2-1.9,4.1-3.9,6.4-6.1c2.3-2.2,4.4-4.2,6.4-6.1
			c2-1.9,3.6-3.5,4.9-4.9c1.3-1.4,2-2.3,2-2.7c0-0.3-0.7-1.2-2-2.6s-3-3.1-5-5.1c-2-2-4.2-4.1-6.5-6.3c-2.3-2.2-4.5-4.3-6.5-6.3
			c-2-1.9-3.7-3.6-5-4.9c-1.4-1.4-2-2.2-2-2.4c0-0.4,0.3-0.9,1-1.6c0.7-0.7,1.2-1,1.6-1c0.3,0,1.1,0.7,2.4,2c1.4,1.4,3,3,4.9,5
			c1.9,2,4,4.2,6.3,6.5c2.2,2.3,4.3,4.5,6.3,6.5c2,2,3.7,3.7,5.1,5c1.4,1.4,2.3,2,2.6,2c0.3,0,1.2-0.7,2.6-2c1.4-1.4,3.1-3,5.1-5
			c2-2,4.1-4.2,6.3-6.5c2.2-2.3,4.3-4.5,6.3-6.5c1.9-2,3.6-3.7,4.9-5c1.4-1.4,2.2-2,2.4-2c0.4,0,0.9,0.3,1.6,1c0.6,0.7,1,1.2,1,1.6
			c0,0.3-0.7,1.1-2,2.4c-1.4,1.4-3,3-5,4.9c-2,1.9-4.2,4-6.5,6.3c-2.3,2.2-4.5,4.3-6.5,6.3c-2,2-3.7,3.7-5,5.1s-2,2.3-2,2.6
			C458.4,498.8,459.1,499.7,460.4,501.1z"/>
		<path d="M400.1,214.3c0.6,0.6,1.6,1,3,1c0.8,0,1.8-0.1,3.2-0.3c1.3-0.2,2-0.9,2-2v-12c0-0.8-0.4-1.2-1.3-1.3
			c-0.9-0.1-1.6-0.2-2.1-0.2c-2.8,0-4.5,0.4-5,1.3c-0.5,0.9-0.8,2.6-0.8,5.2c0,0.9,0,1.9-0.1,3c-0.1,1.1,0,2.1,0.1,3.1
			C399.2,212.8,399.5,213.6,400.1,214.3z"/>
	</g>
	<g>
		<path class="st0" d="M183.6,371.9l-0.1-0.1l-0.7-0.3h-27.9c-0.3,0-0.6,0.1-1,0.3c-0.4,0.2-0.8,0.3-1.2,0.3c-0.3,0-0.6-0.1-0.9-0.2
			c-0.3-0.1-0.6-0.3-0.9-0.4c-0.1,0.1-0.3,0.1-0.4,0.2c-0.1,0-0.2,0.1-0.4,0.2c-0.3,0.2-0.9,0.7-1.7,1.4c-0.8,0.7-1.6,1.6-2.4,2.4
			c-0.8,0.9-1.6,1.7-2.2,2.6c-0.6,0.8-1,1.4-1,1.8c0,0.7,0.4,1.2,1.2,1.6c0.8,0.4,1.7,0.7,2.7,0.9c1.1,0.2,2.1,0.3,3.1,0.4
			c1,0.1,1.8,0.1,2.2,0.1c0.8,0,1.2-0.5,1.3-1.5c0-1,0-2.1-0.1-3.3c-0.1-1.2-0.1-2.3-0.1-3.3c0-1,0.4-1.5,1.2-1.5
			c0.1,0,0.4,0.1,0.8,0.2c0.5,0.1,1.2,0.2,2.1,0.3c0.9,0,1.8,0.1,2.7,0.2c0.9,0.1,1.7,0.3,2.4,0.5c0.7,0.2,1,0.5,1,1v6.7
			c0,0.3,0.2,0.5,0.7,0.6c0.4,0.1,0.8,0.1,1,0.1c1.3,0,2.4-0.5,3.5-1.4c1-0.9,2-1.8,2.8-2.6l0.5-0.2h0.3c0.3,0.2,0.8,0.6,1.6,1.1
			c0.8,0.5,1.5,1.1,2.3,1.6c0.7,0.6,1.4,1.2,2,1.7c0.6,0.6,0.9,1,0.9,1.4c0,0.5-0.3,1-0.9,1.3c-0.6,0.3-0.9,0.7-0.9,1.3
			c0,0.4,0,1.3,0.1,2.5c0,1.3,0.1,2.6,0.1,4c0,1.4,0,2.6-0.1,3.7c-0.1,1.1-0.2,1.8-0.5,2c-0.3,0.2-0.9,0.4-1.6,0.5
			c-0.7,0.1-1.4,0.3-2.2,0.5c-0.7,0.2-1.4,0.4-2,0.7c-0.6,0.3-0.9,0.6-0.9,1.1c0,0.8,0.5,1.5,1.5,2c1,0.5,2.1,1.1,3.3,1.7
			s2.3,1.3,3.3,2.1c1,0.8,1.5,1.9,1.5,3.3c0,1.8-0.5,3-1.4,3.7c-1,0.7-2,1.1-3.2,1.1c-1.2,0.1-2.2-0.1-3.2-0.4c-1-0.3-1.4-0.6-1.4-1
			c0-0.3,0-0.7,0.1-1.3c0.1-0.6,0.1-1.2,0.1-1.8c0-0.6-0.1-1.2-0.3-1.6c-0.2-0.5-0.5-0.7-0.9-0.7c-0.1,0-0.4,0-0.8,0s-0.7,0-0.8,0.1
			l-23.9,10c-0.5,0.3-1.1,0.7-1.6,1.3c-0.5,0.6-1.1,0.9-1.7,0.9c-0.3,0-0.7-0.5-1.4-1.5c-0.6-1-1.3-2.2-1.9-3.5
			c-0.6-1.3-1.2-2.6-1.7-3.8c-0.5-1.2-0.8-2-0.8-2.4s0.1-0.6,0.2-0.7c0.1-0.1,0.3-0.1,0.7-0.2c2.1-0.4,4.2-0.6,6.3-0.5
			c2.1,0.1,4.2,0.1,6.3-0.1c0.7-0.1,1.3-0.1,1.9-0.2c0.6-0.1,1.3-0.1,1.9-0.1l0.7-0.3l0.1-0.1l0.3-0.7V400c0-0.5-0.3-0.7-1-0.7
			c-1.3,0-2.5,0.2-3.7,0.7c-1.2,0.4-2.3,0.9-3.4,1.4c-1.1,0.5-2.1,1-3.2,1.4c-1,0.4-2,0.7-3.1,0.7c-0.7,0-1-0.3-1-0.9
			c0-0.8,0-2,0.1-3.7c0-1.7,0.1-3.4,0.1-5.1c0-1.8,0-3.4,0-5c0-1.6-0.1-2.6-0.3-3.2c-0.5-0.4-1-0.5-1.5-0.4c-0.5,0.1-1,0.3-1.4,0.5
			c-0.4,0.2-0.7,0.3-1,0.3c-0.3,0-0.4-0.3-0.4-1c0-1.6,0.4-3.1,1.1-4.7c0.7-1.6,1.5-3.2,2.3-4.8c0.8-1.6,1.6-3.3,2.3-5
			c0.7-1.7,1.1-3.5,1.1-5.3c0-0.3-0.2-0.5-0.5-0.8c-0.3-0.2-0.7-0.4-1.1-0.6c-0.4-0.2-0.8-0.3-1.2-0.5c-0.4-0.1-0.7-0.3-0.9-0.4
			c-0.1-0.1-0.1-0.7-0.1-1.6c0-0.9,0-2.1-0.1-3.5c0-1.4-0.1-2.9-0.1-4.5c0-1.6,0-3.1,0.1-4.6c0-1.5,0.1-2.7,0.1-3.9
			c0-1.1,0-1.9,0-2.4c0-0.3-0.3-0.5-0.8-0.6c-0.5-0.1-1-0.1-1.2-0.1c-0.6,0-1.4,0.5-2.4,1.5c-1,1-2.1,2.1-3.2,3.4
			c-1.1,1.3-2.2,2.6-3.2,3.8c-1,1.3-1.7,2.1-2.2,2.6l-0.2,0.7c0.1,1,0.3,2.1,0.7,3.1c0.4,1.1,0.9,2.1,1.4,3.2c0.5,1.1,1,2.1,1.5,3.2
			c0.5,1,0.9,2,1.2,3c1.4,4.3,2.2,8.8,2.4,13.4c0.2,4.6,0.4,9.1,0.4,13.6c0,2.1,0,4.4-0.1,6.9c-0.1,2.5-0.3,5-0.7,7.5
			c-0.4,2.5-0.9,5-1.7,7.4c-0.7,2.4-1.8,4.5-3.1,6.3c-1.3,1.8-3,3.3-5,4.4s-4.5,1.7-7.3,1.7c-0.5,0-0.9-0.3-1-1
			c-0.2-1-0.3-1.9-0.4-2.6c-0.1-0.7-0.2-1.5-0.3-2.1c-0.1-0.7-0.4-1.4-0.7-2.1c-0.3-0.7-0.8-1.6-1.5-2.6c-0.1-0.2-0.3-0.4-0.4-0.6
			c-0.1-0.2-0.2-0.4-0.2-0.7c0-0.3,0.2-0.6,0.5-0.7c0.3-0.1,0.6-0.2,0.9-0.3c1.2-0.3,2.2-0.7,3-1.1c0.9-0.4,1.7-1,2.5-1.9
			c1-1.2,1.8-2.4,2.4-3.9s1.1-2.9,1.4-4.5c0.3-1.6,0.5-3.1,0.6-4.7c0.1-1.6,0.2-3.1,0.2-4.6c0-0.4,0-1,0.1-1.8
			c0-0.8,0.1-1.6,0.1-2.4c0-0.8,0-1.6,0-2.3c0-0.7-0.1-1.3-0.3-1.6c-0.1-0.4-0.3-0.6-0.6-0.6c-0.3,0-0.6,0.1-0.9,0.2
			c-0.7,0.7-1.8,1.7-3.2,2.9c-1.4,1.2-2.9,2.3-4.4,3.5c-1.6,1.1-3.1,2.1-4.6,2.9c-1.5,0.8-2.8,1.3-3.7,1.3c-0.3,0-0.5,0-0.7-0.1
			c-0.2-0.1-0.3-0.3-0.3-0.6c0-0.3,0.2-0.8,0.5-1.5c0.3-0.6,0.7-1.3,1.1-2c0.4-0.7,0.8-1.3,1.2-1.9c0.4-0.6,0.7-1.1,0.9-1.4
			c1.8-2.4,3.7-4.9,5.5-7.3c1.9-2.4,3.5-5,4.8-7.8c0.7-1.6,1.3-3.2,1.6-4.8c0.3-1.7,0.5-3.4,0.5-5.1c0-0.5-0.1-1-0.4-1.5
			c-0.3-0.5-0.7-0.8-1.2-0.8c-1.9,1.4-3.8,2.7-5.7,4.2c-1.9,1.4-3.9,2.6-6.1,3.6l-0.3-0.2c0-0.4,0.5-1.2,1.5-2.4
			c1-1.2,2.1-2.6,3.3-4.2s2.3-3.3,3.3-5.1c1-1.8,1.5-3.5,1.5-5.1c0-1.3-0.4-2.6-1.1-4c-0.7-1.4-1.5-2.7-2.4-3.9
			c-0.9-1.2-1.7-2.3-2.3-3.2c-0.7-0.9-1-1.5-0.9-1.9l0.3-0.2c1.4,0.6,2.6,1.4,3.7,2.3c1.1,0.9,2.3,1.8,3.4,2.8
			c0.5,0.4,1,0.8,1.5,1.3c0.4,0.4,1,0.8,1.6,1.1l0.5-0.2l0.5-0.5c0.1-0.4,0.4-1.3,0.8-2.6c0.4-1.3,0.8-2.7,1.3-4
			c0.5-1.4,0.9-2.6,1.4-3.7c0.4-1.1,0.8-1.6,1.2-1.6c0.1,0,0.8,0.4,2,1.1c1.2,0.7,2.5,1.6,4,2.4c1.5,0.9,2.9,1.7,4.2,2.4
			c1.3,0.7,2.1,1.1,2.4,1.1c0.9,0,1.4-0.3,1.5-0.9s0.1-1.3,0-2s-0.2-1.3-0.2-1.9c0-0.5,0.4-0.7,1.1-0.6c0.3,0.1,0.5,0.2,0.8,0.3
			c0.3,0.1,0.5,0.2,0.7,0.4c0.2,0.1,0.7,0.3,1.6,0.6c0.8,0.3,1.7,0.6,2.7,0.9c0.9,0.3,1.8,0.6,2.6,0.9c0.8,0.3,1.2,0.4,1.4,0.4h33.2
			l0.7-0.3c0.2-0.2,0.5-0.5,0.9-1c0.4-0.4,0.8-0.9,1.3-1.3c0.5-0.4,0.9-0.8,1.4-1.2c0.4-0.4,0.8-0.6,1-0.6c0.2,0,0.7,0.3,1.6,0.9
			s1.8,1.3,2.8,2c1,0.7,1.9,1.5,2.7,2.1c0.8,0.7,1.3,1.1,1.4,1.3c0.1,0.3,0.1,0.6,0,0.8c-0.1,0.2-0.3,0.3-0.6,0.5
			c-0.2,0.2-0.5,0.3-0.7,0.5c-0.2,0.2-0.3,0.4-0.3,0.7v16c0,0.4-0.2,0.7-0.6,1c-0.4,0.2-0.8,0.5-1.3,0.7c-0.4,0.2-0.9,0.4-1.3,0.7
			c-0.4,0.2-0.6,0.6-0.6,1v1l0.3,0.7c0.3,0.3,0.8,0.8,1.7,1.7c0.9,0.8,1.8,1.7,2.7,2.6c0.9,0.9,1.7,1.8,2.4,2.5
			c0.7,0.8,1.1,1.3,1.1,1.5c0,0.1-0.1,0.3-0.3,0.6c-0.2,0.2-0.5,0.5-0.8,0.8c-0.3,0.3-0.6,0.5-0.9,0.8c-0.3,0.3-0.4,0.5-0.5,0.6
			c-0.1,0.3-0.2,1-0.3,2.1c-0.1,1.1-0.1,2.4-0.2,3.8c0,1.4-0.1,2.7-0.1,4c0,1.3,0,2.1,0,2.6c-0.1,4-0.2,7.9-0.2,11.8
			c0,3.9-0.1,7.8-0.4,11.8c-0.1,2.6-0.5,5-1,7.3c-0.5,2.3-1.3,4.3-2.5,6c-1.2,1.7-2.7,3.1-4.6,4.1c-1.9,1-4.4,1.5-7.4,1.5
			c-0.3,0-0.5-0.2-0.8-0.5c-0.2-0.3-0.5-0.7-0.7-1.2c-0.2-0.4-0.4-0.9-0.5-1.3c-0.1-0.4-0.3-0.8-0.4-1c-0.2-0.3-0.5-0.8-1-1.3
			c-0.5-0.5-1-1-1.5-1.5c-0.5-0.5-1-1-1.4-1.5c-0.4-0.5-0.6-0.8-0.6-1.1c0-0.3,0.2-0.5,0.5-0.6c0.3-0.1,0.6-0.1,0.9-0.1
			c1.9,0,3.6-0.2,5.1-0.7c1.5-0.4,2.7-1.6,3.6-3.5c0.4-0.9,0.7-1.9,0.9-2.9c0.2-1,0.3-1.9,0.4-2.9c0.3-4.3,0.4-8.7,0.5-13
			c0-4.3,0.1-8.6,0.3-13c0.1-1.9,0.2-3.8,0.3-5.6c0.1-1.8,0.1-3.7-0.1-5.6L183.6,371.9z M146.6,396.9c0,0.7,0.3,1,1,1h4.8
			c0.7,0,1-0.3,1-1v-11.5c0-0.7-0.3-1-1-1h-4.8c-0.7,0-1,0.3-1,1V396.9z M153,369.1l0.1,0.1c0.1,0.1,0.7,0.1,2,0.2
			c1.3,0,2.9,0.1,4.8,0.1s4,0,6.4,0.1c2.3,0,4.5,0.1,6.6,0.1c2.1,0,3.9,0,5.4,0c1.6,0,2.6,0,3.2,0l0.7-0.3l4.8-4.8l0.3-0.7
			c0.1-0.7,0-1.3-0.2-1.6c-0.2-0.3-0.5-0.5-0.9-0.6c-0.4-0.1-0.8-0.1-1.3,0c-0.5,0.1-1,0.1-1.4,0.1c-0.3,0-0.6-0.1-0.8-0.4
			c-0.2-0.2-0.4-0.5-0.6-0.8c-0.2-0.3-0.4-0.6-0.6-0.8c-0.2-0.2-0.6-0.4-1.1-0.4h-31.8c-0.8,0-1.3,0.4-1.4,1.2
			c-0.1,0.8-0.1,1.5,0.1,2c0.1,0.2,0.5,0.4,1.3,0.7c0.8,0.3,1.7,0.6,2.6,0.9c0.9,0.3,1.8,0.6,2.6,1c0.8,0.3,1.3,0.6,1.3,0.9
			c-0.5,0.5-0.9,0.8-1.4,0.9c-0.5,0.1-0.8,0.5-1.1,1.4L153,369.1z M147.6,340.6c-0.1,0.1-0.1,0.2-0.2,0.3c-0.1,0.1-0.1,0.2-0.1,0.3
			v15c0,0.7,0.3,1,1,1h4.1c0.7,0,1-0.3,1-1v-14.5c0-0.6-0.2-1-0.6-1.2c-0.4-0.2-0.9-0.3-1.4-0.3h-3L147.6,340.6z M161.5,356.3
			c0,0.7,0.3,1,1,1h4.1c0.7,0,1-0.3,1-1v-14.5c0-0.5-0.3-1-1-1.3c-0.6-0.3-1.3-0.5-2.1-0.5c-0.7,0-1.4,0.1-2.1,0.4
			c-0.6,0.3-1,0.7-1,1.3V356.3z M163.2,407c0.1,0.1,0.3,0.2,0.8,0.3c0.5,0,1,0.1,1.6,0.1c0.6,0,1.1,0.1,1.6,0.1c0.5,0,0.9,0,1.1,0
			c0.5,0,0.7-0.3,0.7-1c0-0.8,0-1.6-0.1-2.5c0-0.8-0.2-1.6-0.5-2.3c-0.3-0.7-0.7-1.2-1.3-1.7c-0.6-0.4-1.4-0.7-2.5-0.7
			c-0.5,0-0.8,0.3-1.1,0.9c-0.2,0.6-0.4,1.3-0.5,2.1c-0.1,0.8-0.2,1.6-0.2,2.4c0,0.8-0.1,1.3-0.1,1.7L163.2,407z M168.3,385.1
			c0-0.3-0.2-0.5-0.5-0.6c-0.3-0.1-0.6-0.1-0.9-0.1c-0.2,0-0.5,0-0.8-0.1c-0.3,0-0.7,0-1.1,0c-0.4,0-0.7,0.1-1,0.2
			c-0.3,0.1-0.4,0.3-0.4,0.6v12.2c0,0.3,0.2,0.5,0.7,0.6c0.5,0.1,1,0.2,1.6,0.2s1.2-0.1,1.6-0.2c0.5-0.1,0.7-0.3,0.7-0.6V385.1z
			 M181.5,340.5c-0.3-0.1-1-0.2-1.9-0.2s-1.6,0-2,0c-0.3,0-0.7,0.2-1,0.5c0,0.1,0,0.1-0.1,0.2c0,0.1-0.1,0.1-0.1,0.2v15
			c0,0.7,0.3,1,1,1h3.5c0.4,0,0.7-0.1,0.8-0.3c0.1-0.2,0.2-0.4,0.2-0.8v-15L181.5,340.5z"/>
		<path class="st0" d="M205.3,422.1l-0.2-0.3c0.1-0.1,0.2-0.1,0.3-0.1h51.8c0.1,0,0.2,0,0.3,0.1c0,0.2-0.1,0.4-0.4,0.5
			c-0.2,0.1-0.4,0.2-0.6,0.2H206L205.3,422.1z M282.8,345.2c0.4,0.4,1.3,1.1,2.7,2.1s2.8,2.1,4.3,3.3c1.5,1.2,2.8,2.2,3.9,3.2
			c1.2,1,1.7,1.6,1.7,2c0,0.2-0.2,0.4-0.6,0.6c-0.4,0.2-0.6,0.3-0.8,0.3h-84c-0.3,0-0.5-0.2-0.5-0.5c0-0.3,0.2-0.5,0.5-0.5h33.8
			c0.7,0,1-0.3,1-1v-19.3c0-0.7,0.3-1,1-1c0.9,0,2.1,0,3.4,0.1c1.3,0,2.6,0.1,4,0.2c1.4,0.1,2.7,0.2,3.9,0.4
			c1.3,0.2,2.3,0.4,3.2,0.7c0.7,0.2,0.9,0.4,0.8,0.7c-0.1,0.2-0.4,0.5-0.8,0.8c-0.4,0.3-0.8,0.6-1.3,0.9c-0.4,0.3-0.7,0.7-0.7,1.1
			v15.2c0,0.7,0.3,1,1,1h13.9c1,0,1.9-0.5,2.6-1.5c0.7-1,1.5-2.1,2.1-3.3c0.7-1.2,1.3-2.4,2-3.5c0.6-1.1,1.3-1.7,2.1-1.9
			L282.8,345.2z M224.2,365.4c0.7,0.3,1.5,0.8,2.1,1.5s1.3,1.3,1.8,1.9c2.4,2.4,4.5,4.8,6.4,7.2c1.9,2.4,3.5,4.8,4.9,7.4
			c1.4,2.5,2.4,5.3,3.1,8.2c0.7,2.9,1.1,6.1,1.1,9.7c0,1-0.1,2.2-0.3,3.6c-0.2,1.4-0.5,2.6-1,3.8c-0.5,1.2-1.1,2.2-2,3
			c-0.8,0.8-1.9,1.3-3.3,1.3c-0.5,0-1-0.1-1.7-0.3c-0.6-0.2-1.3-0.4-1.9-0.7c-0.6-0.3-1.2-0.6-1.7-1c-0.5-0.4-0.9-0.8-1.1-1.3
			c-0.1-0.2-0.2-0.7-0.3-1.5c-0.1-0.8-0.1-1.6-0.2-2.5c-0.1-0.9-0.1-1.7-0.2-2.5c-0.1-0.8-0.1-1.4-0.1-1.7c-0.2-2.8-0.4-5.5-0.7-8.2
			c-0.3-2.7-0.7-5.4-1.2-8.1c-0.6-3.2-1.4-6.4-2.5-9.5c-1.1-3.2-1.6-6.4-1.7-9.7L224.2,365.4z M267,362.7l11.2,2.6
			c0.8,0.2,1.6,0.4,2.5,0.6c0.8,0.2,1.7,0.4,2.5,0.7c0.2,0.1,0.4,0.2,0.6,0.3c0.2,0.1,0.3,0.3,0.3,0.6c0,0.1-0.1,0.4-0.4,0.7
			c-0.2,0.3-0.5,0.6-0.8,1c-0.3,0.4-0.6,0.7-0.9,1.1c-0.3,0.3-0.5,0.6-0.6,0.7c-0.7,1.2-1.3,2.4-1.7,3.7c-0.4,1.3-0.8,2.6-1.4,3.9
			c-2,5.2-4.2,10.3-6.6,15.4c-2.3,5-4.7,10.1-7.1,15.1c-0.2,0.4-0.5,1.1-1,2.2c-0.5,1.1-1,2.1-1.6,3.3c-0.6,1.1-1.2,2.1-1.8,3
			c-0.6,0.9-1,1.3-1.4,1.3c-0.3,0-0.4-0.2-0.5-0.5c-0.1-0.3-0.1-0.5-0.1-0.7c0-1.9,0.2-3.8,0.5-5.6c0.3-1.8,0.7-3.7,1-5.5
			c1.4-7.3,2.5-14.5,3.6-21.7s2-14.5,3-21.8L267,362.7z M286.3,411.1c1.6,1.2,3.1,2.4,4.6,3.7s3.1,2.4,4.6,3.6
			c0.6,0.5,1.2,0.9,1.8,1.3c0.6,0.4,1.2,0.9,1.7,1.4c0,0.9-0.4,1.3-1.2,1.3h-36.2c-0.3,0-0.5-0.2-0.5-0.5c0-0.3,0.2-0.5,0.5-0.5
			h14.7c0.6,0,1.3-0.5,2.1-1.5c0.8-1,1.6-2.1,2.5-3.3c0.9-1.2,1.7-2.4,2.5-3.5c0.8-1.1,1.5-1.8,2.1-2.2L286.3,411.1z"/>
		<path class="st0" d="M335.2,370.4c0.3-0.3,0.5-0.8,0.5-1.3c0-0.2-0.2-0.8-0.5-1.9c-0.3-1.1-0.7-2.3-1.2-3.8
			c-0.5-1.5-1-3.1-1.6-4.8c-0.6-1.7-1.1-3.3-1.6-4.7c-0.5-1.5-0.9-2.7-1.3-3.7c-0.4-1-0.6-1.5-0.7-1.7c-0.1-0.1-0.3-0.3-0.5-0.5
			c-0.2-0.2-0.4-0.3-0.6-0.5c-0.2-0.1-1-0.2-2.4-0.3c-1.4,0-3-0.1-4.7-0.1c-1.7,0-3.3,0-4.9,0.1c-1.6,0-2.6,0.1-3.1,0.1
			c-0.5,0-0.7-0.2-0.7-0.7c0-0.4,0.2-0.6,0.7-0.6c5.3,0,10.6,0,15.9,0.1c5.3,0.1,10.6,0,15.9-0.1c0.1,0,0.3,0,0.8,0
			c0.4,0,0.7,0,0.8-0.1c0.1-0.1,0.3-0.4,0.4-0.7c0.1-0.3,0.2-0.6,0.2-0.8c0-1.8-0.1-3.5-0.4-5.3c-0.2-1.8-0.4-3.6-0.4-5.3
			c0-0.7,0.3-1,1-1c2.2,0,4.5,0.1,6.8,0.2c2.3,0.1,4.5,0.4,6.7,1c0.3,0.1,0.5,0.1,0.7,0.2c0.2,0.1,0.3,0.3,0.3,0.6
			c0,0.5-0.2,0.9-0.7,1.2c-0.4,0.3-0.7,0.7-0.7,1.2v7.5c0,0.7,0.3,1,1,1h16c0.8,0,1.5-0.5,2.1-1.4c0.6-0.9,1.1-2,1.7-3.1
			c0.5-1.1,1.1-2.2,1.7-3.1c0.6-1,1.3-1.4,2.1-1.4c0.3,0,1,0.5,2.3,1.4c1.3,1,2.6,2,4,3.2c1.4,1.2,2.6,2.3,3.7,3.4
			c1.1,1.1,1.6,1.8,1.6,2.1c0,0.2-0.1,0.3-0.4,0.4c-0.2,0.1-0.4,0.1-0.6,0.1h-22.7c-0.2,0-0.5,0.1-0.8,0.4c-0.3,0.3-0.5,0.5-0.5,0.7
			c0,0.6,0.6,1.2,1.7,1.7c1.1,0.5,2.4,1,3.7,1.4c1.4,0.4,2.6,0.8,3.8,1.2c1.2,0.4,1.8,0.7,1.8,1c-0.8,0.5-1.6,1.1-2.4,1.6
			c-0.8,0.5-1.6,1.2-2.3,1.8c-1,0.9-2.1,2-3.3,3.3c-1.3,1.3-2.6,2.5-3.9,3.8c-1.4,1.2-2.8,2.3-4.2,3.2c-1.5,0.9-2.9,1.3-4.2,1.3
			l-0.4-0.4c0-2.4,0.4-4.9,1.3-7.3c0.9-2.4,1.7-4.8,2.5-7.1c0.3-0.9,0.7-1.8,1-2.8c0.3-1,0.5-2,0.5-2.9c0-0.3-0.1-0.6-0.4-0.8
			c-0.3-0.2-0.6-0.3-1-0.3c-0.4,0-0.8,0-1.2,0c-0.4,0-0.7,0.1-0.9,0.1c-3.9,0-7.8,0.1-11.7,0.3c-3.9,0.2-7.8,0.3-11.7,0.3
			c-0.3,0-1,0-2-0.1c-1-0.1-2.1-0.1-3.2-0.1c-1.1,0-2.1,0.1-2.9,0.3c-0.8,0.2-1.2,0.5-1.1,1c0.7,1,1.6,1.8,2.6,2.4
			c1,0.6,2.1,1.1,3.3,1.5c1.2,0.4,2.3,0.8,3.5,1.2c1.2,0.4,2.2,0.9,3,1.6c0.9,0.7,1.6,1.6,2.2,2.6c0.6,1.1,0.9,2.5,0.9,4.3
			c0,1.2-0.4,2.6-1.1,4.1c-0.7,1.5-1.4,2.9-1.9,4c-0.1,0.3-0.3,0.5-0.4,0.7c-0.1,0.2-0.4,0.3-0.7,0.3h-32.7c-0.3,0-0.5-0.2-0.5-0.5
			c0-0.3,0.2-0.5,0.5-0.5c4.4,0,8.8,0.1,13.1,0.2C326.5,370.9,330.8,370.8,335.2,370.4z M387.2,386.5v0.3l-0.2,0.5
			c-0.4,0.3-1.1,0.7-1.9,1.2s-1.3,1-1.3,1.6v32.3c0,0.8-0.7,1.5-2,2.2c-1.3,0.6-2.8,1.1-4.4,1.5c-1.6,0.3-3.2,0.5-4.7,0.5
			c-1.5,0-2.4-0.3-2.6-0.8c-0.2-0.3-0.3-1.3-0.4-3.2c-0.1-1.8-0.1-4.1-0.1-6.7c0-2.6,0-5.4,0.1-8.4c0-3,0.1-5.9,0.1-8.7
			c0-2.8,0.1-5.3,0.1-7.4c0-2.1,0.1-3.6,0.1-4.5c0-0.7-0.3-1-1-1h-30.1c-0.7,0-1,0.3-1,1v30.5c0,0.7,0.3,1,1,1H367
			c0.3,0,0.5,0.2,0.5,0.5c0,0.3-0.2,0.5-0.5,0.5h-28.6c-0.1,0-0.3,0.2-0.4,0.7c-0.1,0.4-0.3,0.9-0.5,1.5c-0.2,0.6-0.4,1.2-0.6,1.7
			c-0.2,0.6-0.4,1-0.6,1.2c-0.4,0.5-1.1,1-2,1.3c-0.9,0.3-1.9,0.6-2.9,0.8c-1.1,0.2-2.1,0.4-3.1,0.5s-1.9,0.2-2.5,0.2
			c-0.7,0-1-0.3-1-1c0-7.8-0.1-15.5-0.3-23.1s-0.3-15.3-0.3-23.1c0-0.7,0.3-1,0.8-1c0.4,0,1.1,0.3,2.1,0.8c1,0.5,2.1,1.1,3.4,1.7
			s2.5,1.2,3.8,1.7c1.3,0.5,2.4,0.8,3.5,0.8l29.2,0.7c0.3,0,0.9-0.4,1.7-1.1c0.8-0.7,1.7-1.6,2.5-2.5c0.9-0.9,1.7-1.7,2.4-2.5
			c0.7-0.7,1.3-1.1,1.5-1.1c0.3,0,1,0.4,2.1,1.2c1,0.8,2.2,1.7,3.5,2.7s2.5,2,3.6,3c1.2,1,2,1.6,2.6,1.9L387.2,386.5z M340.2,401.3
			h27l0.3,0.3l-0.3,0.4h-27l-0.4-0.4L340.2,401.3z M349,371.5c-0.3,0-0.7,0-1.1-0.1c-0.4,0-0.7-0.2-1.1-0.4c0.1-0.3,0.7-0.4,1.8-0.5
			c1-0.1,2.2-0.1,3.6-0.1c1.3,0,2.6,0.1,3.8,0.2c1.2,0.1,1.9,0.1,2.3,0.1c0.1,0,0.3,0,0.6,0.1c0.2,0.1,0.4,0.2,0.4,0.4l-0.3,0.2H349
			z M387.8,361c0.3,0.2,1.2,0.8,2.4,1.8c1.3,1,2.6,2.1,4.1,3.2c1.4,1.2,2.7,2.2,3.8,3.2c1.1,1,1.7,1.6,1.7,1.8
			c0,0.2-0.1,0.4-0.4,0.5c-0.2,0.1-0.4,0.2-0.6,0.2c-3.9,0-7.8,0-11.7,0.1c-3.9,0-7.8,0.1-11.7,0.1c-0.5,0-1.3,0-2.4,0.1
			c-1.1,0-2.1,0.1-3.3,0.1c-1.1,0-2.2,0-3.2-0.1c-1,0-1.8-0.1-2.2-0.3c0.3-0.3,1.2-0.6,2.6-0.7c1.4-0.1,2.9-0.2,4.6-0.2
			c1.7,0,3.3-0.1,4.9-0.2c1.6-0.1,2.8-0.2,3.5-0.4c0.5-0.4,1.1-1.1,1.8-2.1c0.7-1,1.5-2,2.2-3c0.8-1,1.5-1.9,2.2-2.7
			C386.9,361.4,387.4,361,387.8,361z"/>
		<path class="st0" d="M413.5,386.8c-0.3-0.5-0.7-1.3-1.4-2.4c-0.6-1.1-1.3-2.3-2-3.5c-0.7-1.2-1.3-2.3-1.8-3.4
			c-0.5-1-0.8-1.7-0.9-2c0.1-0.1,0.6-0.2,1.5-0.2c0.8,0,1.8,0,2.8,0.1c1,0,2,0.1,2.9,0.1c0.9,0,1.6-0.1,2-0.3c0.5-0.3,0.9-0.7,1.2-1
			c0.1-0.2,0.5-1,1.2-2.5c0.6-1.5,1.3-3,2-4.7c0.7-1.7,1.3-3.3,1.9-4.7c0.5-1.5,0.8-2.3,0.8-2.5c0-0.4-0.2-0.6-0.7-0.7
			c-0.4-0.1-0.9-0.1-1.5-0.1c-0.5,0-1.1,0.1-1.7,0.3c-0.6,0.1-1,0.2-1.2,0.2c-1.2,0-2.3-0.5-3.3-1.4c-1-0.9-1.8-2.1-2.5-3.5
			c-0.7-1.4-1.2-2.8-1.6-4.2c-0.4-1.5-0.6-2.7-0.6-3.7c0-0.5,0.3-0.8,1-0.8c0.7,0,1.4,0.1,2.3,0.4c0.8,0.2,1.7,0.5,2.5,0.8
			c0.8,0.3,1.4,0.4,1.8,0.4c0.5,0,0.9-0.6,1.3-1.9c0.4-1.3,0.7-2.8,1-4.5c0.3-1.7,0.5-3.3,0.7-4.9c0.2-1.6,0.3-2.6,0.4-3.2l0.4-0.3
			l0.4,0.1c0.4,0.1,1.2,0.4,2.4,0.9c1.2,0.5,2.4,1,3.7,1.5c1.3,0.5,2.4,1.1,3.4,1.6c1,0.5,1.5,0.9,1.5,1.2c0,0.4-0.2,0.7-0.6,0.9
			c-0.4,0.2-0.8,0.3-1.1,0.5c-0.1,0.1-0.7,0.5-1.6,1.4c-1,0.9-2,1.8-3.1,2.8s-2.1,2-3,2.8c-0.9,0.9-1.4,1.4-1.5,1.5
			c-0.2,0.3-0.2,0.8-0.1,1.5c0.1,0.7,0.4,1.4,0.7,2.1c0.3,0.7,0.7,1.3,1.1,1.8s0.8,0.8,1.3,0.8c0.5,0,0.9-0.3,1.3-0.8
			c0.4-0.5,0.7-1.2,1-1.9c0.3-0.7,0.6-1.4,0.8-2.2c0.2-0.7,0.4-1.3,0.6-1.6l0.5-0.3c0.5,0,1.1,0.2,2,0.6s1.7,0.9,2.6,1.5
			c0.9,0.6,1.8,1.1,2.5,1.7c0.8,0.6,1.3,1,1.7,1.4l0.2,0.5c-0.3,1-0.9,2.1-1.8,3.3c-0.9,1.2-2,2.5-3.3,3.7c-1.3,1.3-2.7,2.6-4.2,3.9
			c-1.5,1.3-2.9,2.6-4.2,3.8c-1.3,1.2-2.5,2.3-3.5,3.4s-1.6,2-2,2.8l0.4,0.4h7.7c0.6,0,0.9-0.3,0.8-1.1c-0.1-0.7-0.2-1.5-0.4-2.4
			c-0.2-0.9-0.3-1.7-0.4-2.4c-0.1-0.7,0.2-1.1,0.9-1.1c0.7,0,1.5,0.3,2.4,0.9c0.8,0.6,1.7,1.4,2.5,2.2c0.8,0.8,1.7,1.5,2.5,2.2
			c0.8,0.6,1.7,0.9,2.5,0.9c0.4,0,0.8-0.2,1.1-0.6c0.1-0.1,0.2-0.6,0.3-1.5c0.1-0.9,0.2-2.1,0.3-3.6c0.1-1.5,0.2-3,0.3-4.7
			c0.1-1.7,0.2-3.2,0.3-4.8c0.1-1.5,0.2-2.9,0.3-4c0.1-1.1,0.1-1.9,0.1-2.2c0-2-0.2-3.9-0.7-5.8c-0.4-1.9-0.7-3.8-0.8-5.8l0.4-0.3
			c0.4-0.1,1,0.1,1.9,0.6c0.9,0.5,1.8,1,2.8,1.6c1,0.6,1.9,1.2,2.8,1.7c0.9,0.5,1.6,0.8,2.1,0.8c0.3,0,0.5-0.1,0.6-0.3
			c0.1-0.2,0.1-0.8,0.2-1.8c0-1,0.1-2.1,0.1-3.4c0-1.2,0-2.4,0-3.5c0-1.1,0-1.9,0-2.3c0-0.7,0.3-1.1,0.9-1.1c0.6,0,1.4,0.1,2.3,0.2
			c0.9,0.1,1.9,0.2,2.8,0.4c1,0.2,1.9,0.3,2.9,0.5c0.9,0.2,1.7,0.3,2.3,0.5c0.2,0.1,0.4,0.1,0.6,0.2c0.2,0,0.3,0.2,0.3,0.5
			c-0.2,0.3-0.9,1-2,1.9c-1.1,0.9-2.3,1.9-3.5,2.9c-1.2,1.1-2.2,2-3.1,2.9c-0.9,0.9-1.3,1.5-1.1,1.9c0.2,0.5,0.6,0.7,1.3,0.8
			c0.7,0,1.2,0.1,1.6,0.1c1,0,1.9-0.3,2.7-0.8c0.8-0.5,1.5-1.1,2.1-1.7c0.6-0.6,1.1-1.2,1.6-1.7c0.4-0.5,0.8-0.8,1.1-0.8
			c0.3,0,0.9,0.4,2,1.3c1,0.8,2.2,1.8,3.6,2.8c1.3,1.1,2.7,2,4.1,2.8c1.4,0.8,2.6,1.3,3.5,1.3c1.1,0,1.9-0.8,2.4-2.4
			c0.5-1.6,0.9-3.3,1.2-5.2c0.3-1.9,0.5-3.6,0.8-5.2c0.3-1.6,0.7-2.4,1.4-2.4c0.1,0,0.7,0.3,1.8,0.8s2.2,1.1,3.5,1.7
			c1.3,0.6,2.4,1.2,3.5,1.8c1,0.6,1.6,0.9,1.8,1.1c0.1,0.1,0.1,0.2,0.2,0.3c0.1,0,0.1,0.1,0.2,0.3c-0.1,0.3-0.7,0.7-1.9,1.4
			c-1.2,0.6-2.5,1.4-3.9,2.3c-1.4,0.9-2.8,1.8-4.1,2.7c-1.3,1-2.1,1.9-2.3,2.7l0.1,0.6c0.2,0.2,0.5,0.6,0.9,1.1
			c0.4,0.5,0.8,1,1.2,1.6c0.4,0.5,0.9,1,1.3,1.4c0.4,0.4,0.7,0.6,1,0.6c0.7,0,1.2-0.2,1.6-0.7c0.4-0.4,0.7-1,0.9-1.6
			c0.2-0.6,0.4-1.3,0.6-1.9c0.2-0.7,0.4-1.2,0.8-1.6l0.4-0.2c0.3,0.1,0.9,0.3,1.8,0.8c0.9,0.5,2,1,3,1.6c1.1,0.6,2.1,1.2,3.2,1.8
			c1,0.6,1.7,1,2.1,1.2l0.3,0.5c0,0.1-0.1,0.2-0.2,0.3c-0.1,0.1-0.2,0.2-0.4,0.3c-1.9,1.6-3.8,3.3-5.7,5.1c-2.3,2.2-4.6,4.3-6.9,6.4
			c-2.3,2.1-4.5,4.3-6.6,6.7c0,0.1,0,0.2-0.1,0.4c-0.1,0.2-0.1,0.3-0.1,0.4c0,0.6,0.4,0.9,1.1,0.9c0.7,0,1.2,0,1.6,0
			c0.3,0,0.7,0,1.4,0s1.4-0.1,2.2-0.2c0.8-0.1,1.5-0.1,2.1-0.2c0.6-0.1,1-0.1,1.2-0.2c0.5-0.3,0.7-0.7,0.6-1.3
			c-0.1-0.6-0.3-1.2-0.5-1.9s-0.3-1.2-0.4-1.8c0-0.5,0.3-0.8,1-0.8c1.2,0,2.4,0.3,3.8,1c1.4,0.7,2.6,1.5,3.8,2.5s2.1,2.2,2.9,3.4
			c0.8,1.3,1.2,2.5,1.2,3.7c0,1.6-0.5,2.9-1.6,4.2c-1.1,1.2-2.4,1.8-4.1,1.8c-1.5,0-2.7-0.4-3.6-1.3c-0.9-0.9-1.3-2.1-1.3-3.6
			c0-0.1,0-0.4,0-0.9c0-0.4,0-0.9,0-1.4c0-0.5,0-0.9-0.1-1.3c-0.1-0.4-0.2-0.6-0.4-0.6h-0.9c-0.7,0.3-1.6,0.9-2.9,2
			c-1.2,1.1-2.5,2.2-3.8,3.5c-1.3,1.2-2.5,2.3-3.5,3.3c-1,1-1.7,1.5-1.9,1.5c-0.2,0-0.4-0.1-0.6-0.3c-0.2-0.2-0.4-0.3-0.5-0.5
			c-0.5-1.6-1.3-3-2.2-4.3c-0.9-1.3-1.7-2.7-2.4-4.2l0.1-0.6c0.3-0.4,0.6-0.7,1-0.8c0.4-0.1,0.8-0.2,1.3-0.3c0.5-0.1,1-0.2,1.5-0.4
			c0.5-0.2,1-0.5,1.4-1.1c0.1-0.2,0.5-0.9,1.1-2c0.6-1.1,1.2-2.3,1.8-3.6c0.6-1.3,1.2-2.5,1.7-3.6c0.5-1.1,0.8-1.7,0.8-1.8
			c0-0.4,0-0.7-0.1-0.9c0-0.2-0.3-0.3-0.7-0.5c-0.9-0.3-1.7-0.5-2.6-0.6c-0.8,0-1.7-0.3-2.6-0.7c-1.1-0.5-1.8-1.3-2.1-2.4
			c-0.2-1-0.4-2.1-0.5-3.2c-0.1-1.1-0.3-2.1-0.6-3c-0.3-0.9-1.1-1.6-2.3-2c-0.3,0.1-0.7,0.3-1.2,0.6c-0.4,0.3-0.7,0.7-0.7,1.1v29.2
			c0,0.4-0.4,0.7-1.3,1c-0.9,0.3-1.8,0.5-2.9,0.7c-1.1,0.2-2.1,0.3-3.2,0.3c-1,0-1.7,0.1-2,0.1l-0.6-0.3c-0.1-0.4-0.2-0.9-0.5-1.5
			c-0.2-0.6-0.6-0.9-1.2-0.9h-6.8c-0.3,0-0.7,0.3-1.3,0.8c-0.6,0.5-1.3,1.1-2.2,1.7c-0.9,0.6-1.8,1.2-2.9,1.7s-2.1,0.8-3.2,0.8
			c-0.7,0-1.2-0.1-1.5-0.2c-0.3-0.1-0.5-0.3-0.7-0.5c-0.1-0.2-0.3-0.4-0.4-0.5c-0.1-0.1-0.4-0.2-0.7-0.2c-0.3,0-0.6,0.1-1,0.4
			c-0.4,0.3-0.8,0.6-1.3,0.9c-0.5,0.4-1,0.7-1.5,0.9c-0.5,0.3-1,0.4-1.6,0.4c-0.2,0-0.5-0.1-1-0.2c-0.4-0.1-0.9-0.3-1.3-0.5
			c-0.4-0.2-0.8-0.4-1.2-0.7c-0.4-0.2-0.6-0.5-0.6-0.7c0-0.3,0-0.8,0.1-1.6c0-0.8,0-1.5,0-2.3c0-0.7-0.2-1.4-0.4-2s-0.5-0.9-1-0.9
			c-0.4,0-1.3,0.5-2.6,1.6c-1.3,1.1-2.7,2.2-4.3,3.6c-1.5,1.3-3,2.6-4.4,3.7c-1.4,1.2-2.4,1.8-3,2L413.5,386.8z M436.3,394.9
			l0.1,0.2l-0.1,0.2c-1.6,0.3-3.2,0.5-4.8,0.6c-1.6,0-3.2,0.1-4.8,0.2c-2.8,0.1-5.7,0.2-8.5,0.2s-5.7,0-8.5,0
			c-0.7,0-1.1-0.3-0.9-0.8c0.1-0.5,0.4-0.8,0.8-0.8h26L436.3,394.9z M464.8,386.5c-0.3,0.5-0.7,0.8-1.2,1c-0.4,0.2-0.8,0.4-1.2,0.8
			c-0.2,0.2-0.3,0.5-0.4,1c-0.1,0.4-0.1,0.9-0.1,1.4c0,0.5,0,1,0.1,1.5c0,0.5,0.1,0.9,0.1,1.2c0,0.3-0.1,0.6-0.2,0.7
			c-0.2,0.1-0.4,0.2-0.6,0.3c-0.2,0.1-0.4,0.3-0.6,0.5c-0.2,0.2-0.2,0.6-0.2,1.1c0,3.4,0.2,6.7,0.7,10c0.5,3.3,0.7,6.6,0.7,10
			c0,0.4,0,1.1,0,1.9s0,1.8,0,2.7c0,0.9,0,1.8-0.1,2.6c-0.1,0.8-0.1,1.3-0.2,1.5c-0.3,0.7-1,1.2-1.9,1.6c-0.9,0.4-1.9,0.6-3,0.8
			c-1.1,0.2-2.2,0.3-3.3,0.3c-1.1,0-2,0.1-2.6,0.1c-0.4,0-0.9,0-1.5,0c-0.6,0-0.9-0.3-0.9-1v-19.5c0-0.6-0.3-0.8-1-0.7
			c-0.3,0.1-0.7,0.3-1.2,0.7c-0.5,0.4-1.1,0.8-1.6,1.3c-0.6,0.5-1.1,0.9-1.7,1.4c-0.5,0.4-1,0.8-1.3,1c-1.8,1.2-3.9,2.6-6.3,4.1
			c-2.3,1.5-4.8,2.9-7.4,4.1c-2.6,1.3-5.2,2.3-7.7,3.2c-2.6,0.8-5,1.3-7.2,1.3c-0.1,0-0.4,0-0.7-0.1c-0.3,0-0.5-0.2-0.5-0.5
			c0-0.3,0.5-0.8,1.5-1.6c1-0.8,2.1-1.6,3.3-2.5c1.2-0.9,2.4-1.7,3.6-2.5c1.2-0.8,1.9-1.3,2.3-1.7c1.8-1.6,3.5-3.5,5.2-5.7
			c1.7-2.3,3.5-4.4,5.3-6.5c1.9-2.1,3.9-3.8,6-5.3c2.1-1.5,4.6-2.2,7.3-2.2c0.5,0,1,0,1.3-0.1c0.3,0,0.6-0.4,0.7-1
			c0.1-0.3,0.1-0.8,0.1-1.6c0-0.8-0.1-1.7-0.1-2.6s0-1.7,0-2.5c0-0.7,0.1-1.2,0.3-1.3c0.3-0.3,0.8-0.5,1.3-0.5c0.5,0,1,0.1,1.5,0.1
			c0.8,0,1.8,0,3-0.1c1.2,0,2.5,0,3.8,0.1c1.3,0.1,2.6,0.2,3.7,0.3c1.2,0.1,2.1,0.4,2.7,0.7L464.8,386.5z M450.3,375.9
			c0,0.7,0.3,1,1,1h7.5c0.7,0,1-0.3,1-1v-28.5c0-0.7-0.3-1-1-1h-7.5c-0.7,0-1,0.3-1,1V375.9z M456.4,361.4c0.1,0,0.3,0,0.6,0.1
			c0.2,0.1,0.4,0.2,0.4,0.3c0,0.1-0.2,0.2-0.5,0.3c-0.3,0-0.6,0.1-0.7,0.1c-0.1,0-0.4,0-0.8,0c-0.4,0-0.8,0-1.2,0
			c-0.4,0-0.8,0-1.1-0.1c-0.3-0.1-0.5-0.2-0.5-0.3c0-0.1,0.1-0.2,0.3-0.3c0.2,0,0.4-0.1,0.5-0.1H456.4z M491.7,422.8
			c-0.2,0-0.4,0-0.5-0.1c-0.8-0.3-1.7-0.7-2.5-1.2c-0.9-0.5-1.7-0.9-2.4-1.3c-1.4-0.8-3.2-2-5.5-3.6c-2.3-1.6-4.7-3.3-7-5.2
			c-2.3-1.9-4.3-3.8-6-5.8c-1.7-2-2.5-3.8-2.5-5.5c0-0.7,0.2-1,0.7-1c0.5,0,1.5,0.3,3.1,0.9c1.6,0.6,3.3,1.2,5.1,2
			c1.8,0.7,3.6,1.5,5.3,2.2c1.7,0.7,3,1.2,3.9,1.4c2.8,0.7,5.6,1.2,8.5,1.4c2.9,0.2,5.6,0.9,8.3,2c0.1,0.1,0.3,0.2,0.5,0.3
			c0.2,0.1,0.3,0.3,0.3,0.5s-0.2,0.5-0.5,0.8c-1.1,1.2-2.2,2.3-3.2,3.5c-1.1,1.2-1.9,2.5-2.7,3.8c-0.3,0.7-0.6,1.4-0.9,2.1
			c-0.3,0.7-0.6,1.5-1,2.1C492.5,422.4,492.1,422.6,491.7,422.8z M501.8,394.9c0,0.3-0.2,0.6-0.7,0.7c-0.5,0.1-1,0.2-1.6,0.3
			c-0.6,0.1-1.2,0.1-1.8,0.1c-0.6,0-1,0-1.2,0c-0.4,0-1.4,0-3,0c-1.6,0-3.5,0-5.6,0.1c-2.2,0-4.5,0-7,0c-2.5,0-4.8-0.1-7-0.2
			c-2.2-0.1-4-0.2-5.6-0.3c-1.6-0.1-2.5-0.3-2.8-0.5c0.1-0.1,0.3-0.3,0.6-0.4c0.2-0.1,0.5-0.2,0.7-0.2h14.6c0.9,0,1.9-0.5,2.7-1.4
			c0.9-0.9,1.7-2,2.4-3.1c0.7-1.1,1.4-2.2,1.9-3.1c0.5-0.9,1-1.4,1.3-1.4c0.3,0,1,0.4,2.1,1.3c1.2,0.8,2.4,1.8,3.7,2.9
			c1.3,1.1,2.6,2.1,3.8,3.2C500.6,393.9,501.4,394.6,501.8,394.9z"/>
	</g>
	<g>
		<g>
			<path class="st0" d="M26.9,80.8c0.8-0.2,1.4-0.4,1.7-0.7c0.4-0.3,0.6-0.9,0.8-1.9l3-15.3c0.1-0.4,0.1-0.8,0.2-1.1
				c0-0.3,0-0.5,0-0.8c0-0.6-0.2-0.9-0.6-1c-0.3-0.1-1-0.2-2-0.2l-0.1-0.9l10-0.8L40,59c-0.8,0.2-1.4,0.4-1.7,0.7
				c-0.3,0.3-0.6,0.9-0.8,1.9l-3,15.3l-0.2,1.2c0,0.1,0,0.2,0,0.3c0,0.1,0,0.2,0,0.3c0,0.6,0.2,0.9,0.5,1c0.3,0.1,1,0.2,2,0.2
				l0.1,0.9l-10,0.8L26.9,80.8z"/>
			<path class="st0" d="M41.5,80.5l2.1-10.9c0.1-0.4,0.1-0.8,0.2-1c0.1-0.5,0.1-0.8,0.1-1c0-0.4-0.2-0.6-0.4-0.7
				c-0.3-0.1-0.7-0.1-1.5-0.1l-0.1-0.9c1.4-0.2,2.5-0.4,3.2-0.5c0.8-0.2,1.9-0.5,3.4-0.9L47,70.8l0.1,0c-0.1,0.1,0.2-0.5,0.9-1.6
				c0.6-1.1,1.2-2,1.8-2.7c0.6-0.7,1.2-1.3,1.9-1.7c0.7-0.5,1.4-0.7,2.1-0.8c0.7-0.1,1.3,0.1,1.9,0.5c0.5,0.4,0.8,1,0.9,1.9
				c0.1,0.9-0.3,2.8-1,5.7c-0.8,3-1.1,4.6-1.1,4.8c0,0.2,0.1,0.3,0.2,0.4c0.1,0.1,0.3,0.1,0.4,0.1c0.3,0,0.7-0.4,1.2-1.2
				c0.3-0.4,0.6-0.9,0.9-1.5l0.8,0.4c-0.7,1.4-1.3,2.4-1.9,3.1c-0.9,1.1-1.9,1.7-3,1.8c-0.6,0-1.1-0.1-1.6-0.4
				c-0.5-0.3-0.8-0.8-0.8-1.6c0-0.5,0-1.2,0.2-2.1c0.2-0.9,0.3-1.9,0.6-2.9l1.1-5.1c0-0.1,0-0.2,0.1-0.3c0-0.1,0-0.2,0-0.3
				c0-0.2-0.1-0.4-0.3-0.5c-0.2-0.1-0.4-0.1-0.6-0.1c-0.7,0.1-1.4,0.6-2.1,1.8c-0.8,1.1-1.4,2.2-1.8,3.3c-0.5,1.2-0.9,2.4-1.2,3.6
				s-0.6,2.8-1,4.8L41.5,80.5z"/>
			<path class="st0" d="M69.1,63.2c0.3,0.1,0.6,0.3,0.9,0.6l1.1-5.6c0-0.1,0-0.2,0-0.3c0-0.1,0-0.2,0-0.3c0-0.4-0.2-0.7-0.4-0.8
				c-0.3-0.1-0.6-0.2-1-0.1L69,56.7l-0.1-0.9l1.4-0.2c1.1-0.2,2-0.3,2.6-0.5c0.6-0.1,1.6-0.4,2.9-0.8l-2.7,13.8
				c-0.2,1.1-0.5,2.6-0.8,4.4c-0.3,1.9-0.5,2.9-0.5,3.1c0,0.2,0.1,0.3,0.1,0.4c0.1,0.1,0.2,0.1,0.3,0.1c0.3,0,0.6-0.3,1-0.9
				c0.4-0.6,0.7-1.1,1-1.7l0.8,0.5c-0.8,1.4-1.4,2.4-1.9,3c-0.9,1.1-1.8,1.6-2.7,1.7c-0.5,0-0.9-0.1-1.3-0.3
				c-0.6-0.3-0.9-0.9-0.9-1.8c0-0.1,0-0.4,0-0.8s0.1-0.8,0.2-1.4c-0.7,1.4-1.3,2.4-1.9,3c-0.9,1.1-2,1.7-3.3,1.8
				c-1,0.1-1.8-0.2-2.6-0.9c-0.8-0.7-1.2-1.8-1.3-3.3c-0.2-2.4,0.6-4.9,2.4-7.7c1.8-2.8,3.8-4.3,5.8-4.4
				C68.1,62.9,68.7,63,69.1,63.2z M64,76.3c0.3,0.3,0.6,0.5,1.1,0.5c1.3-0.1,2.5-1.8,3.5-5c0.8-2.7,1.2-4.6,1.1-5.8
				c0-0.4-0.1-0.8-0.2-1c-0.2-0.5-0.6-0.7-1.2-0.6c-1.2,0.1-2.4,1.6-3.5,4.4c-1,2.6-1.4,4.6-1.3,6.1C63.5,75.4,63.7,75.9,64,76.3z"
				/>
			<path class="st0" d="M76.9,74.5c0-0.3,0.1-0.8,0.2-1.4l1.5-7.7c0-0.1,0-0.2,0-0.3c0-0.1,0-0.2,0-0.2c0-0.4-0.2-0.7-0.5-0.8
				s-0.8-0.1-1.6-0.1l-0.1-0.9c0.6-0.1,1.5-0.3,2.7-0.5c1.2-0.2,2-0.4,2.5-0.5l1.4-0.4l-1.9,9.7c-0.2,0.8-0.3,1.4-0.3,1.7
				c-0.1,0.8-0.2,1.4-0.2,1.6c0,0.2,0.1,0.4,0.2,0.5c0.1,0.1,0.2,0.1,0.4,0.1c0.3,0,0.7-0.3,1.2-1c0.5-0.6,0.9-1.3,1.2-1.9l0.8,0.4
				c-1,1.7-1.7,2.8-2.3,3.4c-0.9,1-1.9,1.5-2.9,1.6c-0.6,0-1.2-0.1-1.7-0.4c-0.5-0.3-0.8-0.9-0.9-1.7C76.8,75.6,76.8,75.1,76.9,74.5
				z M83.3,54.9c0.5,0.4,0.7,0.9,0.8,1.5c0,0.6-0.1,1.2-0.5,1.6c-0.4,0.5-0.9,0.7-1.5,0.8c-0.6,0-1.2-0.1-1.6-0.5
				c-0.5-0.4-0.7-0.9-0.8-1.5c0-0.6,0.1-1.2,0.5-1.6c0.4-0.5,0.9-0.7,1.5-0.8C82.3,54.3,82.9,54.5,83.3,54.9z"/>
			<path class="st0" d="M88.2,64.9c1.8-2.5,3.9-3.9,6.3-4c1-0.1,1.9,0.1,2.6,0.6c0.7,0.5,1.1,1.2,1.2,2.1c0.1,1.4-0.6,2.8-2.1,4.2
				c-1.5,1.4-3.5,2.3-6,2.9c0,0.3-0.1,0.7-0.1,1c0,0.3,0,0.5,0,0.7c0.1,0.7,0.2,1.2,0.4,1.6c0.4,0.7,1.1,1,2.1,0.9
				c0.8-0.1,1.6-0.5,2.3-1.4c0.4-0.5,0.8-1.1,1.2-1.9l1,0.5c-0.7,1.5-1.4,2.6-2.1,3.3c-1.1,1.1-2.4,1.8-4,1.9
				c-1.2,0.1-2.3-0.3-3.4-1c-1.1-0.8-1.7-2-1.9-3.8C85.7,69.8,86.5,67.3,88.2,64.9z M95,62.4c-0.2-0.3-0.4-0.4-0.8-0.3
				c-0.8,0.1-1.5,0.8-2.2,2.1c-0.7,1.3-1.2,3.1-1.6,5.5c1.9-0.6,3.2-1.5,3.9-2.8c0.7-1.3,1-2.4,1-3.4C95.3,62.9,95.2,62.6,95,62.4z"
				/>
			<path class="st0" d="M107.6,74.5c0.8-0.2,1.4-0.4,1.7-0.7c0.4-0.3,0.6-0.9,0.8-1.9l3-15.3c0.1-0.3,0.1-0.7,0.2-1
				c0-0.3,0.1-0.6,0-0.8c0-0.6-0.3-1-0.7-1.1c-0.3-0.1-0.9-0.1-1.8-0.1l-0.1-0.9l9.6-0.7c1.6-0.1,3,0,4.1,0.3
				c2.1,0.7,3.3,2.1,3.4,4.3c0.2,2-0.6,3.7-2.1,5c-1.6,1.3-3.7,2.1-6.3,2.3c-0.4,0-0.7,0.1-1,0.1s-0.9,0-2,0l-1.3,6.8l-0.2,1.2
				c0,0.1,0,0.2,0,0.3c0,0.1,0,0.2,0,0.3c0,0.6,0.2,0.9,0.5,1c0.3,0.1,1,0.2,2,0.2l0.1,0.9l-9.9,0.8L107.6,74.5z M116.7,62.8
				c0.2,0,0.5,0,0.6,0c0.2,0,0.4,0,0.5,0c1.1-0.1,2-0.3,2.6-0.6c0.6-0.3,1.1-0.8,1.5-1.5c0.4-0.6,0.6-1.4,0.8-2.4
				c0.2-0.9,0.2-1.7,0.2-2.3c-0.1-0.9-0.4-1.7-0.8-2.2c-0.5-0.6-1.3-0.8-2.3-0.7c-0.5,0-0.9,0.2-1,0.4c-0.2,0.2-0.3,0.6-0.4,1.2
				L116.7,62.8z"/>
			<path class="st0" d="M141.4,58.1c1.6,0.8,2.5,2.2,2.7,4.4c0.2,2.4-0.5,4.8-2.2,7.1c-1.8,2.6-3.9,4-6.5,4.2
				c-1.3,0.1-2.6-0.2-3.8-0.9c-1.2-0.7-1.9-2-2.1-4c-0.2-2.4,0.5-4.8,2.2-7.1c1.8-2.6,4-4,6.5-4.2C139.4,57.4,140.4,57.6,141.4,58.1
				z M134,71.9c0.3,0.6,0.9,0.9,1.6,0.8c1.4-0.1,2.5-1.8,3.4-5.1c0.7-2.8,1-5.1,0.8-7.1c0-0.5-0.1-0.9-0.3-1.2
				c-0.3-0.5-0.8-0.8-1.5-0.7c-1.6,0.1-2.8,1.9-3.6,5.4c-0.6,2.6-0.9,4.8-0.8,6.5C133.8,71.1,133.9,71.5,134,71.9z"/>
			<path class="st0" d="M143.5,78.7c0.8-0.1,1.3-0.3,1.6-0.5c0.3-0.2,0.5-0.8,0.7-1.8l2.9-14.9c0-0.2,0.1-0.6,0.2-1.1
				c0.1-0.5,0.1-0.8,0.1-1c0-0.4-0.2-0.7-0.5-0.8c-0.3-0.1-0.8-0.1-1.4-0.1l-0.1-0.9l1.6-0.3c0.4-0.1,1-0.2,1.9-0.4
				c0.9-0.2,1.8-0.4,2.7-0.7l-0.8,3.5l0.1,0.1c0.7-1,1.3-1.8,1.8-2.3c1-0.9,2-1.5,3.1-1.5c1-0.1,1.9,0.2,2.7,0.8
				c0.7,0.6,1.2,1.7,1.3,3.1c0.2,2.7-0.6,5.4-2.3,8.1c-1.8,2.7-3.7,4.2-5.9,4.3c-0.5,0-0.9,0-1.2-0.1s-0.7-0.3-1.3-0.5l-0.4,2.3
				c-0.1,0.7-0.2,1.3-0.3,1.9c-0.1,0.6-0.1,1-0.1,1.2c0,0.4,0.2,0.7,0.5,0.8c0.3,0.1,0.9,0.1,1.8,0.1l0.1,0.9l-8.4,0.6L143.5,78.7z
				 M151.2,71c0.3,0.2,0.6,0.3,1.1,0.3c1.4-0.1,2.5-1.7,3.6-4.7c0.9-2.6,1.2-4.6,1.1-6.2c0-0.5-0.1-0.9-0.3-1.1
				c-0.2-0.5-0.6-0.7-1.2-0.7c-0.6,0-1.2,0.4-1.8,1.1s-1.1,1.6-1.5,2.9c-0.3,1-0.6,2.4-1,4.2s-0.5,2.9-0.5,3.3
				C150.8,70.4,150.9,70.8,151.2,71z"/>
			<path class="st0" d="M169.8,69.7c0.9-0.2,1.4-0.5,1.8-1.1c0.3-0.6,0.7-2,1.2-4.3l2.4-12.7c0.1-0.4,0.2-0.8,0.2-1.1
				c0-0.3,0.1-0.6,0-0.8c0-0.5-0.2-0.8-0.6-0.9c-0.3-0.1-1-0.1-1.9-0.1l-0.1-0.9l7.7-0.6l3.1,15.6l9-16.6l7.1-0.6l0.1,0.9
				c-0.8,0.2-1.3,0.4-1.6,0.6c-0.5,0.4-0.8,1-1,2l-3,15.4c-0.1,0.3-0.1,0.7-0.2,1c0,0.3-0.1,0.6,0,0.9c0,0.6,0.2,0.9,0.6,1
				c0.3,0.1,1,0.2,2,0.2l0.1,0.9l-10.5,0.8l-0.1-0.9c1.1-0.2,1.9-0.4,2.3-0.7c0.4-0.3,0.7-0.9,0.9-1.9l3-15.7l-11.1,20.1l-0.9,0.1
				l-3.7-18.4l-2.4,12.4c-0.1,0.6-0.2,1.2-0.3,1.6c-0.1,0.7-0.1,1.2-0.1,1.6c0.1,0.8,0.4,1.3,1.1,1.5c0.4,0.1,1,0.2,1.8,0.2l0.1,0.9
				l-7,0.5L169.8,69.7z"/>
			<path class="st0" d="M202.2,64.6c0.1-0.5,0.1-1,0.2-1.4l1.2-6.5c0.1-0.3,0.1-0.5,0.1-0.7c0-0.2,0-0.4,0-0.6
				c0-0.4-0.2-0.7-0.5-0.8c-0.3-0.1-0.8-0.2-1.5-0.1l-0.1-0.9c2.3-0.4,4-0.7,5.1-1c1.1-0.3,1.7-0.4,1.8-0.4l-1.1,5.2l-1.2,5.3
				c-0.1,0.2-0.1,0.6-0.2,1c-0.1,0.6-0.1,1-0.1,1.3c0,0.3,0.1,0.5,0.3,0.6c0.1,0.1,0.3,0.2,0.6,0.2c0.5,0,1.2-0.6,2-1.7
				c0.8-1.1,1.5-2.6,2.1-4.3c0.4-1.2,0.7-2.3,1-3.5c0.2-0.8,0.5-2.1,0.8-3.9l4-0.3l-0.9,4.7c0,0.2-0.2,1-0.5,2.5s-0.5,2.4-0.5,2.7
				c-0.1,0.6-0.2,1.1-0.3,1.6c-0.1,0.5-0.1,0.9-0.1,1c0,0.2,0.1,0.4,0.2,0.5c0.1,0.1,0.2,0.2,0.4,0.1c0.3,0,0.8-0.4,1.3-1.3
				c0.3-0.5,0.6-0.9,0.8-1.4l0.7,0.4c-0.6,1.3-1.3,2.4-2.2,3.3c-0.9,0.9-1.9,1.4-2.9,1.5c-0.9,0.1-1.6-0.1-2-0.6
				c-0.3-0.3-0.4-0.8-0.5-1.3c0-0.5,0-1,0-1.4c0.1-0.4,0.2-1.1,0.4-2.1l-0.1,0c-1.2,2.1-2.1,3.5-2.7,4.2c-1,1.2-2.1,1.8-3.2,1.9
				c-0.6,0-1.1-0.1-1.5-0.3c-0.7-0.4-1.2-1.1-1.2-2.2C202.1,65.5,202.1,65.1,202.2,64.6z"/>
			<path class="st0" d="M220.2,61.6l0.9,0c0.3,1.6,0.8,2.8,1.5,3.4c0.7,0.6,1.4,0.9,2.1,0.8c0.6,0,1-0.3,1.3-0.6
				c0.3-0.4,0.4-0.8,0.4-1.3c0-0.4-0.2-0.9-0.6-1.4c-0.3-0.5-0.7-1-1.2-1.5l-1.4-1.5c-0.6-0.5-1.1-1.2-1.5-1.9
				c-0.4-0.8-0.7-1.5-0.8-2.3c-0.1-1.1,0.3-2.1,1-3c0.8-0.9,1.9-1.4,3.3-1.5c0.6,0,1.2,0,1.9,0.2c0.7,0.2,1.1,0.3,1.3,0.3
				c0.3,0,0.5-0.1,0.6-0.2c0.1-0.1,0.2-0.3,0.3-0.6l1-0.1l-0.4,5.2l-0.9,0c-0.3-1.4-0.8-2.4-1.4-3c-0.6-0.6-1.2-0.8-1.9-0.8
				c-0.6,0-1.1,0.3-1.3,0.7c-0.3,0.4-0.4,0.8-0.3,1.3c0,0.4,0.2,0.8,0.4,1.1c0.2,0.4,0.7,0.9,1.4,1.6l1.8,2c0.4,0.4,0.8,1,1.1,1.6
				c0.3,0.6,0.5,1.3,0.6,1.9c0.1,1.4-0.3,2.5-1.2,3.4c-0.9,0.9-2.1,1.4-3.5,1.5c-0.6,0-1.2,0-1.9-0.2c-0.7-0.2-1.1-0.3-1.2-0.3
				c-0.3,0-0.5,0.1-0.6,0.3c-0.1,0.2-0.2,0.3-0.3,0.6l-0.9,0.1L220.2,61.6z"/>
			<path class="st0" d="M233.2,62.5c0-0.3,0.1-0.8,0.2-1.4l1.5-7.7c0-0.1,0-0.2,0-0.3c0-0.1,0-0.2,0-0.2c0-0.4-0.2-0.7-0.5-0.8
				c-0.3-0.1-0.8-0.1-1.6-0.1l-0.1-0.9c0.6-0.1,1.5-0.3,2.7-0.5c1.2-0.2,2-0.4,2.5-0.5l1.4-0.4l-1.9,9.7c-0.2,0.8-0.3,1.4-0.3,1.7
				c-0.1,0.8-0.2,1.4-0.2,1.6c0,0.2,0.1,0.4,0.2,0.5c0.1,0.1,0.2,0.1,0.4,0.1c0.3,0,0.7-0.3,1.2-1c0.5-0.6,0.9-1.3,1.2-1.9l0.8,0.4
				c-1,1.7-1.7,2.8-2.3,3.4c-0.9,1-1.9,1.5-2.9,1.6c-0.6,0-1.2-0.1-1.7-0.4c-0.5-0.3-0.8-0.9-0.9-1.7
				C233,63.5,233.1,63.1,233.2,62.5z M239.6,42.8c0.5,0.4,0.7,0.9,0.8,1.5c0,0.6-0.1,1.2-0.5,1.6c-0.4,0.5-0.9,0.7-1.5,0.8
				c-0.6,0-1.2-0.1-1.6-0.5c-0.5-0.4-0.7-0.9-0.8-1.5c0-0.6,0.1-1.2,0.5-1.6c0.4-0.5,0.9-0.7,1.5-0.8
				C238.5,42.3,239.1,42.4,239.6,42.8z"/>
			<path class="st0" d="M244.5,52.8c1.8-2.5,3.9-3.8,6.3-4c1.3-0.1,2.2,0.1,2.9,0.7c0.7,0.6,1.1,1.2,1.1,2c0.1,0.7-0.1,1.3-0.5,1.8
				c-0.4,0.5-0.9,0.7-1.5,0.7c-0.4,0-0.9-0.1-1.3-0.4c-0.4-0.3-0.7-0.7-0.7-1.3c0-0.2,0-0.4,0-0.6c0-0.1,0.1-0.3,0.3-0.6l0.1-0.3
				c0.1-0.1,0.1-0.2,0.1-0.3c0-0.1,0-0.1,0-0.2c0-0.2-0.1-0.3-0.3-0.4c-0.2-0.1-0.4-0.1-0.6-0.1c-1.2,0.1-2.2,1.4-3.1,4
				c-0.8,2.3-1.1,4.2-1,5.9c0.1,0.7,0.2,1.4,0.6,1.9c0.5,0.8,1.2,1.2,2.2,1.1c0.7-0.1,1.4-0.4,2-1c0.6-0.6,1.2-1.4,1.8-2.4l1,0.5
				c-1,1.6-1.8,2.7-2.4,3.3c-1.1,1.1-2.5,1.7-4,1.8c-1.2,0.1-2.4-0.2-3.5-1c-1.1-0.8-1.7-2-1.9-3.8
				C241.9,57.7,242.7,55.2,244.5,52.8z"/>
			<path d="M281.5,39.4c1.2,0.2,1.8,0.4,2,0.4c0.3,0,0.6-0.1,0.8-0.3c0.2-0.2,0.3-0.5,0.5-0.8l1-0.1l-1.1,7.5l-1,0
				c-0.1-1.4-0.4-2.5-0.8-3.4c-0.9-1.7-2.3-2.4-4.3-2.3c-2.7,0.2-4.9,2.1-6.6,5.7c-1.4,3.2-2,6.3-1.8,9.5c0.2,2.7,1.1,4.6,2.7,5.5
				c0.9,0.5,1.9,0.7,3.1,0.6c1.1-0.1,1.9-0.3,2.5-0.7c0.6-0.4,0.9-0.9,1.1-1.6c0,0.1,0.2-0.8,0.6-2.7c0.4-1.9,0.5-3.1,0.5-3.6
				c0-0.6-0.2-0.9-0.5-1s-1-0.2-2-0.2l-0.1-0.9l9.6-0.7l0.1,0.9c-0.9,0.2-1.5,0.4-1.7,0.7c-0.2,0.3-0.5,1-0.7,2.3l-1.2,6.2l-0.9,0.5
				c-0.7,0.4-1.8,0.8-3.2,1.3c-1.4,0.5-2.8,0.8-4.4,0.9c-2.8,0.2-5.2-0.4-7.2-1.7c-2.2-1.5-3.4-3.7-3.6-6.5c-0.3-3.6,0.7-7,2.9-10.1
				c2.5-3.4,5.8-5.2,10-5.6C279.1,39.1,280.3,39.2,281.5,39.4z"/>
			<path d="M290.5,57.8c0.1-0.5,0.1-1,0.2-1.4l1.2-6.5c0.1-0.3,0.1-0.5,0.1-0.8c0-0.2,0-0.4,0-0.6c0-0.4-0.2-0.7-0.5-0.8
				c-0.3-0.1-0.8-0.2-1.5-0.1l-0.1-0.9c2.3-0.4,4-0.7,5.1-1c1.1-0.3,1.7-0.4,1.8-0.4l-1.1,5.2l-1.2,5.3c-0.1,0.2-0.1,0.6-0.2,1
				c-0.1,0.6-0.1,1-0.1,1.3c0,0.3,0.1,0.5,0.3,0.6c0.1,0.1,0.3,0.2,0.6,0.2c0.5,0,1.2-0.6,2-1.7c0.8-1.1,1.5-2.6,2.1-4.3
				c0.4-1.2,0.7-2.3,1-3.5c0.2-0.8,0.5-2.1,0.8-3.9l4-0.3l-0.9,4.7c0,0.2-0.2,1-0.5,2.5c-0.3,1.5-0.5,2.4-0.5,2.7
				c-0.1,0.6-0.2,1.1-0.3,1.6c-0.1,0.5-0.1,0.9-0.1,1c0,0.2,0.1,0.4,0.2,0.5c0.1,0.1,0.2,0.2,0.4,0.1c0.3,0,0.8-0.4,1.3-1.3
				c0.3-0.5,0.6-0.9,0.8-1.4l0.7,0.4c-0.6,1.3-1.3,2.4-2.2,3.3c-0.9,0.9-1.9,1.4-2.9,1.5c-0.9,0.1-1.6-0.1-2-0.6
				c-0.3-0.3-0.4-0.8-0.5-1.3c0-0.5,0-1,0-1.4c0.1-0.4,0.2-1.1,0.4-2.1l-0.1,0c-1.2,2.1-2.1,3.5-2.7,4.2c-1,1.2-2.1,1.8-3.2,1.9
				c-0.6,0-1.1-0.1-1.5-0.3c-0.7-0.4-1.2-1.1-1.2-2.2C290.5,58.7,290.5,58.3,290.5,57.8z"/>
			<path d="M308.5,56.6c0-0.3,0.1-0.8,0.2-1.4l1.5-7.7c0-0.1,0-0.2,0-0.3c0-0.1,0-0.2,0-0.2c0-0.4-0.2-0.7-0.5-0.8
				c-0.3-0.1-0.8-0.1-1.6-0.1l-0.1-0.9c0.6-0.1,1.5-0.3,2.7-0.5c1.2-0.2,2-0.4,2.5-0.5l1.4-0.4l-1.9,9.7c-0.2,0.8-0.3,1.4-0.3,1.7
				c-0.1,0.8-0.2,1.4-0.2,1.6c0,0.2,0.1,0.4,0.2,0.5c0.1,0.1,0.2,0.1,0.4,0.1c0.3,0,0.7-0.3,1.2-1c0.5-0.6,0.9-1.3,1.2-1.9l0.8,0.4
				c-1,1.7-1.7,2.8-2.3,3.4c-0.9,1-1.9,1.5-2.9,1.6c-0.6,0-1.2-0.1-1.7-0.4c-0.5-0.3-0.8-0.9-0.9-1.7
				C308.4,57.7,308.4,57.2,308.5,56.6z M314.9,37c0.5,0.4,0.7,0.9,0.8,1.5c0,0.6-0.1,1.2-0.5,1.6c-0.4,0.5-0.9,0.7-1.5,0.8
				c-0.6,0-1.2-0.1-1.6-0.5c-0.5-0.4-0.7-0.9-0.8-1.5c0-0.6,0.1-1.2,0.5-1.6c0.4-0.5,0.9-0.7,1.5-0.8
				C313.9,36.4,314.4,36.6,314.9,37z"/>
			<path d="M326.7,43.3c0.3,0.1,0.6,0.3,0.9,0.6l1.1-5.6c0-0.1,0-0.2,0-0.3c0-0.1,0-0.2,0-0.3c0-0.4-0.2-0.7-0.4-0.8
				c-0.3-0.1-0.6-0.2-1-0.1l-0.7,0.1l-0.1-0.9l1.4-0.2c1.1-0.2,2-0.3,2.6-0.5c0.6-0.1,1.6-0.4,2.9-0.8l-2.7,13.8
				c-0.2,1.1-0.5,2.6-0.8,4.4c-0.3,1.9-0.5,2.9-0.5,3.1c0,0.2,0.1,0.3,0.2,0.4c0.1,0.1,0.2,0.1,0.3,0.1c0.3,0,0.6-0.3,1-0.9
				s0.7-1.1,1-1.7l0.8,0.5c-0.8,1.4-1.4,2.4-1.9,3c-0.9,1.1-1.8,1.6-2.7,1.7c-0.5,0-0.9-0.1-1.3-0.3c-0.6-0.3-0.9-0.9-0.9-1.8
				c0-0.1,0-0.4,0-0.8c0-0.4,0.1-0.8,0.2-1.4c-0.7,1.4-1.3,2.4-1.9,3c-0.9,1.1-2,1.7-3.3,1.8c-1,0.1-1.8-0.2-2.6-0.9
				c-0.8-0.7-1.2-1.8-1.3-3.3c-0.2-2.4,0.6-4.9,2.4-7.7c1.8-2.8,3.8-4.3,5.8-4.4C325.7,43,326.3,43.1,326.7,43.3z M321.6,56.3
				c0.3,0.3,0.6,0.5,1.1,0.5c1.3-0.1,2.5-1.8,3.5-5c0.8-2.7,1.2-4.6,1.1-5.8c0-0.4-0.1-0.8-0.2-1c-0.2-0.5-0.6-0.7-1.2-0.6
				c-1.2,0.1-2.4,1.6-3.5,4.4c-1,2.6-1.4,4.6-1.3,6.1C321.1,55.5,321.3,56,321.6,56.3z"/>
			<path d="M336.5,45.7c1.8-2.5,3.9-3.9,6.3-4c1-0.1,1.9,0.1,2.6,0.6c0.7,0.5,1.1,1.2,1.2,2.1c0.1,1.4-0.6,2.8-2.1,4.2
				c-1.5,1.4-3.5,2.3-6,2.9c0,0.3-0.1,0.7-0.1,1c0,0.3,0,0.5,0,0.7c0.1,0.7,0.2,1.2,0.4,1.6c0.4,0.7,1.1,1,2.1,0.9
				c0.8-0.1,1.6-0.5,2.3-1.4c0.4-0.5,0.8-1.1,1.2-1.9l1,0.5c-0.7,1.5-1.4,2.6-2.1,3.3c-1.1,1.1-2.4,1.8-4,1.9
				c-1.2,0.1-2.3-0.3-3.4-1c-1.1-0.8-1.7-2-1.9-3.8C334,50.6,334.7,48.1,336.5,45.7z M343.3,43.2c-0.2-0.3-0.4-0.4-0.8-0.3
				c-0.8,0.1-1.5,0.8-2.2,2.1c-0.7,1.3-1.2,3.1-1.6,5.5c1.9-0.6,3.2-1.5,3.9-2.8c0.7-1.3,1-2.4,1-3.4
				C343.6,43.7,343.5,43.4,343.3,43.2z"/>
			<path d="M369.2,40.5c1.6,0.8,2.5,2.2,2.7,4.4c0.2,2.4-0.5,4.8-2.2,7.1c-1.8,2.6-3.9,4-6.5,4.2c-1.3,0.1-2.6-0.2-3.8-0.9
				c-1.2-0.7-1.9-2-2.1-4c-0.2-2.4,0.5-4.8,2.2-7.1c1.8-2.6,4-4,6.5-4.2C367.2,39.8,368.3,40,369.2,40.5z M361.9,54.2
				c0.3,0.6,0.9,0.9,1.6,0.8c1.4-0.1,2.5-1.8,3.4-5.1c0.7-2.8,1-5.1,0.8-7.1c0-0.5-0.1-0.9-0.3-1.2c-0.3-0.5-0.8-0.8-1.5-0.7
				c-1.6,0.1-2.8,1.9-3.6,5.4c-0.6,2.6-0.9,4.8-0.8,6.5C361.6,53.5,361.7,53.9,361.9,54.2z"/>
			<path d="M370,61.3c-0.6-0.5-1-1.1-1-1.8c0-0.5,0.1-1,0.4-1.3c0.3-0.4,0.7-0.5,1.2-0.6c0.4,0,0.8,0.1,1.2,0.4
				c0.4,0.3,0.6,0.7,0.6,1.2c0,0.3,0,0.5-0.2,0.8s-0.2,0.5-0.2,0.6c0,0.1,0.1,0.2,0.2,0.3c0.1,0.1,0.3,0.1,0.4,0.1
				c0.8-0.1,1.4-0.8,1.8-2.2c0.3-1.4,0.9-5.3,1.8-11.9l0.9-5.9l-2.5,0.2l0.2-1.4l2.5-0.2c0.1-0.8,0.5-2,1-3.5
				c0.5-1.5,1.3-2.7,2.2-3.6c1.1-1.1,2.3-1.7,3.6-1.8c1-0.1,1.9,0.1,2.5,0.5c0.7,0.4,1.1,1.1,1.1,2c0,0.5-0.1,1-0.4,1.3
				c-0.3,0.3-0.7,0.5-1.1,0.6c-0.4,0-0.8-0.1-1.2-0.4s-0.5-0.6-0.6-1.1c0-0.3,0-0.6,0.2-0.9c0.2-0.3,0.2-0.5,0.2-0.6
				c0-0.1-0.1-0.2-0.1-0.3c-0.1-0.1-0.3-0.1-0.5-0.1c-0.6,0-1.1,0.5-1.6,1.4c-0.4,0.9-0.8,2.2-1.1,3.8l-0.4,2.4l3.1-0.2l-0.2,1.4
				l-3,0.2c-1,7.9-1.9,13.2-2.8,15.7c-1.2,3.5-3.1,5.4-5.7,5.6C371.4,62,370.6,61.8,370,61.3z"/>
			<path d="M394.4,52.4c1-0.1,1.7-0.2,2.1-0.5c0.6-0.4,1-1.1,1.2-2.2l3.5-18.4c-1.7,0.1-3,0.6-4.2,1.5c-1.1,0.9-2,2.2-2.7,3.8
				l-0.9-0.2l0.8-5.8l18.4-1.4l-0.7,6.5l-0.9,0c-0.2-2.2-1-3.6-2.2-4.3c-0.7-0.4-1.6-0.6-2.9-0.5l-3.3,17.5l-0.2,1.2
				c0,0.2,0,0.3,0,0.4c0,0.1,0,0.2,0,0.3c0,0.6,0.3,0.9,0.6,1s1.1,0.2,2.3,0.2l0.1,0.9l-11.1,0.9L394.4,52.4z"/>
			<path d="M409.9,51.2c0.6-0.2,1-0.5,1.3-0.7c0.4-0.3,0.8-1,1.3-1.9L423.5,28l0.9-0.1l4.7,18.9c0.3,1.3,0.6,2,1,2.3
				c0.3,0.3,1,0.4,2.1,0.4l0.1,0.8L422,51.1l-0.1-0.8c1-0.2,1.6-0.4,2-0.6c0.4-0.3,0.5-0.8,0.5-1.5c0-0.3-0.1-0.8-0.3-1.8
				c0-0.2-0.2-1-0.5-2.4l-7.2,0.6l-1.7,3.6c-0.1,0.2-0.2,0.5-0.3,0.8c-0.1,0.3-0.1,0.5-0.1,0.8c0,0.5,0.2,0.7,0.5,0.9
				c0.3,0.1,0.9,0.2,1.8,0.2l0.1,0.8L410,52L409.9,51.2z M423.2,42.7l-1.9-8.1l-4.3,8.5L423.2,42.7z"/>
			<path d="M433.3,49.4c0.8-0.2,1.4-0.4,1.7-0.7c0.4-0.3,0.6-0.9,0.8-1.9l3-15.3c0.1-0.4,0.1-0.8,0.2-1.1c0-0.3,0-0.5,0-0.8
				c0-0.6-0.2-0.9-0.6-1c-0.3-0.1-1-0.2-2-0.2l-0.1-0.9l10-0.8l0.1,0.9c-0.8,0.2-1.4,0.4-1.7,0.7s-0.6,0.9-0.8,1.9l-3,15.3l-0.2,1.2
				c0,0.1,0,0.2,0,0.3c0,0.1,0,0.2,0,0.3c0,0.6,0.2,0.9,0.5,1s1,0.2,2,0.2l0.1,0.9l-10,0.8L433.3,49.4z"/>
			<path d="M456.3,25.9l0.1,0.9c-0.6,0.1-1,0.2-1.3,0.3c-0.5,0.3-0.7,0.8-0.6,1.6c0,0.1,0,0.1,0,0.2c0,0.1,0,0.2,0,0.3l2.2,11.6
				L461,30c0-0.1,0-0.2,0-0.3c-0.1-1.4-0.4-2.2-0.9-2.7c-0.3-0.3-0.9-0.4-1.7-0.4l-0.1-0.8l9-0.7l0.1,0.8c-0.8,0.1-1.3,0.3-1.6,0.5
				c-0.3,0.2-0.4,0.7-0.4,1.5c0,0.2,0,0.4,0.1,0.6c0.1,0.5,0.2,1,0.3,1.7l1.9,9.7l4.4-11.3c0.1-0.3,0.2-0.6,0.3-0.9
				c0.1-0.3,0.1-0.6,0.1-0.9c0-0.6-0.3-0.9-0.6-1c-0.4-0.1-0.9-0.2-1.6-0.1l-0.1-0.8l6.2-0.5l0.1,0.8c-0.5,0.1-0.9,0.3-1.2,0.5
				c-0.5,0.4-1,1.1-1.4,2.2l-8,20.5l-1,0.1l-3.3-16.1L455,49.2l-1,0.1l-4.1-19.2c-0.2-1.1-0.5-1.9-0.8-2.1c-0.3-0.3-1-0.4-2-0.5
				l-0.1-0.8L456.3,25.9z"/>
			<path d="M472.6,46.4c0.6-0.2,1-0.5,1.3-0.7c0.4-0.3,0.9-1,1.3-1.9l10.9-20.6l0.9-0.1l4.7,18.9c0.3,1.3,0.6,2,1,2.3s1,0.4,2.1,0.4
				l0.1,0.8l-10.2,0.8l-0.1-0.8c1-0.2,1.6-0.4,2-0.6c0.4-0.3,0.5-0.8,0.5-1.5c0-0.3-0.1-0.8-0.3-1.8c0-0.2-0.2-1-0.5-2.4l-7.2,0.6
				l-1.7,3.6c-0.1,0.2-0.2,0.5-0.3,0.8c-0.1,0.3-0.1,0.5-0.1,0.8c0,0.5,0.2,0.7,0.5,0.9c0.3,0.1,0.9,0.2,1.8,0.2l0.1,0.8l-6.6,0.5
				L472.6,46.4z M485.9,37.8l-1.9-8.1l-4.3,8.5L485.9,37.8z"/>
			<path d="M495.8,44.5c0.9-0.2,1.5-0.6,1.8-1.2c0.3-0.6,0.7-2,1.2-4.2l2.7-14l-0.2-0.3c-0.3-0.6-0.7-0.9-1.1-1.1
				c-0.3-0.1-0.8-0.2-1.6-0.2l-0.1-0.9l6.7-0.5l8.5,14.9l1.9-9.7c0.1-0.6,0.2-1.1,0.2-1.6c0.1-0.7,0.1-1.2,0.1-1.5
				c-0.1-0.8-0.4-1.4-0.9-1.6c-0.4-0.2-1-0.2-1.9-0.2l-0.1-0.9l6.9-0.5l0.1,0.9l-0.5,0.1c-0.7,0.2-1.2,0.6-1.5,1.3
				c-0.3,0.7-0.7,2-1.1,4l-3.3,17.3l-0.8,0.1l-10.1-17.9L500.3,39c-0.2,1-0.3,1.8-0.4,2.3c0,0.3,0,0.6,0,0.9c0.1,0.8,0.4,1.3,1,1.6
				c0.4,0.1,1,0.2,1.8,0.2l0.1,0.9l-7,0.5L495.8,44.5z"/>
		</g>
	</g>
</g>
</svg>
