<?xml version="1.0" encoding="utf-8"?>
<!-- Generator: Adobe Illustrator 22.0.1, SVG Export Plug-In . SVG Version: 6.00 Build 0)  -->
<svg version="1.1" id="圖層_1" xmlns="http://www.w3.org/2000/svg" xmlns:xlink="http://www.w3.org/1999/xlink" x="0px" y="0px"
	 viewBox="0 0 593 624.3" style="enable-background:new 0 0 593 624.3;" xml:space="preserve">
<style type="text/css">
	.st0{fill:#FFFFFF;}
	.st1{fill:none;stroke:#FFFFFF;stroke-miterlimit:10;}
	.st2{fill:#231815;}
	.st3{fill:#8C6239;}
	.st4{font-family:'Times-BoldItalic';}
	.st5{font-size:33.576px;}
</style>
<rect x="755" y="561" class="st0" width="419" height="21.1"/>
<rect x="722" y="433" class="st1" width="419" height="161.1"/>
<g>
	<path class="st2" d="M893.8,398.2h-40.1c-1.3,0-1.9,0.6-1.9,1.9v15.3c0,1.3,0.6,1.9,1.9,1.9h29.8c0.8,0,1.8-0.5,3.2-1.4
		c1.4-1,2.8-2.1,4.2-3.5c1.4-1.4,2.7-2.9,3.9-4.6s2.1-3.2,2.6-4.6s0.5-2.6,0-3.5C896.9,398.7,895.7,398.2,893.8,398.2z"/>
	<path class="st2" d="M996.9,305.2c-1-0.2-2-0.1-3.2,0.3c-1.1,0.4-2.2,1-3.2,1.8s-1.4,1.8-1.4,3c0,1.1,0.5,2.1,1.4,3
		c1,0.8,2,1.4,3.2,1.8c1.1,0.4,2.2,0.5,3.2,0.3s1.4-0.7,1.4-1.6v-7.1C998.4,305.8,997.9,305.4,996.9,305.2z"/>
	<path class="st2" d="M1043.6,330.1c0.6,0.6,1.6,1,3,1c0.8,0,1.8-0.1,3.2-0.3c1.3-0.2,2-0.9,2-2v-12c0-0.8-0.4-1.2-1.3-1.3
		c-0.9-0.1-1.6-0.2-2.1-0.2c-2.8,0-4.5,0.4-5,1.3s-0.8,2.6-0.8,5.2c0,0.9,0,1.9-0.1,3c-0.1,1.1,0,2.1,0.1,3.1
		C1042.7,328.7,1043,329.5,1043.6,330.1z"/>
	<path class="st2" d="M855.5,382.3c0,0.4-0.2,0.7-0.6,1.1c-0.4,0.3-0.8,0.6-1.3,1c-0.5,0.3-1,0.6-1.3,1c-0.4,0.3-0.6,0.7-0.6,1.2
		v7.8c0,0.8,0.3,1.1,1.1,1.1c0.7,0,1.3,0,1.8,0c0.9,0,2.3,0,4.3,0s4.1-0.1,6.3-0.2s4.3-0.3,6.1-0.5s3.1-0.5,3.7-0.9
		c0.4-0.3,1.1-0.9,2-1.8s1.9-2,2.9-3.2c1-1.1,1.8-2.3,2.5-3.3c0.7-1.1,1.1-1.9,1.2-2.4c-0.5-1.1-1.3-2.5-2.3-4s-2.2-3-3.4-4.3
		c-1.3-1.3-2.6-2.5-4.1-3.4c-1.5-1-2.9-1.4-4.3-1.4c-1.1,0-3.4,0.2-6.7,0.5c-3.3,0.3-6.7,0.8-10.2,1.4s-6.6,1.4-9.4,2.3
		c-2.7,0.9-4,2-3.9,3.2c0,0.6,0.9,1.1,2.6,1.5s3.6,0.7,5.6,1.1c2,0.3,3.9,0.6,5.5,1C854.7,381.4,855.5,381.8,855.5,382.3z"/>
	<path class="st2" d="M815.4,316.7h48.4c1.3,0,1.9-0.6,1.9-1.9V302c0-1.3-0.6-1.9-1.9-1.9h-48.4c-1.3,0-1.9,0.6-1.9,1.9v12.8
		C813.5,316.1,814.1,316.7,815.4,316.7z"/>
	<path class="st2" d="M1080.4,282c-1.4-1.3-2.7-2.5-3.8-3.8s-2.3-2.4-3.3-3.3c-1.1-1-2.3-1.4-3.5-1.4H1023c-0.4,0-1.2,0.5-2.6,1.5
		c-1.3,1-2.9,2.3-4.7,3.7c-1.8,1.5-3.7,3.1-5.6,5c-2,1.8-3.8,3.6-5.4,5.2c-1.6,1.6-2.9,3-4,4.3c-1.1,1.3-1.6,2.1-1.6,2.5
		s0.2,0.6,0.6,0.8c0.4,0.1,0.7,0.2,1,0.2c0.9,0,2,0,3.2,0c1.3,0,2.6-0.1,3.9-0.2s2.6-0.3,3.8-0.5c1.2-0.2,2.2-0.4,3-0.7
		c0.9-0.4,1.3-1,1.3-1.7c0-0.8-0.1-1.6-0.3-2.4c-0.2-0.8-0.3-1.6-0.4-2.2c-0.1-0.6,0.3-1,1.1-1c1.1,0,2.4,0.3,3.7,1
		c1.3,0.6,2.7,1.4,4,2.4c1.3,1,2.6,2,3.8,3.1c1.2,1.1,2.2,2,3,2.8l1.3,0.6c0.8,0,1.9,0,3.5,0.1s3.2,0.1,4.9,0.1s3.2,0,4.6,0
		s2.4-0.1,3.1-0.4c0.5-0.4,1.2-1,2-1.7c0.8-0.8,1.6-1.6,2.4-2.5s1.4-1.8,2-2.7c0.6-0.9,0.8-1.7,0.7-2.5l-0.6-1.1
		c-0.6-0.4-1.9-0.6-3.7-0.6s-3.9,0.1-6.1,0.2c-2.2,0.1-4.4,0.3-6.6,0.4c-2.2,0.1-3.8,0.1-5-0.2c-0.4-0.1-0.8-0.3-1.2-0.4
		s-0.7-0.4-0.7-1s0.8-1.1,2.3-1.2c1.5-0.2,3.3-0.3,5.3-0.3s3.9,0.1,5.7,0.2c1.8,0.1,3.1,0.2,3.7,0.2c0.4,0,1-0.4,1.7-1.1
		c0.7-0.7,1.5-1.6,2.3-2.5c0.8-0.9,1.5-1.7,2.1-2.5c0.6-0.8,1.1-1.1,1.5-1.1c0.6,0,1.6,0.3,2.8,1c1.2,0.6,2.4,1.4,3.6,2.3
		c1.2,0.9,2.3,1.8,3.2,2.9c1,1,1.4,1.8,1.4,2.5l-1,0.8c-0.4,0-1,0.1-1.8,0.2s-1.7,0.3-2.6,0.5s-1.7,0.5-2.3,0.9s-1,0.8-1,1.3
		s0.3,1.1,0.9,1.9s1.2,1.5,2,2.3s1.6,1.4,2.4,2c0.8,0.6,1.5,0.9,2,0.9h13.4l1.3-0.6c1.3-1.3,2.5-2.9,3.7-4.8s1.9-3.8,2-5.5
		c-0.1-0.1-0.4-0.3-0.8-0.6C1083.4,284.2,1081.8,283.2,1080.4,282z"/>
	<path class="st2" d="M1170.4,61l-503.5,39.6L706.5,604l503.5-39.5L1170.4,61z M946.7,248.4c0.9-0.3,1.5-0.5,1.7-0.5
		c2.8,0,5.7,0.6,8.7,1.9c3,1.3,5.7,3,8.2,5.1s4.6,4.5,6.2,7.2c1.7,2.7,2.5,5.5,2.5,8.4c0,2.6-0.6,5-1.9,7.3
		c-1.3,2.3-3.4,3.4-6.3,3.4c-3.2,0-5.9-1.2-8-3.5c-2.2-2.4-4-5.2-5.4-8.6c-1.5-3.4-2.6-6.9-3.5-10.4c-0.9-3.6-1.7-6.5-2.5-8.8
		C945.7,249.2,945.8,248.7,946.7,248.4z M856.5,262.4c0.9,0,2.5,0,5,0.1c2.4,0.1,4.9,0.1,7.6,0.1c2.6,0,5,0,7.3-0.1
		c2.2-0.1,3.5-0.2,3.9-0.5c0.4-0.5,1.2-1.6,2.5-3.2c1.3-1.6,2.6-3.2,4.1-4.9s2.8-3.1,4.1-4.4c1.3-1.3,2.2-1.9,2.7-1.9
		c1,0,2.4,0.4,4.2,1.2c1.8,0.8,3.6,1.8,5.5,3.1c1.9,1.2,3.8,2.6,5.6,4c1.8,1.5,3.3,2.8,4.5,4c1.1,1.2,1.8,2.2,2,3.1
		c0.2,0.8-0.4,1.2-1.6,1.2h-58.5c-0.3,0-0.5-0.1-0.8-0.4C854.8,263,855.5,262.4,856.5,262.4z M823.6,279.1v-31.9
		c0-1.3,0.6-1.9,1.9-1.9c1.1,0,3.1,0.1,5.8,0.2c2.7,0.1,5.6,0.3,8.6,0.6s5.8,0.5,8.4,0.9c2.6,0.3,4.4,0.7,5.3,1.1
		c0.3,0.1,0.6,0.3,1,0.5c0.4,0.2,0.6,0.5,0.6,0.9s-0.6,1-1.7,1.9s-1.7,1.7-1.7,2.5c0,4.1,0,8.1,0,12c0,4,0.1,8,0.4,12
		c0,0.3,0,0.7,0.1,1.4c0.1,0.7,0.2,1.1,0.3,1.2l1.1,0.6c0.9,0,2.1,0,3.5-0.1c1.5-0.1,2.9-0.1,4.4-0.2s2.9-0.2,4.3-0.3
		c1.4-0.1,2.5-0.3,3.3-0.6c0.6-0.1,1.5-0.8,2.7-2.1c1.1-1.3,2.4-2.6,3.6-4c1.3-1.4,2.5-2.7,3.8-3.8c1.3-1.1,2.5-1.7,3.6-1.7
		s2.9,0.4,5.2,1.3s4.5,2,6.7,3.4s4.1,2.9,5.7,4.5c1.7,1.6,2.5,3,2.5,4.3c0,0.4-0.2,0.7-0.7,0.9c-0.4,0.2-0.8,0.3-1.1,0.3H792.5
		l-1.1,0.6l-1,2.1c0.1,1,1.3,2.1,3.4,3.3c2.2,1.2,4.6,2.4,7.4,3.4c2.7,1.1,5.4,2,8,2.8c2.6,0.8,4.4,1.1,5.4,1.1s2.9,0,5.5,0
		c2.7,0,5.8,0,9.4,0.1c3.6,0.1,7.3,0.1,11.3,0.1c3.9,0,7.6,0,10.9,0c3.3,0,6.1-0.1,8.3-0.2c2.2-0.1,3.5-0.3,3.7-0.4
		c0.4-0.4,1.1-1.1,2.3-2.2c1.1-1.1,2.4-2.2,3.6-3.3c1.3-1.1,2.5-2.2,3.5-3.1c1.1-0.9,1.8-1.3,2-1.3c0.9,0,2.5,0.7,5,2
		c2.4,1.3,4.9,2.9,7.5,4.7c2.5,1.8,4.8,3.5,6.8,5.3c2,1.7,3,3,3,3.9c0,0.6-0.2,1.2-0.7,1.6c-0.4,0.4-1,0.9-1.5,1.2
		c-0.6,0.4-1.1,0.8-1.5,1.2c-0.4,0.4-0.7,0.9-0.7,1.4v13.2c0,1.3-1.1,2.3-3.3,3.2c-2.2,0.8-4.8,1.5-7.6,1.9c-2.9,0.4-5.6,0.8-8.3,1
		c-2.7,0.2-4.5,0.3-5.5,0.3c-1.1,0-1.9-0.4-2.2-1.1c-0.3-0.8-0.5-1.6-0.7-2.6c-0.1-1-0.3-1.8-0.6-2.7c-0.3-0.8-0.8-1.2-1.5-1.2
		h-45.9c-2.3,0-4.6,0.5-6.9,1.4c-2.3,1-4.6,2-7,3.2s-4.7,2.3-7.1,3.2c-2.4,1-4.8,1.4-7.2,1.4c-1.3,0-1.9-0.6-1.9-1.9V290
		c0-1.5-0.4-2.8-1.3-3.8c-0.9-1-2-1.8-3.3-2.4c-1.3-0.6-2.7-1-4.2-1.2c-1.5-0.3-2.9-0.4-4-0.4l-0.6-0.6l0.8-0.6h47
		C823,281,823.6,280.4,823.6,279.1z M761.7,263.2c1.1,0,3.3,0,6.5,0s6.8,0,11-0.1c4.1-0.1,8.5-0.1,13-0.1s8.7,0,12.5,0
		s7.1,0.1,9.8,0.2s4.2,0.3,4.6,0.4l0.4,0.6c-0.1,0.1-1.5,0.2-4.2,0.2s-6,0-10,0s-8.4,0-13.1,0s-9.2,0-13.5,0s-8,0-11.1,0
		c-3.1,0-5.1,0-5.8,0l-0.6-0.6L761.7,263.2z M755,344.1c1.9-2.7,4.1-5.4,6.6-8.1s4.9-5.2,7.4-7.4c2.4-2.2,4.2-3.2,5.4-3.2
		c0.3,0,0.6,0.4,1.1,1.3s1.1,1.9,1.6,3.1c0.6,1.1,1.1,2.2,1.4,3.2c0.4,1,0.6,1.7,0.6,2.1c0,2.6-0.3,5.4-0.9,8.4s-1.5,5.9-2.8,8.5
		c-1.3,2.6-3,4.8-5.1,6.6c-2.1,1.8-4.8,2.7-7.9,2.7c-3.7,0-6.3-1.1-7.9-3.2s-2.4-4.9-2.4-8.3C752.1,348.7,753.1,346.8,755,344.1z
		 M774.7,395.7h42.1c0.4,0,0.8,0.1,1.2,0.3c0.4,0.2,0.8,0.4,1.1,0.7c-0.3,0.3-0.4,0.4-0.6,0.4c-0.8,0.1-2.4,0.3-4.8,0.4
		c-2.4,0.1-5.2,0.3-8.4,0.4s-6.6,0.2-10.1,0.3c-3.6,0.1-6.9,0.1-10,0.1c-3.1,0-5.8,0-7.9-0.1c-2.2-0.1-3.5-0.2-4-0.3l-0.2-0.2
		l0.2-1.1l0.2-0.2L774.7,395.7z M784.2,469.3c0.1,0,0.3,0.1,0.6,0.2c0.2,0.1,0.4,0.3,0.4,0.5c-0.1,0.1-0.7,0.1-2,0.1s-2.9,0-4.9,0.1
		c-2,0-4.2,0.1-6.6,0.1c-2.4,0-4.7,0-7-0.1c-2.3,0-4.4-0.1-6.3-0.1c-1.9,0-3.3,0-4.3,0c-0.1,0-0.2,0-0.3-0.1l0.2-0.3l0.7-0.3h29.5
		L784.2,469.3L784.2,469.3z M747.3,494.3c0-0.5,0.6-1.6,1.8-3.3c1.2-1.7,2.5-3.5,4-5.4s2.9-3.6,4.2-5.1s2.2-2.2,2.5-2.2
		c0.1,0,0.4,0.2,0.7,0.7s0.6,1,0.9,1.6c0.3,0.6,0.5,1.1,0.7,1.7c0.2,0.5,0.3,0.9,0.3,1.1c0,1.6-0.1,3.3-0.3,5.1
		c-0.2,1.8-0.6,3.4-1.2,4.9c-0.6,1.5-1.5,2.8-2.7,3.8s-2.9,1.5-5,1.5c-1.7,0-3.1-0.2-4.2-0.7C747.8,497.5,747.3,496.3,747.3,494.3z
		 M780.2,536.1c-1.4,0.9-3.1,1.9-5.1,2.9c-2.1,1-4.4,2.1-6.9,3.1s-4.9,2-7.3,2.8c-2.3,0.8-4.4,1.5-6.3,2.1c-1.8,0.5-3.1,0.8-3.9,0.8
		c-0.2,0-0.5,0-0.8-0.1c-0.3,0-0.5-0.2-0.5-0.6c0-0.2,0.1-0.4,0.2-0.5s0.2-0.3,0.4-0.4c1.6-1.7,3.2-3.3,5-4.8
		c1.8-1.5,3.6-3.1,5.3-4.6c1.7-1.6,3.4-3.2,4.9-4.8c1.6-1.7,2.9-3.5,4.2-5.5l0.6-0.3c0.4,0.1,1.3,0.6,2.5,1.4
		c1.3,0.8,2.6,1.6,4.1,2.5c1.4,0.9,2.7,1.7,3.8,2.4c1.1,0.7,1.7,1.2,1.7,1.4C782.3,534.5,781.6,535.2,780.2,536.1z M803.1,517.8
		c-0.3,0.1-0.7,0.1-1,0.1c-0.3,0-0.7,0.1-1,0.2c-0.5,0.2-0.8,0.5-0.8,1v28.2c0,0.8-0.5,1.4-1.5,1.8s-2.2,0.7-3.5,0.8s-2.6,0.2-4,0.2
		c-1.3,0-2.3-0.1-2.8-0.1l-0.7-0.3l-0.1-0.1l-0.3-0.7c0-0.6,0-1.7,0-3.3s0-3.4,0-5.4s0-4.2,0-6.4s0-4.3,0-6.3s0-3.6-0.1-4.9
		c-0.1-1.3-0.1-2.1-0.2-2.3c-0.5-0.3-1.2-0.4-2.2-0.3c-1,0.1-1.8,0.1-2.3,0.2c-4.3,0.3-8.3,1-12.1,1.9c-3.8,0.9-7.7,2.2-11.6,3.8
		c-0.1,0.1-0.2,0.1-0.4,0.1c-0.3,0-0.8-0.5-1.5-1.6c-0.7-1-1.4-2.3-2-3.6c-0.7-1.4-1.3-2.7-1.8-3.9c-0.5-1.3-0.8-2.1-0.8-2.5
		c0-0.7,0.3-1,0.8-1h25.6c0.7,0,1.4-0.1,2.1-0.2c0.7-0.1,1.4-0.3,2-0.5c1-0.3,2.2-1,3.4-2.3c1.3-1.3,2.5-2.8,3.8-4.5
		c1.3-1.7,2.5-3.5,3.8-5.4c1.3-1.9,2.4-3.7,3.5-5.3c1.1-1.6,2-3,2.8-4s1.4-1.6,1.8-1.6c0.2,0,0.9,0.3,2,0.9c1.2,0.6,2.4,1.2,3.9,1.9
		c1.4,0.7,2.8,1.4,4.1,2s2.2,1.1,2.6,1.3l0.6,0.6c0,0.1-0.1,0.2-0.2,0.3c-0.7,0.5-1.4,1-2.2,1.3c-0.8,0.3-1.5,0.7-2.3,1.1
		c-0.6,0.3-1.5,0.9-2.8,1.6s-2.7,1.5-4.2,2.4c-1.6,0.9-3.2,1.9-4.8,2.8c-1.7,1-3.2,1.9-4.7,2.8s-2.7,1.7-3.8,2.5
		c-1.1,0.7-1.7,1.3-2,1.6c-0.3,0.4-0.3,0.7,0.3,1c0.5,0.2,0.9,0.4,1.2,0.4c4.7,0,9.3-0.2,14-0.7c4.6-0.5,9.3-0.7,14-0.7l0.7-0.3
		l0.1-0.1l0.1-0.3c-0.1-0.2-0.4-0.6-1-1.2c-0.6-0.6-1.2-1.2-1.9-1.9c-0.7-0.7-1.4-1.3-2-1.9c-0.6-0.6-1.1-1-1.4-1.3L812,505l0.4-0.4
		c2,0,4.3,0.2,6.9,0.7c2.6,0.4,5.1,1.2,7.5,2.2s4.4,2.4,6,4c1.6,1.7,2.4,3.8,2.4,6.3c0,1.8-0.6,3.3-1.8,4.3s-2.7,1.6-4.4,1.6
		c-1.4,0-2.5-0.5-3.3-1.4c-0.7-0.9-1.4-1.9-1.9-3s-1.1-2.1-1.7-3s-1.4-1.4-2.6-1.4c-1.9,0-3.7,0.2-5.5,0.7c-1.8,0.5-3.5,0.9-5.3,1.2
		c-0.9,0.2-1.8,0.4-2.7,0.6C804.9,517.5,804,517.7,803.1,517.8z M833.5,546.1c-1.4,0.8-3,1.2-5,1.2c-0.5,0-1,0-1.4,0.1
		c-0.4,0-0.9-0.1-1.4-0.3c-0.5-0.5-1.1-0.9-1.5-1.3c-0.4-0.3-0.8-0.7-1.1-1c-0.3-0.3-0.5-0.5-0.6-0.7c-0.3-0.3-1-0.8-1.8-1.6
		c-0.9-0.8-1.9-1.7-3-2.8c-1.2-1-2.3-2.2-3.5-3.3c-1.2-1.2-2.3-2.2-3.3-3.3s-1.8-1.9-2.5-2.6c-0.6-0.7-1-1.3-1-1.5
		c0-0.3,0.1-0.5,0.4-0.6s0.5-0.1,0.8-0.1c2.2,0,4.8,0.1,7.9,0.4c3.1,0.2,6,0.8,8.9,1.7c2.8,0.9,5.3,2.3,7.3,4c2,1.8,3,4.1,3,7.1
		C835.5,543.7,834.8,545.2,833.5,546.1z M838.8,486.6c-0.4,0.3-0.9,0.6-1.4,0.9s-1,0.6-1.5,0.9s-0.8,0.5-1,0.6
		c-0.9,0.6-1.9,1.3-3,2.2c-1.1,0.8-2.2,1.7-3.4,2.4c-1.2,0.8-2.4,1.4-3.6,2c-1.2,0.5-2.4,0.8-3.5,0.8c-0.2,0-0.4-0.1-0.6-0.2
		s-0.3-0.3-0.3-0.6c0-0.9,0.1-1.9,0.4-2.7c0.3-0.9,0.6-1.8,1-2.6c0.4-0.9,0.7-1.8,1-2.6c0.3-0.9,0.4-1.8,0.4-2.7
		c0-0.6-0.1-1-0.3-1.2c-0.2-0.2-0.6-0.3-1.2-0.3c-0.7,0-2,0-4.1,0.1c-2.1,0.1-4.4,0.1-7.1,0.1s-5.6,0.1-8.5,0.2
		c-3,0.1-5.7,0.1-8.2,0.2s-4.6,0.1-6.3,0.2s-2.6,0.1-2.6,0.2c-0.1,0.1-0.3,0.3-0.4,0.5s-0.2,0.3-0.2,0.5c0,0.7,0.5,1.4,1.6,1.8
		c1,0.5,2.2,0.9,3.5,1.2c1.3,0.3,2.4,0.7,3.5,1c1,0.3,1.6,0.6,1.6,1c0,0.3-0.6,0.7-1.7,1.4c-1.1,0.6-2.4,1.3-3.9,2.1
		c-1.5,0.7-2.8,1.4-4.2,2.1c-1.3,0.6-2.2,1.1-2.6,1.3l-0.4,0.5c0,1.1,0.3,2.1,0.8,3c0.5,1,0.8,2,0.8,3c0,3.7-1.9,5.6-5.6,5.6
		c-1,0-2.2-0.5-3.4-1.6c-1.3-1-2.5-2.3-3.7-3.6c-1.2-1.4-2.3-2.8-3.4-4.1c-1.1-1.4-2-2.4-2.7-3.2l-0.2-0.7l0.3-0.4
		c0.6-0.1,1.2-0.2,1.8-0.4c0.6-0.2,1.2-0.3,1.8-0.3c0.5,0,1.1,0.1,1.9,0.3c0.8,0.2,1.6,0.3,2.5,0.5c0.8,0.1,1.6,0.2,2.3,0.2
		c0.7,0,1.2-0.3,1.6-0.8c0.1-0.1,0.3-0.6,0.6-1.6c0.3-1,0.6-2.1,1-3.3c0.4-1.2,0.7-2.3,1.1-3.4c0.3-1.1,0.6-1.8,0.7-2.2l-0.2-0.8
		l-0.7-0.4H765c-0.3,0-0.5-0.2-0.5-0.5s0.2-0.5,0.5-0.5h21.5c0.7,0,1-0.3,1-1v-23.4c0-0.7,0.3-1,1-1c2.2,0,4.5,0,6.9,0.1
		c2.3,0.1,4.6,0.4,6.8,1c0.1,0.1,0.3,0.1,0.6,0.2c0.2,0.1,0.4,0.2,0.4,0.5c0,0.2-0.1,0.4-0.3,0.6c-0.2,0.2-0.4,0.3-0.7,0.5
		c-0.2,0.1-0.5,0.3-0.7,0.5s-0.3,0.4-0.3,0.7v20.1c0,0.7,0.3,1,1,1h19.5l0.7-0.3c0.2-0.2,0.6-0.7,1.3-1.4c0.7-0.7,1.4-1.4,2.1-2.2
		c0.7-0.7,1.4-1.4,2.1-2c0.6-0.6,1.1-0.9,1.3-0.9s0.8,0.5,1.9,1.5c1.1,1,2.3,2.2,3.5,3.4c1.3,1.3,2.4,2.4,3.4,3.6s1.5,1.7,1.5,1.9
		C839.4,486.1,839.2,486.3,838.8,486.6z M804.5,469c1.2-0.1,2.4-0.2,3.9-0.2s2.8,0,4.2,0.1c1.4,0.1,2.2,0.1,2.6,0.1
		c0.3,0,0.8-0.5,1.4-1.4c0.6-0.9,1.3-2,2-3.2c0.7-1.2,1.5-2.2,2.2-3.2c0.7-0.9,1.4-1.4,2-1.4c0.1,0,0.6,0.3,1.5,1
		c0.8,0.6,1.8,1.4,2.8,2.2c1,0.8,2,1.6,2.9,2.4c0.9,0.8,1.5,1.3,1.8,1.5c0.1,0.1,0.3,0.2,0.6,0.5c0.3,0.3,0.7,0.6,1,0.9
		c0.3,0.3,0.6,0.6,0.9,0.9s0.4,0.4,0.4,0.5c0,0.2-0.1,0.3-0.3,0.4h-31.5c-0.1,0-0.3-0.1-0.4-0.2C802.8,469.4,803.4,469.1,804.5,469z
		 M856.4,515.6c-1.5,0-2.8-0.1-4-0.3c-1.2-0.2-1.8-0.5-1.8-1c0-0.3,0-0.4,0.1-0.5c0.5-2.6,1.1-5.3,1.8-7.9c0.6-2.6,1.2-5.3,1.6-8
		c0.3-2,0.6-3.9,0.8-5.8c0.2-1.9,0.4-3.9,0.7-5.8c0.1-0.9,0.2-1.9,0.3-2.8c0.1-0.9,0.2-1.8,0.5-2.7c0.1-0.6,0.4-0.9,0.9-0.9
		c0.2,0,0.4,0,0.5,0.1c2.2,0.8,4.5,1.6,6.8,2.3c2.3,0.7,4.6,1.4,7,1.9c1.6,0.3,3.2,0.6,4.8,0.7c1.6,0.1,3.2,0.3,4.8,0.6
		c0.3,0,0.5,0.2,0.5,0.5s-0.2,0.5-0.5,0.5h-12.4c-0.2,0-0.4,0.3-0.6,1c-0.2,0.6-0.4,1.4-0.5,2.2c-0.1,0.8-0.3,1.6-0.4,2.3
		c-0.1,0.7-0.2,1.3-0.2,1.5c-0.1,0.7-0.2,2.2-0.4,4.4c-0.2,2.2-0.5,4.5-0.8,6.9s-0.7,4.5-1.2,6.5c-0.4,2-0.9,3.1-1.4,3.4
		c-0.4,0.2-1.3,0.4-2.6,0.6C859.3,515.5,857.9,515.6,856.4,515.6z M882.9,463.6h-29.8c-0.5,0-0.7-0.2-0.7-0.7s0.2-0.7,0.7-0.7h28.8
		c0.3,0,0.8-0.3,1.4-1c0.6-0.6,1.2-1.3,1.9-2.1c0.6-0.7,1.3-1.4,1.9-2.1c0.6-0.6,1.1-1,1.4-1c0.3,0,0.9,0.4,2,1.1
		c1,0.7,2.2,1.6,3.4,2.5c1.2,1,2.3,1.9,3.4,2.8c1,0.9,1.7,1.5,2.1,1.9c0,0.3-0.2,0.6-0.5,0.9s-0.7,0.5-1.1,0.8
		c-0.4,0.2-0.8,0.5-1.1,0.8c-0.3,0.3-0.5,0.5-0.5,0.8v22c0,0.5-0.5,1-1.5,1.3s-2.2,0.6-3.5,0.8c-1.3,0.2-2.5,0.4-3.8,0.5
		c-1.2,0.1-2,0.2-2.4,0.2c-0.3,0-0.6-0.4-0.8-1.1c-0.2-0.7-0.3-1.6-0.4-2.5s-0.2-1.9-0.2-2.7c0-0.9,0-1.5,0-1.7
		c0-3.3,0.1-6.5,0.2-9.8s0.2-6.6,0.2-9.8C883.9,463.9,883.6,463.6,882.9,463.6z M899.9,510.6c-0.9,0.5-1.6,0.9-2,1.2l-0.1,0.4
		c-0.7,3.3-1.3,6.7-1.7,10.2s-1,6.9-1.9,10.1c-0.8,3.3-2.2,6.3-4,9c-1.8,2.7-4.5,5-8.1,6.7c-0.5,0.3-1.2,0.5-2,0.8s-1.6,0.5-2.4,0.8
		c-0.8,0.2-1.7,0.4-2.5,0.6c-0.8,0.1-1.5,0.2-2.1,0.2c-0.5,0-0.9-0.3-1.1-0.8c-0.3-0.7-0.6-1.5-0.9-2.4c-0.2-0.8-0.6-1.6-1-2.4
		c-0.6-1.2-1.2-2.1-1.9-2.5c-0.6-0.5-1.3-0.8-1.9-1.1c-0.6-0.3-1.3-0.6-2-0.9c-0.7-0.3-1.4-0.9-2.1-1.9c-0.2-0.2-0.3-0.4-0.3-0.7
		s0.1-0.5,0.4-0.6s0.5-0.2,0.7-0.2h12.5c1.2,0,2.3-0.6,3.3-1.7c0.9-1.2,1.8-2.6,2.4-4.4c0.7-1.8,1.3-3.7,1.7-5.9
		c0.5-2.2,0.8-4.3,1.1-6.4c0.3-2.1,0.5-4,0.6-5.7c0.1-1.7,0.2-3.1,0.2-4c0-0.6-0.7-1-2.1-1.1s-3-0.2-4.8-0.1
		c-1.8,0.1-3.6,0.2-5.3,0.3c-1.7,0.1-2.9,0.1-3.5,0c-0.3-0.1-0.6-0.2-0.9-0.3c-0.3-0.1-0.5-0.3-0.6-0.7c0.1-0.1,0.9-0.2,2.4-0.3
		c1.5,0,3.1-0.1,4.9-0.1c1.8,0,3.5,0,5.1,0.1c1.6,0,2.6,0.1,3,0.1c0.2-0.2,0.7-0.7,1.6-1.4c0.8-0.7,1.7-1.5,2.7-2.3
		c0.9-0.8,1.8-1.5,2.5-2.1c0.7-0.6,1.2-0.9,1.3-0.9c0.3,0,0.5,0.1,0.8,0.4c0.3,0.3,0.5,0.5,0.6,0.6c0.3,0.3,0.9,0.8,1.8,1.6
		c0.9,0.8,1.9,1.6,3,2.4c1,0.8,2,1.6,2.8,2.4c0.8,0.7,1.2,1.2,1.2,1.3C901.3,509.6,900.8,510.1,899.9,510.6z M917.9,420H758.2
		c-0.4,0-0.8-0.1-1.1-0.3c-0.4-0.2-0.6-0.5-0.6-1.1c0-0.4,0.2-0.7,0.6-1s0.8-0.4,1.1-0.4h63.5c1.3,0,1.9-0.6,1.9-1.9V380
		c0-1.3-0.6-1.9-1.9-1.9c-5.1,0-10.4,0.4-15.8,1.3c-5.4,0.9-10.5,2-15.4,3.4c-1,0.3-2,0.7-3.1,1.4c-1,0.7-1.9,1.1-2.7,1.2l-1.1-0.6
		c-0.3-0.9-0.8-2.3-1.7-4.1c-0.9-1.8-1.8-3.7-2.9-5.6c-1-1.9-1.9-3.6-2.7-5.2c-0.8-1.5-1.1-2.5-1.1-2.9c0-0.5,0-1,0.1-1.4
		c0.1-0.4,0.4-0.7,1.1-0.7c4.1,0,8.2,0.2,12.2,0.7c4.1,0.4,8.2,0.7,12.2,0.7c1.5,0,2.7-0.4,3.6-1.3c0.9-0.9,1.6-2,2.1-3.3
		s0.9-2.7,1.1-4.2s0.3-2.8,0.3-3.9c0-1.4-1.2-2.1-3.5-2.2c-2.4-0.1-4.9,0-7.7,0.2s-5.4,0.3-7.7,0.4c-2.4,0.1-3.5-0.5-3.5-1.6
		c0-0.8,0.4-1.1,1.3-1.1h73.8c1.1,0,2.2-0.5,3.2-1.5s1.9-2.1,2.9-3.3c1-1.2,2-2.3,3.1-3.3c1.1-1,2.3-1.5,3.7-1.5
		c1.9,0,3.6,0.5,5.1,1.6s2.9,2.3,4.2,3.6c1.3,1.3,2.7,2.6,4.1,3.6c1.4,1.1,2.9,1.6,4.6,1.6c0.8,0,1.5-0.8,2.1-2.3
		c0.6-1.5,1.1-3.2,1.3-5.2c0.3-1.9,0.3-3.6,0-5.2c-0.3-1.5-0.8-2.3-1.7-2.3H782.9c-0.5,0-0.8-0.2-0.8-0.6c0-1.3,0.6-1.9,1.9-1.9
		h107.6l1.3-0.6c0.4-0.4,1.2-1.2,2.5-2.5s2.6-2.6,4-3.9s2.7-2.5,3.9-3.5c1.2-1,2-1.5,2.4-1.5s1.6,0.9,3.5,2.7c2,1.8,4,3.8,6.2,6
		s4.1,4.3,5.9,6.3c1.8,2,2.7,3.2,2.7,3.5c0,0.4-0.2,0.7-0.6,1.1c-0.4,0.3-0.7,0.5-1,0.7c-4.6,2.2-9.1,4.3-13.6,6.5
		c-2.6,1.3-5.1,2.7-7.7,4.2c-2.6,1.5-5.3,2.7-8.1,3.4c-0.6-0.3-1.3-0.8-2.1-1.5c-0.8-0.8-1.4-1.1-1.9-1.1h-49.9
		c-0.3,0-1.5,0.5-3.8,1.6c-2.3,1.1-4.8,2.3-7.4,3.6c-2.6,1.3-5,2.6-7.2,3.8c-2.2,1.2-3.3,1.9-3.4,2l-0.6,1.1c0.3,1,1.2,1.6,3,1.7
		c1.7,0.1,3,0.2,3.9,0.2c4.5,0,9-0.1,13.6-0.2s9.1-0.3,13.6-0.6c1.8-0.1,3.6-0.2,5.5-0.2c1.9,0,3.8-0.1,5.5-0.4
		c1.3-0.1,1.8-0.5,1.6-1.1s-0.6-1.3-1.2-2.1c-0.6-0.8-1.3-1.5-2.1-2.2c-0.8-0.7-1.1-1.2-1.1-1.4c0-0.8,0.5-1.1,1.4-1.1
		c0.9,0,1.7,0,2.2,0c2.7,0,5.9,0.1,9.8,0.3c3.8,0.2,7.5,0.8,11.1,1.8c3.6,1,6.6,2.6,9.1,4.7s3.7,5.1,3.7,8.9c0,2.2-0.7,4.2-2,6
		c-1.3,1.8-2,3.9-2,6c0,0.8,0.7,1.6,2.2,2.5s3.1,1.8,4.8,2.8c1.7,1,3.3,2,4.8,3.1s2.2,2.1,2.2,3.2l-0.6,1c-1,0.1-2,0.4-3.1,0.9
		c-1,0.4-1.5,1.3-1.5,2.6c0,1,0.8,2.3,2.4,3.9s3.4,3.2,5.5,4.9c2.1,1.7,4.2,3.2,6.3,4.5s3.6,2.3,4.5,3l0.6,1.1l-0.6,1
		c-0.3,0.3-0.6,0.5-1,0.7C918.6,419.9,918.3,420,917.9,420z M935.7,459c-0.4,0.3-0.8,0.5-1.3,0.8c-0.4,0.3-0.8,0.6-1.2,0.9
		c-0.3,0.3-0.5,0.6-0.5,0.9V546c0,0.8-0.5,1.5-1.5,2s-2.1,0.9-3.4,1.2c-1.3,0.3-2.6,0.5-3.8,0.7c-1.3,0.1-2.2,0.2-2.8,0.2
		c-0.7,0-1-0.3-1-1c0-4.3,0-8.7-0.1-13c0-4.3-0.1-8.7-0.2-13c-0.1-9.1-0.2-18.2-0.3-27.2c0-9-0.1-18.1-0.1-27.2c0-1.8,0-3.7-0.1-5.5
		c-0.1-1.9-0.1-3.7-0.1-5.5c0-0.5,0.2-0.8,0.5-0.9c0.3-0.1,0.6-0.2,1-0.2c2.6,0,5.1,0.1,7.6,0.4s5,0.6,7.5,0.9l0.5,0.4
		C936.4,458.5,936.1,458.8,935.7,459z M1002.2,507c1.3,1.4,3,3,4.9,4.9c2,1.9,4.1,3.9,6.4,6.1s4.4,4.2,6.4,6.1
		c2,1.9,3.6,3.5,4.9,4.9c1.3,1.4,2,2.3,2,2.7c0,0.3-0.3,0.8-0.9,1.4c-0.6,0.6-1,0.9-1.4,0.9s-1.3-0.7-2.7-2c-1.4-1.3-3-3-4.9-4.9
		c-1.9-2-3.9-4.1-6.1-6.4c-2.2-2.3-4.2-4.4-6.1-6.4c-1.9-2-3.5-3.6-4.9-4.9s-2.3-2-2.7-2s-1.3,0.7-2.7,2c-1.4,1.3-3,3-4.9,4.9
		c-1.9,2-3.9,4.1-6.1,6.4c-2.2,2.3-4.2,4.4-6.1,6.4c-1.9,2-3.5,3.6-4.9,4.9c-1.4,1.3-2.3,2-2.7,2c-0.3,0-0.8-0.3-1.4-0.9
		c-0.6-0.6-0.9-1-0.9-1.4s0.7-1.3,2-2.7s3-3,4.9-4.9c2-1.9,4.1-3.9,6.4-6.1c2.3-2.2,4.4-4.2,6.4-6.1s3.6-3.5,4.9-4.9s2-2.3,2-2.7
		c0-0.3-0.7-1.2-2-2.6c-1.4-1.4-3-3.1-5-5.1s-4.2-4.1-6.5-6.3c-2.3-2.2-4.5-4.3-6.5-6.3c-2-1.9-3.7-3.6-5-4.9c-1.4-1.4-2-2.2-2-2.4
		c0-0.4,0.3-0.9,1-1.6s1.2-1,1.6-1c0.3,0,1.1,0.7,2.4,2c1.4,1.4,3,3,4.9,5c1.9,2,4,4.2,6.3,6.5c2.2,2.3,4.3,4.5,6.3,6.5
		s3.7,3.7,5.1,5c1.4,1.4,2.3,2,2.6,2c0.3,0,1.2-0.7,2.6-2c1.4-1.4,3.1-3,5.1-5s4.1-4.2,6.3-6.5c2.2-2.3,4.3-4.5,6.3-6.5
		c1.9-2,3.6-3.7,4.9-5c1.4-1.4,2.2-2,2.4-2c0.4,0,0.9,0.3,1.6,1c0.6,0.7,1,1.2,1,1.6c0,0.3-0.7,1.1-2,2.4c-1.4,1.4-3,3-5,4.9
		s-4.2,4-6.5,6.3c-2.3,2.2-4.5,4.3-6.5,6.3s-3.7,3.7-5,5.1c-1.4,1.4-2,2.3-2,2.6C1000.2,504.7,1000.9,505.6,1002.2,507z
		 M1065.8,413.3c-0.8-1.4-1.6-2.5-2.5-3.2c-0.9-0.8-1.8-1.4-2.7-1.9s-1.7-1-2.4-1.4s-1.3-1.1-1.8-1.8c0.3-0.5,0.6-0.8,1.1-0.9
		c0.4-0.1,0.9-0.1,1.4-0.1h18.4c0.8,0,1.5-0.7,2.3-2.1s1.4-2.9,1.9-4.6s0.8-3.2,0.9-4.6c0.1-1.4-0.4-2.1-1.2-2.1h-68.8
		c-0.6,0-1.2,0.3-1.7,1c-0.5,0.6-1,1.4-1.5,2.3s-1,1.7-1.4,2.5c-0.4,0.8-0.9,1.3-1.4,1.7c-0.4,0.3-1.6,0.4-3.6,0.6
		c-2,0.1-4.2,0.2-6.5,0.1c-2.3-0.1-4.4-0.3-6.2-0.8c-1.8-0.4-2.8-1.1-2.8-1.8c0-0.4,0.1-0.6,0.2-0.8c1.4-3.7,2.7-7.5,3.9-11.3
		c1.2-3.9,2.3-7.7,3.3-11.6c0.5-1.8,1-3.7,1.4-5.6c0.4-1.9,1-3.8,1.6-5.5c0.3-1,0.8-1.5,1.5-1.5c0.4,0,1.4,0.5,3.2,1.6
		c1.7,1.1,3.8,2.3,6.1,3.5c2.4,1.3,4.9,2.5,7.6,3.5c2.7,1.1,5.3,1.6,7.7,1.6h50.3c1.3,0,1.9-0.6,1.9-1.9c0-0.5,0.1-1.5,0.2-2.9
		c0.1-1.4,0.2-2.9,0.2-4.4s-0.2-2.9-0.5-4.1c-0.3-1.2-0.9-1.8-1.8-1.8h-71.3c-0.6,0-1.5,0.2-2.5,0.5s-2,0.5-3,0.6s-1.8-0.1-2.5-0.5
		s-1.1-1.3-1.1-2.7c0-0.4,0.2-0.7,0.7-0.9c0.4-0.2,0.8-0.3,1.1-0.3h77.2l1.3-0.6c1.9-1.9,3.8-3.8,5.7-5.5c1.9-1.7,3.8-3.6,5.7-5.5
		l0.6-1.4c0-0.6,0.1-1.9,0.2-3.8s0.2-3.9,0.2-5.8c0-2-0.1-3.7-0.3-5.3c-0.2-1.5-0.6-2.3-1.2-2.3s-1.5,0.8-2.5,2.4s-2.1,3.3-3.3,5.3
		c-1.2,1.9-2.5,3.7-3.7,5.3c-1.3,1.6-2.5,2.4-3.6,2.4c-0.4,0-0.6-0.2-0.8-0.6c-0.1-0.4-0.2-0.7-0.2-1c0-0.8,0.2-2.3,0.5-4.6
		c0.3-2.3,0.8-4.7,1.3-7.2c0.6-2.5,1.2-4.6,2-6.5c0.8-1.9,1.6-2.8,2.5-2.8c1.3,0,2.5,0.2,3.5,0.6c1.1,0.4,2.3,0.6,3.5,0.8l1.3-0.6
		c0.3-0.4,0.4-1.1,0.6-2c0.1-1,0.2-1.9,0.2-3c0-1-0.1-1.9-0.4-2.8c-0.3-0.8-0.6-1.2-1.1-1.2c-1.7,0-3.1,0.5-4.4,1.6
		s-2.7,1.6-4.4,1.6c-0.6,0-1.2-0.4-1.8-1.1c-0.6-0.8-1.2-1.6-1.8-2.6s-1.2-1.8-1.8-2.7c-0.6-0.8-1.2-1.2-1.8-1.2h-36.3
		c-0.6,0-1.1,0.2-1.4,0.6s-0.6,0.8-0.9,1.3c-0.3,0.5-0.6,1-1,1.3c-0.4,0.4-0.8,0.6-1.3,0.6c-1.3,0-2.8,0.1-4.5,0.2
		c-1.7,0.1-3-0.4-3.7-1.7c-0.6-1-1.1-2.1-1.5-3.2c-0.4-1.1-1.3-1.7-2.7-1.7c-1.7,0-2.6,0.7-2.9,2.2s-0.4,2.8-0.4,3.9
		c0,2.3,0.5,4.2,1.6,5.8c1.1,1.6,2.4,3,4,4.3s3.2,2.5,5,3.6c1.7,1.1,3.2,2.5,4.5,4c1.1,0.6,2.2,0.4,3.3-0.8c0.4-0.5,0.5-1.6,0.4-3.2
		c-0.1-1.6-0.3-3.2-0.4-5c-0.1-1.7-0.1-3.2,0-4.6c0.1-1.3,0.7-2,1.7-2c1.4,0,2.8,0.3,4.3,0.9s2.9,1.2,4.3,1.8
		c1.4,0.6,2.8,1.1,4.2,1.5s2.8,0.4,4.2,0.2c0.4-0.4,0.9-0.9,1.6-1.4c0.7-0.6,1.5-1.2,2.3-1.9c0.8-0.7,1.6-1.3,2.3-1.8
		s1.2-0.9,1.6-1.1c0.5,0.3,1.3,0.8,2.5,1.7c1.1,0.9,2.3,1.8,3.4,2.9c1.1,1,2.1,2,3,3c0.8,1,1.2,1.7,1.2,2.2c0,0.4-0.4,0.7-1.1,1
		s-1.1,0.8-1.1,1.5V337c0,0.6-0.4,1.2-1.1,1.7c-0.8,0.5-1.7,0.9-2.7,1.2c-1,0.3-2,0.6-3.1,0.8c-1,0.2-1.8,0.3-2.3,0.3
		c-1.5,0-2.5-0.4-2.9-1.1c-0.4-0.7-0.7-1.5-1-2.3c-0.3-0.8-0.6-1.5-1.1-2.3c-0.4-0.7-1.5-1.1-3.2-1.1c-1.5,0-2.8,0.5-3.7,1.5
		c-1,1-1.9,2-2.9,3.1s-2,2.2-3.2,3.1c-1.1,1-2.7,1.5-4.8,1.5c-1.3,0-2.1-0.5-2.4-1.4c-0.3-1-0.4-2.1-0.3-3.3
		c0.1-1.3,0.2-2.6,0.3-3.9s-0.2-2.4-0.7-3.2c-0.4-0.6-0.8-1-1.3-1s-1.1,0.1-1.6,0.3c-0.6,0.2-1.1,0.4-1.6,0.7
		c-0.5,0.3-1,0.4-1.5,0.4h-4c-0.6,0-1.1-0.6-1.4-1.8c-0.3-1.2-0.6-2.6-1-4.2c-0.3-1.6-0.7-3.2-1.1-4.9c-0.4-1.7-1.1-2.9-1.8-3.6
		c-1.8-0.5-2.8,0.3-3.2,2.4c-0.3,2.1-0.4,4.6-0.3,7.5c0.1,2.9,0.3,5.7,0.5,8.4c0.2,2.7,0,4.5-0.5,5.3c-1,1.3-2.6,2.1-4.9,2.4
		c-2.2,0.3-4.1,0.5-5.6,0.5c-1.3,0-2-1.1-2.1-3.2s-0.1-4.4,0.1-6.9c0.2-2.5,0.3-4.8,0.3-6.9s-0.4-3.2-1.3-3.2
		c-1.7,0-3.1,0.9-4.3,2.7c-1.2,1.8-2.4,3.7-3.6,5.8c-1.2,2.1-2.5,4-3.8,5.7s-3,2.6-5.1,2.6c-0.9,0-1.3-0.4-1.3-1.3
		c0-1.5,0.4-3.3,1.1-5.3c0.8-2,1.6-4,2.5-6.2s1.7-4.4,2.5-6.6s1.1-4.4,1.1-6.4c0-1.1-0.1-2.6-0.3-4.3c-0.2-1.7-0.5-3.4-1.1-5.2
		c-0.5-1.7-1.2-3.2-2-4.6c-0.8-1.3-1.9-2.3-3.2-2.8c-0.4-0.1-0.6-0.1-0.8,0.2c-1.1,1.7-2.3,4.3-3.3,7.8c-1.1,3.6-2.1,7.6-3,12
		c-0.9,4.5-1.7,9.2-2.4,14.2c-0.7,5-1.3,9.9-1.8,14.5c-0.5,4.7-0.9,9-1.1,12.9c-0.3,4-0.4,7.1-0.4,9.4c0,3.3,0.4,6.5,1.1,9.6
		s1.6,6.2,2.6,9.3c1,3.1,1.8,6.2,2.7,9.4c0.8,3.1,1.2,6.3,1.2,9.5c0,5.5-1.3,9.6-3.8,12.2c-2.6,2.7-5.3,4.2-8.3,4.7
		c-3,0.4-5.8-0.1-8.3-1.7c-2.6-1.6-3.8-3.9-3.8-7c0-2.8,0.3-6.3,0.8-10.4s0.8-8.3,1-12.5c0.1-4.2-0.1-8.2-0.8-11.9
		c-0.6-3.7-2-6.6-4.2-8.8c-0.6-0.6-1.4-1.2-2.4-1.6s-1.8-1-2.4-1.6c1.1-0.6,2.3-1.1,3.5-1.3c1.2-0.3,2.3-0.8,3.3-1.5
		c1.3-1,2.3-2.2,3.1-3.6c0.8-1.4,1.5-2.8,2.1-4.2c0.4-0.9,1.1-2.7,2-5.4c0.9-2.7,1.9-5.5,3-8.5c1-3,1.9-5.7,2.7-8.2
		c0.8-2.5,1.1-4,1.1-4.7c0-1,0-1.9-0.1-2.7c-0.1-0.8-0.7-1.3-1.8-1.5c-1.3-0.3-2.6-0.3-3.9-0.3c-1.3,0.1-2.7,0-4.1-0.3
		c-3.2-0.5-5.2-1.5-6.1-2.9s-1.7-3.6-2.3-6.5c-0.3-1.4-0.5-2.9-0.9-4.4c-0.3-1.5-0.7-3-1.1-4.4c-0.5-1.7-1.3-3.6-2.4-5.7
		c-1.1-2.2-1.6-4.1-1.6-5.7c0-0.5,0.2-0.8,0.6-1c0.4-0.1,0.8-0.2,1.1-0.2c2,0,4.3,0.6,6.8,1.8c2.5,1.2,4.9,2.7,7.4,4.5
		c2.4,1.8,4.7,3.7,6.8,5.6c2.1,2,3.8,3.7,5.1,5.3l1.1,0.6c1-0.4,2-1.9,3.1-4.5c1-2.6,2-5.4,2.9-8.4c0.9-3,1.7-5.8,2.5-8.3
		c0.8-2.5,1.4-3.9,1.9-4c0.1,0.1,0.2,0.3,0.2,0.6c0,2.3,0.3,4,0.9,5.1c0.6,1.1,1.4,1.8,2.4,2.3c1,0.4,2.2,0.7,3.6,0.7
		c1.4,0,3,0,4.8,0c0.5,0,1.1-0.1,1.9-0.4c0.8-0.6,1.7-1.8,2.9-3.3c1.1-1.6,1.7-2.9,1.7-3.9c0-0.8-0.4-1.5-1.1-2.3
		c-1.3-1.4-2.6-2.6-4.1-3.7s-2.7-2.5-3.7-4.1c-0.5-0.9-0.9-1.8-1.2-2.7c-0.3-0.9-0.7-1.8-1.2-2.7c-0.3-0.5-0.6-1.1-1.1-1.7
		c-0.4-0.6-0.7-1.3-0.7-1.9c0-0.5,0.3-0.9,1-1.1c0.6-0.2,1.4-0.3,2.2-0.4s1.6-0.1,2.4,0c0.8,0.1,1.3,0.1,1.7,0.1l1.1-0.6
		c1.7-3.3,2.8-6.7,3.5-10.2s1.8-6.9,3.3-10.2l1.1-0.6c0.5,0.1,1.5,0.4,3.1,1c1.5,0.5,3.1,1.1,4.7,1.7c1.6,0.6,3,1.3,4.2,2.1
		s1.8,1.4,1.8,1.9c0,1-1,2.1-2.9,3.3c-1.9,1.2-4,2.5-6.4,3.9s-4.5,2.9-6.4,4.6c-1.9,1.7-2.9,3.3-2.9,5c0,1.5,0.6,3.3,1.9,5.4
		c1.3,2,2.8,3.1,4.6,3.1c0.9,0,1.7-0.6,2.4-1.7c0.7-1.1,1.4-2.5,2.1-4s1.3-3,1.9-4.5c0.6-1.5,1.2-2.5,1.8-3.2l1-0.4
		c1.9,0.3,3.8,0.9,5.5,2c1.8,1.1,3.6,1.9,5.4,2.6c3.1,0.9,6.5,1.2,10.2,1.1c3.8-0.2,7.3-0.2,10.6,0.1c1,0.1,2,0.2,2.9,0.3
		c0.9,0.1,1.8,0.1,2.9,0.1c0.9,0,1.9-0.3,3-1.1c1.1-0.7,2.1-1.6,3.1-2.6s1.8-2.1,2.4-3.2s1-2.1,1.1-3l-0.4-1.1
		c-0.4-0.1-1.8-0.3-4.2-0.4s-5.1-0.2-7.9-0.2c-2.9,0-5.6,0-8.2,0c-2.6,0-4.4,0-5.3,0l-1.3-0.6c-0.3-0.3-0.4-0.6-0.4-1
		c0-0.9,0.8-1.5,2.4-1.7c1.6-0.3,3.4-0.4,5.5-0.4c2.1,0,4.1,0.1,6.1,0.2s3.3,0.2,3.9,0.2c0.4,0,0.9-0.4,1.6-1.3
		c0.7-0.9,1.5-1.8,2.3-2.9c0.8-1,1.6-2,2.4-2.9s1.4-1.3,1.9-1.3c0.4,0,1.1,0.4,2.2,1.2s2.2,1.8,3.3,2.9c1.1,1.1,2.2,2.1,3.2,3.1
		s1.4,1.6,1.4,2c0,0.5-0.2,0.9-0.6,1.1s-0.8,0.4-1.2,0.7c-0.4,0.3-0.9,0.6-1.2,1.1c-0.4,0.4-0.6,1.1-0.6,2c0,1.1,0.6,2.1,1.7,3
		c1.1,0.8,2.5,1.5,4.1,2.1c1.6,0.6,3.2,1,4.8,1.2c1.6,0.3,2.8,0.4,3.7,0.4c1.1,0,2-1.2,2.7-3.5c0.6-2.4,1.3-5,1.9-7.8
		c0.6-2.9,1.3-5.5,2-7.8c0.7-2.4,1.6-3.5,2.8-3.5c0.5,0,1.6,0.3,3.2,1c1.6,0.6,3.2,1.4,5,2.2c1.7,0.8,3.2,1.6,4.6,2.4
		c1.3,0.8,2,1.2,2,1.3c0,0.4-1,1.1-2.9,2.3c-1.9,1.1-4,2.5-6.2,4c-2.2,1.5-4.3,3.2-6.2,4.9s-2.9,3.3-2.9,4.7c0,0.4,0.3,1.1,0.8,2.3
		c0.5,1.1,1.1,2.3,1.7,3.5c0.6,1.2,1.3,2.3,1.9,3.3s1.1,1.4,1.5,1.4c0.8,0,1.6-0.7,2.4-2.2c0.8-1.5,1.7-3.1,2.6-4.9s1.8-3.4,2.6-4.9
		s1.6-2.2,2.4-2.2c0.1,0,0.9,0.4,2.2,1.1c1.3,0.7,2.8,1.5,4.5,2.3c1.7,0.8,3.2,1.7,4.5,2.5c1.3,0.8,2.1,1.3,2.4,1.4
		c0.3,0.3,0.4,0.4,0.4,0.6c-0.1,0.6-1.5,1.8-4.1,3.5c-2.6,1.7-5.4,3.7-8.5,5.9c-3.1,2.2-5.9,4.5-8.4,6.8c-2.6,2.3-3.8,4.3-3.8,6.1
		c0,0.8,0.6,1.2,1.7,1.2c1.1,0.1,2,0.1,2.5,0.1s1.5,0,3.1-0.1c1.5-0.1,3.1-0.2,4.7-0.4c1.6-0.2,3-0.5,4.3-1c1.3-0.4,1.9-1,1.9-1.6
		c0-1-0.2-1.9-0.7-2.7c-0.4-0.8-0.7-1.5-0.7-2.3c0-0.4,0.2-0.6,0.7-0.8c0.4-0.1,0.8-0.2,1.1-0.2c1.4,0,2.8,0.4,4.3,1.2
		c1.5,0.8,2.8,1.9,4,3.2c1.2,1.3,2.2,2.7,3,4.2c0.8,1.5,1.1,3,1.1,4.4c0,2.3-0.3,3.7-0.9,4.2s-2,0.8-4.3,0.8c-1.4,0-2.4-0.3-2.9-1.1
		c-0.5-0.7-1-1.5-1.3-2.3c-0.4-0.8-0.8-1.6-1.3-2.3c-0.5-0.7-1.5-1.1-2.9-1.1c-0.9,0-1.8,0.2-2.9,0.7c-1,0.4-1.5,1.2-1.5,2.2v8.7
		c0,0.8,1,1.6,2.9,2.6s4,2.2,6.2,3.6c2.2,1.5,4.3,3.3,6.2,5.4c1.9,2.2,2.9,4.8,2.9,7.8c0,1.8-0.5,3.2-1.5,4.4
		c-1,1.1-2.5,1.7-4.4,1.7c-2.4,0-4-1-4.8-3.1c-0.8-2.1-1.2-4.4-1.4-7c-0.2-2.6-0.5-4.9-0.9-7s-1.4-3.1-3.1-3.1
		c-0.3,0-0.7,0.1-1.2,0.4c-0.6,0.3-1,0.4-1.2,0.6c-0.3,1-0.4,2.8-0.4,5.4s0,5.2,0.1,8s0.1,5.3,0.2,7.6c0.1,2.2,0,3.5-0.3,3.7
		c-0.4,0.4-1.1,0.8-2.1,1.1c-1,0.4-2.1,0.8-3.2,1.2c-1.1,0.4-2,0.9-2.9,1.3c-0.8,0.4-1.2,0.9-1.2,1.4c0,1,0.5,2,1.4,3
		c1,1,2,1.8,3.2,2.7c1.2,0.8,2.3,1.6,3.2,2.4s1.4,1.4,1.4,1.9c0,0.9-0.6,1.6-1.8,2.2s-1.8,1.4-1.8,2.6c0,0.5,0,1.5,0,2.9
		s0,2.9,0,4.4s0,2.9-0.1,4.2c-0.1,1.3-0.2,2-0.3,2.3c-0.5,0.6-1,1.2-1.4,1.6s-0.9,1-1.4,1.6c0.5,0.5,1.6,1.5,3.2,3
		c1.7,1.5,3.4,3,5.2,4.7c1.8,1.7,3.4,3.2,4.9,4.5s2.2,2.2,2.2,2.6c0,0.3-0.2,0.6-0.7,1.1c-0.4,0.4-1,1-1.6,1.5
		c-0.6,0.6-1.2,1.1-1.8,1.6s-0.9,1-1.1,1.3c-0.8,1.5-1.4,3.1-2,4.8c-0.6,1.7-1.2,3.2-2,4.8c-1.7,3.4-3.4,6.2-5.2,8.4
		c-1.8,2.2-3.8,3.9-6.1,5.3c-2.3,1.3-4.8,2.3-7.6,2.8c-2.8,0.5-6.1,0.8-9.8,0.8c-0.3,0-0.6-0.5-1.1-1.6s-1.1-2.3-1.6-3.6
		c-0.6-1.3-1.1-2.6-1.6-3.9C1066.5,414.5,1066.1,413.7,1065.8,413.3z M1103.9,507c1.3,1.4,3,3,4.9,4.9c2,1.9,4.1,3.9,6.4,6.1
		c2.3,2.2,4.4,4.2,6.4,6.1c2,1.9,3.6,3.5,4.9,4.9c1.3,1.4,2,2.3,2,2.7c0,0.3-0.3,0.8-0.9,1.4c-0.6,0.6-1,0.9-1.4,0.9
		c-0.4,0-1.3-0.7-2.7-2s-3-3-4.9-4.9c-1.9-2-3.9-4.1-6.1-6.4c-2.2-2.3-4.2-4.4-6.1-6.4c-1.9-2-3.5-3.6-4.9-4.9c-1.4-1.3-2.3-2-2.7-2
		s-1.3,0.7-2.7,2s-3,3-4.9,4.9c-1.9,2-3.9,4.1-6.1,6.4c-2.2,2.3-4.2,4.4-6.1,6.4c-1.9,2-3.5,3.6-4.9,4.9c-1.4,1.3-2.3,2-2.7,2
		c-0.3,0-0.8-0.3-1.4-0.9c-0.6-0.6-0.9-1-0.9-1.4s0.7-1.3,2-2.7c1.3-1.4,3-3,4.9-4.9c2-1.9,4.1-3.9,6.4-6.1c2.3-2.2,4.4-4.2,6.4-6.1
		s3.6-3.5,4.9-4.9c1.3-1.4,2-2.3,2-2.7c0-0.3-0.7-1.2-2-2.6c-1.4-1.4-3-3.1-5-5.1s-4.2-4.1-6.5-6.3c-2.3-2.2-4.5-4.3-6.5-6.3
		c-2-1.9-3.7-3.6-5-4.9c-1.4-1.4-2-2.2-2-2.4c0-0.4,0.3-0.9,1-1.6c0.7-0.7,1.2-1,1.6-1c0.3,0,1.1,0.7,2.4,2c1.4,1.4,3,3,4.9,5
		c1.9,2,4,4.2,6.3,6.5c2.2,2.3,4.3,4.5,6.3,6.5s3.7,3.7,5.1,5c1.4,1.4,2.3,2,2.6,2s1.2-0.7,2.6-2c1.4-1.4,3.1-3,5.1-5
		s4.1-4.2,6.3-6.5s4.3-4.5,6.3-6.5c1.9-2,3.6-3.7,4.9-5c1.4-1.4,2.2-2,2.4-2c0.4,0,0.9,0.3,1.6,1c0.6,0.7,1,1.2,1,1.6
		c0,0.3-0.7,1.1-2,2.4c-1.4,1.4-3,3-5,4.9s-4.2,4-6.5,6.3c-2.3,2.2-4.5,4.3-6.5,6.3s-3.7,3.7-5,5.1c-1.4,1.4-2,2.3-2,2.6
		C1101.9,504.7,1102.5,505.6,1103.9,507z"/>
	<path class="st2" d="M1086.7,382.7c0.8-0.8,1.3-1.3,1.7-1.7l0.4-1.3l-0.4-1v-0.2c-0.4-0.1-1-0.3-1.9-0.4c-0.9-0.1-1.9-0.2-3-0.2
		c-1.1,0-2.1,0-3.1,0s-1.7,0-2.2,0c-1.1,0-1.9-0.6-2.2-1.7s-1.1-1.8-2.4-2.1c-1.7-0.4-3.3-0.6-5.1-0.6s-3.4,0-5.1,0
		c-4.8-0.1-9.7-0.2-14.5-0.1c-4.8,0.1-9.7,0-14.5-0.3c-2.8-0.1-5.6-0.2-8.4-0.3c-2.8-0.1-5.6-0.1-8.4-0.1c-0.5,0-1.1,0.2-1.7,0.6
		c-0.6,0.4-1.1,0.8-1.3,1.1c-0.8,2.4-1.4,4.4-1.8,5.8c-0.4,1.5-0.8,2.8-1.1,4s-0.5,1.9-0.5,2c0,1.1,0.6,1.7,1.9,1.7h66.7
		c0.5,0,1.2-0.3,2-0.9c0.8-0.6,1.7-1.3,2.5-2.1C1085.1,384.3,1085.9,383.5,1086.7,382.7z"/>
</g>
<g>
	<path class="st0" d="M827.1,152.8l-0.1-0.1l-0.7-0.3h-27.9c-0.3,0-0.6,0.1-1,0.3c-0.4,0.2-0.8,0.3-1.2,0.3c-0.3,0-0.6-0.1-0.9-0.2
		c-0.3-0.1-0.6-0.3-0.9-0.4c-0.1,0.1-0.3,0.1-0.4,0.2c-0.1,0-0.2,0.1-0.4,0.2c-0.3,0.2-0.9,0.7-1.7,1.4c-0.8,0.7-1.6,1.6-2.4,2.4
		c-0.8,0.9-1.6,1.7-2.2,2.6c-0.6,0.8-1,1.4-1,1.8c0,0.7,0.4,1.2,1.2,1.6c0.8,0.4,1.7,0.7,2.7,0.9s2.1,0.3,3.1,0.4
		c1,0.1,1.8,0.1,2.2,0.1c0.8,0,1.2-0.5,1.3-1.5c0-1,0-2.1-0.1-3.3c-0.1-1.2-0.1-2.3-0.1-3.3s0.4-1.5,1.2-1.5c0.1,0,0.4,0.1,0.8,0.2
		c0.5,0.1,1.2,0.2,2.1,0.3c0.9,0,1.8,0.1,2.7,0.2c0.9,0.1,1.7,0.3,2.4,0.5c0.7,0.2,1,0.5,1,1v6.7c0,0.3,0.2,0.5,0.7,0.6
		c0.4,0.1,0.8,0.1,1,0.1c1.3,0,2.4-0.5,3.5-1.4c1.1-0.9,2-1.8,2.8-2.6l0.5-0.2h0.3c0.3,0.2,0.8,0.6,1.6,1.1c0.8,0.5,1.5,1.1,2.3,1.6
		c0.7,0.6,1.4,1.2,2,1.7c0.6,0.6,0.9,1,0.9,1.4c0,0.5-0.3,1-0.9,1.3c-0.6,0.3-0.9,0.7-0.9,1.3c0,0.4,0,1.3,0.1,2.5
		c0,1.3,0.1,2.6,0.1,4s0,2.6-0.1,3.7c-0.1,1.1-0.2,1.8-0.5,2c-0.3,0.2-0.9,0.4-1.6,0.5s-1.4,0.3-2.2,0.5c-0.7,0.2-1.4,0.4-2,0.7
		c-0.6,0.3-0.9,0.6-0.9,1.1c0,0.8,0.5,1.5,1.5,2s2.1,1.1,3.3,1.7c1.2,0.6,2.3,1.3,3.3,2.1s1.5,1.9,1.5,3.3c0,1.8-0.5,3-1.4,3.7
		c-1,0.7-2,1.1-3.2,1.1c-1.2,0.1-2.2-0.1-3.2-0.4c-0.9-0.3-1.4-0.6-1.4-1c0-0.3,0-0.7,0.1-1.3c0.1-0.6,0.1-1.2,0.1-1.8
		s-0.1-1.2-0.3-1.6c-0.2-0.5-0.5-0.7-0.9-0.7c-0.1,0-0.4,0-0.8,0s-0.7,0-0.8,0.1l-23.9,10c-0.5,0.3-1.1,0.7-1.6,1.3
		s-1.1,0.9-1.7,0.9c-0.3,0-0.7-0.5-1.4-1.5c-0.6-1-1.3-2.2-1.9-3.5c-0.6-1.3-1.2-2.6-1.7-3.8s-0.8-2-0.8-2.4s0.1-0.6,0.2-0.7
		c0.1-0.1,0.3-0.1,0.7-0.2c2.1-0.4,4.2-0.6,6.3-0.5c2.1,0.1,4.2,0.1,6.3-0.1c0.7-0.1,1.3-0.1,1.9-0.2c0.6-0.1,1.3-0.1,1.9-0.1
		l0.7-0.3l0.1-0.1l0.3-0.7v-7.7c0-0.5-0.3-0.7-1-0.7c-1.3,0-2.5,0.2-3.7,0.7c-1.2,0.4-2.3,0.9-3.4,1.4s-2.1,1-3.2,1.4
		c-1,0.4-2,0.7-3,0.7c-0.7,0-1-0.3-1-0.9c0-0.8,0-2,0.1-3.7c0-1.7,0.1-3.4,0.1-5.1c0-1.8,0-3.4,0-5s-0.1-2.6-0.3-3.2
		c-0.5-0.4-1-0.5-1.5-0.4s-1,0.3-1.4,0.5c-0.4,0.2-0.7,0.3-1,0.3c-0.3,0-0.4-0.3-0.4-1c0-1.6,0.4-3.1,1.1-4.7
		c0.7-1.6,1.5-3.2,2.3-4.8s1.6-3.3,2.3-5s1.1-3.5,1.1-5.3c0-0.3-0.2-0.5-0.5-0.8c-0.3-0.2-0.7-0.4-1.1-0.6c-0.4-0.2-0.8-0.3-1.2-0.5
		c-0.4-0.1-0.7-0.3-0.9-0.4c-0.1-0.1-0.1-0.7-0.1-1.6c0-0.9,0-2.1-0.1-3.5c0-1.4-0.1-2.9-0.1-4.5s0-3.1,0.1-4.6
		c0-1.5,0.1-2.7,0.1-3.9c0-1.1,0-1.9,0-2.4c0-0.3-0.3-0.5-0.8-0.6s-0.9-0.1-1.2-0.1c-0.6,0-1.4,0.5-2.4,1.5s-2.1,2.1-3.2,3.4
		s-2.2,2.6-3.2,3.8c-1,1.3-1.7,2.1-2.2,2.6l-0.2,0.7c0.1,1,0.3,2.1,0.7,3.1c0.4,1.1,0.9,2.1,1.4,3.2c0.5,1.1,1,2.1,1.5,3.2
		c0.5,1,0.9,2,1.2,3c1.4,4.3,2.2,8.8,2.4,13.4c0.2,4.6,0.4,9.1,0.4,13.6c0,2.1,0,4.4-0.1,6.9c-0.1,2.5-0.3,5-0.7,7.5
		c-0.4,2.5-0.9,5-1.7,7.4c-0.7,2.4-1.8,4.5-3.1,6.3c-1.3,1.8-3,3.3-5,4.4s-4.5,1.7-7.3,1.7c-0.5,0-0.9-0.3-1-1
		c-0.2-1-0.3-1.9-0.4-2.6c-0.1-0.7-0.2-1.5-0.3-2.1c-0.1-0.7-0.4-1.4-0.7-2.1c-0.3-0.7-0.8-1.6-1.5-2.6c-0.1-0.2-0.3-0.4-0.4-0.6
		c-0.1-0.2-0.2-0.4-0.2-0.7s0.2-0.6,0.5-0.7c0.3-0.1,0.6-0.2,0.9-0.3c1.2-0.3,2.2-0.7,3-1.1c0.9-0.4,1.7-1,2.5-1.9
		c1-1.2,1.8-2.4,2.4-3.9c0.6-1.5,1.1-2.9,1.4-4.5s0.5-3.1,0.6-4.7c0.1-1.6,0.2-3.1,0.2-4.6c0-0.4,0-1,0.1-1.8c0-0.8,0.1-1.6,0.1-2.4
		c0-0.8,0-1.6,0-2.3s-0.1-1.3-0.3-1.6c-0.1-0.4-0.3-0.6-0.6-0.6c-0.3,0-0.6,0.1-0.9,0.2c-0.7,0.7-1.8,1.7-3.2,2.9
		c-1.4,1.2-2.9,2.3-4.4,3.5c-1.6,1.1-3.1,2.1-4.6,2.9c-1.5,0.8-2.8,1.3-3.7,1.3c-0.3,0-0.5,0-0.7-0.1s-0.3-0.3-0.3-0.6
		s0.2-0.8,0.5-1.5c0.3-0.6,0.7-1.3,1.1-2s0.8-1.3,1.2-1.9c0.4-0.6,0.7-1.1,0.9-1.4c1.8-2.4,3.7-4.9,5.5-7.3c1.9-2.4,3.5-5,4.8-7.8
		c0.7-1.6,1.3-3.2,1.6-4.8c0.3-1.7,0.5-3.4,0.5-5.1c0-0.5-0.1-1-0.4-1.5c-0.3-0.5-0.7-0.8-1.2-0.8c-1.9,1.4-3.8,2.7-5.7,4.2
		c-1.9,1.4-3.9,2.6-6.1,3.6l-0.3-0.2c0-0.4,0.5-1.2,1.5-2.4s2.1-2.6,3.3-4.2c1.2-1.6,2.3-3.3,3.3-5.1s1.5-3.5,1.5-5.1
		c0-1.3-0.4-2.6-1.1-4c-0.7-1.4-1.5-2.7-2.4-3.9c-0.9-1.2-1.7-2.3-2.3-3.2c-0.7-0.9-1-1.5-0.9-1.9l0.3-0.2c1.4,0.6,2.6,1.4,3.7,2.3
		c1.1,0.9,2.3,1.8,3.4,2.8c0.5,0.4,1,0.8,1.5,1.3c0.4,0.4,1,0.8,1.6,1.1l0.5-0.2l0.5-0.5c0.1-0.4,0.4-1.3,0.8-2.6
		c0.4-1.3,0.8-2.7,1.3-4c0.5-1.4,0.9-2.6,1.4-3.7c0.4-1.1,0.8-1.6,1.2-1.6c0.1,0,0.8,0.4,2,1.1s2.5,1.6,4,2.4
		c1.5,0.9,2.9,1.7,4.2,2.4c1.3,0.7,2.1,1.1,2.4,1.1c0.9,0,1.4-0.3,1.5-0.9c0.1-0.6,0.1-1.3,0-2c-0.1-0.7-0.2-1.3-0.2-1.9
		c0-0.5,0.4-0.7,1.1-0.6c0.3,0.1,0.5,0.2,0.8,0.3c0.3,0.1,0.5,0.2,0.7,0.4c0.2,0.1,0.7,0.3,1.6,0.6c0.8,0.3,1.7,0.6,2.7,0.9
		c0.9,0.3,1.8,0.6,2.6,0.9s1.2,0.4,1.4,0.4h33.2l0.7-0.3c0.2-0.2,0.5-0.5,0.9-1c0.4-0.4,0.8-0.9,1.3-1.3s0.9-0.8,1.4-1.2
		c0.4-0.4,0.8-0.6,1-0.6s0.7,0.3,1.6,0.9c0.9,0.6,1.8,1.3,2.8,2s1.9,1.5,2.7,2.1c0.8,0.7,1.3,1.1,1.4,1.3c0.1,0.3,0.1,0.6,0,0.8
		c-0.1,0.2-0.3,0.3-0.6,0.5c-0.2,0.2-0.5,0.3-0.7,0.5s-0.3,0.4-0.3,0.7v16c0,0.4-0.2,0.7-0.6,1c-0.4,0.2-0.8,0.5-1.3,0.7
		c-0.4,0.2-0.9,0.4-1.3,0.7c-0.4,0.2-0.6,0.6-0.6,1v1l0.3,0.7c0.3,0.3,0.8,0.8,1.7,1.7c0.9,0.8,1.8,1.7,2.7,2.6
		c0.9,0.9,1.7,1.8,2.4,2.5c0.7,0.8,1.1,1.3,1.1,1.5c0,0.1-0.1,0.3-0.3,0.6c-0.2,0.2-0.5,0.5-0.8,0.8c-0.3,0.3-0.6,0.5-0.9,0.8
		s-0.4,0.5-0.5,0.6c-0.1,0.3-0.2,1-0.3,2.1c-0.1,1.1-0.1,2.4-0.2,3.8c0,1.4-0.1,2.7-0.1,4s0,2.1,0,2.6c-0.1,4-0.2,7.9-0.2,11.8
		c0,3.9-0.1,7.8-0.4,11.8c-0.1,2.6-0.5,5-1,7.3s-1.3,4.3-2.5,6s-2.7,3.1-4.6,4.1c-1.9,1-4.4,1.5-7.4,1.5c-0.3,0-0.5-0.2-0.8-0.5
		c-0.2-0.3-0.5-0.7-0.7-1.2c-0.2-0.4-0.4-0.9-0.5-1.3c-0.1-0.4-0.3-0.8-0.4-1c-0.2-0.3-0.5-0.8-1-1.3s-1-1-1.5-1.5s-1-1-1.4-1.5
		s-0.6-0.8-0.6-1.1s0.2-0.5,0.5-0.6c0.3-0.1,0.6-0.1,0.9-0.1c1.9,0,3.6-0.2,5.1-0.7c1.5-0.4,2.7-1.6,3.6-3.5
		c0.4-0.9,0.7-1.9,0.9-2.9c0.2-1,0.3-1.9,0.4-2.9c0.3-4.3,0.4-8.7,0.5-13c0-4.3,0.1-8.6,0.3-13c0.1-1.9,0.2-3.8,0.3-5.6
		c0.1-1.8,0.1-3.7-0.1-5.6L827.1,152.8z M790.1,177.8c0,0.7,0.3,1,1,1h4.8c0.7,0,1-0.3,1-1v-11.5c0-0.7-0.3-1-1-1h-4.8
		c-0.7,0-1,0.3-1,1V177.8z M796.5,150l0.1,0.1c0.1,0.1,0.7,0.1,2,0.2c1.3,0,2.9,0.1,4.8,0.1s4,0,6.4,0.1c2.3,0,4.5,0.1,6.6,0.1
		c2.1,0,3.9,0,5.4,0c1.6,0,2.6,0,3.2,0l0.7-0.3l4.8-4.8l0.3-0.7c0.1-0.7,0-1.3-0.2-1.6c-0.2-0.3-0.5-0.5-0.9-0.6s-0.8-0.1-1.3,0
		s-0.9,0.1-1.4,0.1c-0.3,0-0.6-0.1-0.8-0.4c-0.2-0.2-0.4-0.5-0.6-0.8c-0.2-0.3-0.4-0.6-0.6-0.8s-0.6-0.4-1.1-0.4h-31.8
		c-0.8,0-1.3,0.4-1.4,1.2c-0.1,0.8-0.1,1.5,0.1,2c0.1,0.2,0.5,0.4,1.3,0.7c0.8,0.3,1.7,0.6,2.6,0.9c0.9,0.3,1.8,0.6,2.6,1
		c0.8,0.3,1.3,0.6,1.3,0.9c-0.5,0.5-0.9,0.8-1.4,0.9c-0.5,0.1-0.8,0.5-1.1,1.4L796.5,150z M791.1,121.5c-0.1,0.1-0.1,0.2-0.2,0.3
		c-0.1,0.1-0.1,0.2-0.1,0.3v15c0,0.7,0.3,1,1,1h4.1c0.7,0,1-0.3,1-1v-14.5c0-0.6-0.2-1-0.6-1.2c-0.4-0.2-0.9-0.3-1.4-0.3h-3
		L791.1,121.5z M805,137.2c0,0.7,0.3,1,1,1h4.1c0.7,0,1-0.3,1-1v-14.5c0-0.5-0.3-1-1-1.3c-0.6-0.3-1.3-0.5-2.1-0.5
		c-0.7,0-1.4,0.1-2.1,0.4c-0.6,0.3-1,0.7-1,1.3L805,137.2L805,137.2z M806.7,187.9c0.1,0.1,0.3,0.2,0.8,0.3c0.5,0,1,0.1,1.6,0.1
		c0.6,0,1.1,0.1,1.6,0.1s0.9,0,1.1,0c0.5,0,0.7-0.3,0.7-1c0-0.8,0-1.6-0.1-2.5c0-0.8-0.2-1.6-0.5-2.3c-0.3-0.7-0.7-1.2-1.3-1.7
		c-0.6-0.4-1.4-0.7-2.5-0.7c-0.5,0-0.8,0.3-1.1,0.9c-0.2,0.6-0.4,1.3-0.5,2.1s-0.2,1.6-0.2,2.4c0,0.8-0.1,1.3-0.1,1.7L806.7,187.9z
		 M811.7,165.9c0-0.3-0.2-0.5-0.5-0.6s-0.6-0.1-0.9-0.1c-0.2,0-0.5,0-0.8-0.1c-0.3,0-0.7,0-1.1,0c-0.4,0-0.7,0.1-1,0.2
		c-0.3,0.1-0.4,0.3-0.4,0.6v12.2c0,0.3,0.2,0.5,0.7,0.6s1,0.2,1.6,0.2c0.6,0,1.2-0.1,1.6-0.2c0.5-0.1,0.7-0.3,0.7-0.6L811.7,165.9
		L811.7,165.9z M825,121.4c-0.3-0.1-1-0.2-1.9-0.2c-1,0-1.6,0-2,0c-0.3,0-0.7,0.2-1,0.5c0,0.1,0,0.1-0.1,0.2c0,0.1-0.1,0.1-0.1,0.2
		v15c0,0.7,0.3,1,1,1h3.5c0.4,0,0.7-0.1,0.8-0.3c0.1-0.2,0.2-0.4,0.2-0.8v-15L825,121.4z"/>
	<path class="st0" d="M848.7,202.9l-0.2-0.3c0.1-0.1,0.2-0.1,0.3-0.1h51.8c0.1,0,0.2,0,0.3,0.1c0,0.2-0.1,0.4-0.4,0.5
		c-0.2,0.1-0.4,0.2-0.6,0.2h-50.6L848.7,202.9z M926.3,126.1c0.4,0.4,1.3,1.1,2.7,2.1c1.4,1,2.8,2.1,4.3,3.3s2.8,2.2,3.9,3.2
		c1.2,1,1.7,1.6,1.7,2c0,0.2-0.2,0.4-0.6,0.6c-0.4,0.2-0.6,0.3-0.8,0.3h-84c-0.3,0-0.5-0.2-0.5-0.5s0.2-0.5,0.5-0.5h33.8
		c0.7,0,1-0.3,1-1v-19.3c0-0.7,0.3-1,1-1c0.9,0,2.1,0,3.4,0.1c1.3,0,2.6,0.1,4,0.2c1.4,0.1,2.7,0.2,3.9,0.4c1.3,0.2,2.3,0.4,3.2,0.7
		c0.7,0.2,0.9,0.4,0.8,0.7c-0.1,0.2-0.4,0.5-0.8,0.8s-0.8,0.6-1.3,0.9c-0.4,0.3-0.7,0.7-0.7,1.1v15.2c0,0.7,0.3,1,1,1h13.9
		c1,0,1.9-0.5,2.6-1.5s1.5-2.1,2.1-3.3c0.7-1.2,1.3-2.4,2-3.5c0.6-1.1,1.3-1.7,2.1-1.9L926.3,126.1z M867.7,146.3
		c0.7,0.3,1.5,0.8,2.1,1.5c0.7,0.7,1.3,1.3,1.8,1.9c2.4,2.4,4.5,4.8,6.4,7.2s3.5,4.8,4.9,7.4c1.4,2.5,2.4,5.3,3.1,8.2
		s1.1,6.1,1.1,9.7c0,1-0.1,2.2-0.3,3.6c-0.2,1.4-0.5,2.6-1,3.8s-1.1,2.2-2,3c-0.8,0.8-1.9,1.3-3.3,1.3c-0.5,0-1-0.1-1.7-0.3
		c-0.6-0.2-1.3-0.4-1.9-0.7s-1.2-0.6-1.7-1s-0.9-0.8-1.1-1.3c-0.1-0.2-0.2-0.7-0.3-1.5c-0.1-0.8-0.1-1.6-0.2-2.5
		c-0.1-0.9-0.1-1.7-0.2-2.5s-0.1-1.4-0.1-1.7c-0.2-2.8-0.4-5.5-0.7-8.2s-0.7-5.4-1.2-8.1c-0.6-3.2-1.4-6.4-2.5-9.5
		c-1.1-3.2-1.6-6.4-1.7-9.7L867.7,146.3z M910.5,143.6l11.2,2.6c0.8,0.2,1.6,0.4,2.5,0.6c0.8,0.2,1.7,0.4,2.5,0.7
		c0.2,0.1,0.4,0.2,0.6,0.3c0.2,0.1,0.3,0.3,0.3,0.6c0,0.1-0.1,0.4-0.4,0.7c-0.2,0.3-0.5,0.6-0.8,1s-0.6,0.7-0.9,1.1
		c-0.3,0.3-0.5,0.6-0.6,0.7c-0.7,1.2-1.3,2.4-1.7,3.7c-0.4,1.3-0.8,2.6-1.4,3.9c-2,5.2-4.2,10.3-6.6,15.4c-2.3,5-4.7,10.1-7.1,15.1
		c-0.2,0.4-0.5,1.1-1,2.2c-0.5,1.1-1,2.1-1.6,3.3c-0.6,1.1-1.2,2.1-1.8,3c-0.6,0.9-1,1.3-1.4,1.3c-0.3,0-0.4-0.2-0.5-0.5
		c-0.1-0.3-0.1-0.5-0.1-0.7c0-1.9,0.2-3.8,0.5-5.6s0.7-3.7,1-5.5c1.4-7.3,2.5-14.5,3.6-21.7c1.1-7.2,2-14.5,3-21.8L910.5,143.6z
		 M929.8,192c1.6,1.2,3.1,2.4,4.6,3.7c1.5,1.2,3.1,2.4,4.6,3.6c0.6,0.5,1.2,0.9,1.8,1.3c0.6,0.4,1.2,0.9,1.7,1.4
		c0,0.9-0.4,1.3-1.2,1.3h-36.2c-0.3,0-0.5-0.2-0.5-0.5s0.2-0.5,0.5-0.5h14.7c0.6,0,1.3-0.5,2.1-1.5c0.8-1,1.6-2.1,2.5-3.3
		c0.9-1.2,1.7-2.4,2.5-3.5c0.8-1.1,1.5-1.8,2.1-2.2L929.8,192z"/>
	<path class="st0" d="M978.7,151.3c0.3-0.3,0.5-0.8,0.5-1.3c0-0.2-0.2-0.8-0.5-1.9c-0.3-1.1-0.7-2.3-1.2-3.8s-1-3.1-1.6-4.8
		c-0.6-1.7-1.1-3.3-1.6-4.7c-0.5-1.5-0.9-2.7-1.3-3.7s-0.6-1.5-0.7-1.7c-0.1-0.1-0.3-0.3-0.5-0.5s-0.4-0.3-0.6-0.5
		c-0.2-0.1-1-0.2-2.4-0.3c-1.4,0-3-0.1-4.7-0.1s-3.3,0-4.9,0.1c-1.6,0-2.6,0.1-3.1,0.1s-0.7-0.2-0.7-0.7c0-0.4,0.2-0.6,0.7-0.6
		c5.3,0,10.6,0,15.9,0.1c5.3,0.1,10.6,0,15.9-0.1c0.1,0,0.3,0,0.8,0c0.4,0,0.7,0,0.8-0.1c0.1-0.1,0.3-0.4,0.4-0.7
		c0.1-0.3,0.2-0.6,0.2-0.8c0-1.8-0.1-3.5-0.4-5.3c-0.2-1.8-0.4-3.6-0.4-5.3c0-0.7,0.3-1,1-1c2.2,0,4.5,0.1,6.8,0.2
		c2.3,0.1,4.5,0.4,6.7,1c0.3,0.1,0.5,0.1,0.7,0.2c0.2,0.1,0.3,0.3,0.3,0.6c0,0.5-0.2,0.9-0.7,1.2c-0.4,0.3-0.7,0.7-0.7,1.2v7.5
		c0,0.7,0.3,1,1,1h16c0.8,0,1.5-0.5,2.1-1.4s1.1-2,1.7-3.1c0.5-1.1,1.1-2.2,1.7-3.1c0.6-1,1.3-1.4,2.1-1.4c0.3,0,1,0.5,2.3,1.4
		c1.3,1,2.6,2,4,3.2s2.6,2.3,3.7,3.4c1.1,1.1,1.6,1.8,1.6,2.1c0,0.2-0.1,0.3-0.4,0.4c-0.2,0.1-0.4,0.1-0.6,0.1h-22.7
		c-0.2,0-0.5,0.1-0.8,0.4c-0.3,0.3-0.5,0.5-0.5,0.7c0,0.6,0.6,1.2,1.7,1.7s2.4,1,3.7,1.4c1.4,0.4,2.6,0.8,3.8,1.2s1.8,0.7,1.8,1
		c-0.8,0.5-1.6,1.1-2.4,1.6c-0.8,0.5-1.6,1.2-2.3,1.8c-0.9,0.9-2.1,2-3.3,3.3c-1.3,1.3-2.6,2.5-3.9,3.8c-1.4,1.2-2.8,2.3-4.2,3.2
		c-1.5,0.9-2.9,1.3-4.2,1.3l-0.4-0.4c0-2.4,0.4-4.9,1.3-7.3c0.9-2.4,1.7-4.8,2.5-7.1c0.3-0.9,0.7-1.8,1-2.8c0.3-1,0.5-2,0.5-2.9
		c0-0.3-0.1-0.6-0.4-0.8s-0.6-0.3-1-0.3s-0.8,0-1.2,0s-0.7,0.1-0.9,0.1c-3.9,0-7.8,0.1-11.7,0.3s-7.8,0.3-11.7,0.3c-0.3,0-1,0-2-0.1
		s-2.1-0.1-3.2-0.1c-1.1,0-2.1,0.1-2.9,0.3s-1.2,0.5-1.1,1c0.7,1,1.6,1.8,2.6,2.4c1,0.6,2.1,1.1,3.3,1.5s2.3,0.8,3.5,1.2
		s2.2,0.9,3,1.6c0.9,0.7,1.6,1.6,2.2,2.6c0.6,1.1,0.9,2.5,0.9,4.3c0,1.2-0.4,2.6-1.1,4.1s-1.4,2.9-1.9,4c-0.1,0.3-0.3,0.5-0.4,0.7
		s-0.4,0.3-0.7,0.3h-32.7c-0.3,0-0.5-0.2-0.5-0.5s0.2-0.5,0.5-0.5c4.4,0,8.8,0.1,13.1,0.2C970,151.7,974.3,151.6,978.7,151.3z
		 M1030.7,167.4v0.3l-0.2,0.5c-0.4,0.3-1.1,0.7-1.9,1.2c-0.9,0.5-1.3,1-1.3,1.6v32.3c0,0.8-0.7,1.5-2,2.2c-1.3,0.6-2.8,1.1-4.4,1.5
		c-1.6,0.3-3.2,0.5-4.7,0.5s-2.4-0.3-2.6-0.8c-0.2-0.3-0.3-1.3-0.4-3.2c-0.1-1.8-0.1-4.1-0.1-6.7c0-2.6,0-5.4,0.1-8.4
		c0-3,0.1-5.9,0.1-8.7s0.1-5.3,0.1-7.4c0-2.1,0.1-3.6,0.1-4.5c0-0.7-0.3-1-1-1h-30.1c-0.7,0-1,0.3-1,1v30.5c0,0.7,0.3,1,1,1h28.3
		c0.3,0,0.5,0.2,0.5,0.5s-0.2,0.5-0.5,0.5h-28.6c-0.1,0-0.3,0.2-0.4,0.7c-0.1,0.4-0.3,0.9-0.5,1.5s-0.4,1.2-0.6,1.7
		c-0.2,0.6-0.4,1-0.6,1.2c-0.4,0.5-1.1,1-2,1.3s-1.9,0.6-2.9,0.8c-1.1,0.2-2.1,0.4-3.1,0.5s-1.9,0.2-2.5,0.2c-0.7,0-1-0.3-1-1
		c0-7.8-0.1-15.5-0.3-23.1s-0.3-15.3-0.3-23.1c0-0.7,0.3-1,0.8-1c0.4,0,1.1,0.3,2.1,0.8s2.1,1.1,3.4,1.7s2.5,1.2,3.8,1.7
		s2.4,0.8,3.5,0.8l29.2,0.7c0.3,0,0.9-0.4,1.7-1.1c0.8-0.7,1.7-1.6,2.5-2.5c0.9-0.9,1.7-1.7,2.4-2.5c0.7-0.7,1.3-1.1,1.5-1.1
		c0.3,0,1,0.4,2.1,1.2c1,0.8,2.2,1.7,3.5,2.7c1.3,1,2.5,2,3.6,3c1.2,1,2,1.6,2.6,1.9L1030.7,167.4z M983.6,182.2h27l0.3,0.3
		l-0.3,0.4h-27l-0.4-0.4L983.6,182.2z M992.5,152.4c-0.3,0-0.7,0-1.1-0.1c-0.4,0-0.7-0.2-1.1-0.4c0.1-0.3,0.7-0.4,1.8-0.5
		c1-0.1,2.2-0.1,3.6-0.1c1.3,0,2.6,0.1,3.8,0.2c1.2,0.1,1.9,0.1,2.3,0.1c0.1,0,0.3,0,0.6,0.1c0.2,0.1,0.4,0.2,0.4,0.4l-0.3,0.2h-10
		V152.4L992.5,152.4z M1031.3,141.8c0.3,0.2,1.2,0.8,2.4,1.8c1.3,1,2.6,2.1,4.1,3.2c1.4,1.2,2.7,2.2,3.8,3.2s1.7,1.6,1.7,1.8
		s-0.1,0.4-0.4,0.5c-0.2,0.1-0.4,0.2-0.6,0.2c-3.9,0-7.8,0-11.7,0.1c-3.9,0-7.8,0.1-11.7,0.1c-0.5,0-1.3,0-2.4,0.1
		c-1.1,0-2.1,0.1-3.3,0.1c-1.2,0-2.2,0-3.2-0.1c-1,0-1.8-0.1-2.2-0.3c0.3-0.3,1.2-0.6,2.6-0.7c1.4-0.1,2.9-0.2,4.6-0.2
		c1.7,0,3.3-0.1,4.9-0.2c1.6-0.1,2.8-0.2,3.5-0.4c0.5-0.4,1.1-1.1,1.8-2.1s1.5-2,2.2-3c0.8-1,1.5-1.9,2.2-2.7
		C1030.4,142.2,1030.9,141.8,1031.3,141.8z"/>
	<path class="st0" d="M1056.9,167.7c-0.3-0.5-0.7-1.3-1.4-2.4c-0.6-1.1-1.3-2.3-2-3.5s-1.3-2.3-1.8-3.4c-0.5-1-0.8-1.7-0.9-2
		c0.1-0.1,0.6-0.2,1.5-0.2c0.8,0,1.8,0,2.8,0.1c1,0,2,0.1,2.9,0.1s1.6-0.1,2-0.3c0.5-0.3,0.9-0.7,1.2-1c0.1-0.2,0.5-1,1.2-2.5
		c0.6-1.5,1.3-3,2-4.7s1.3-3.3,1.9-4.7c0.5-1.5,0.8-2.3,0.8-2.5c0-0.4-0.2-0.6-0.7-0.7c-0.4-0.1-0.9-0.1-1.5-0.1
		c-0.5,0-1.1,0.1-1.7,0.3c-0.6,0.1-1,0.2-1.2,0.2c-1.2,0-2.3-0.5-3.3-1.4s-1.8-2.1-2.5-3.5c-0.7-1.4-1.2-2.8-1.6-4.2
		c-0.4-1.5-0.6-2.7-0.6-3.7c0-0.5,0.3-0.8,1-0.8c0.7,0,1.4,0.1,2.3,0.4c0.8,0.2,1.7,0.5,2.5,0.8c0.8,0.3,1.4,0.4,1.8,0.4
		c0.5,0,0.9-0.6,1.3-1.9c0.4-1.3,0.7-2.8,1-4.5c0.3-1.7,0.5-3.3,0.7-4.9c0.2-1.6,0.3-2.6,0.4-3.2l0.4-0.3l0.4,0.1
		c0.4,0.1,1.2,0.4,2.4,0.9s2.4,1,3.7,1.5s2.4,1.1,3.4,1.6s1.5,0.9,1.5,1.2c0,0.4-0.2,0.7-0.6,0.9c-0.4,0.2-0.8,0.3-1.1,0.5
		c-0.1,0.1-0.7,0.5-1.6,1.4c-1,0.9-2,1.8-3.1,2.8s-2.1,2-3,2.8c-0.9,0.9-1.4,1.4-1.5,1.5c-0.2,0.3-0.2,0.8-0.1,1.5s0.4,1.4,0.7,2.1
		c0.3,0.7,0.7,1.3,1.1,1.8c0.4,0.5,0.8,0.8,1.3,0.8s0.9-0.3,1.3-0.8c0.4-0.5,0.7-1.2,1-1.9c0.3-0.7,0.6-1.4,0.8-2.2
		c0.2-0.7,0.4-1.3,0.6-1.6l0.5-0.3c0.5,0,1.1,0.2,2,0.6c0.8,0.4,1.7,0.9,2.6,1.5c0.9,0.6,1.8,1.1,2.5,1.7c0.8,0.6,1.3,1,1.7,1.4
		l0.2,0.5c-0.3,1-0.9,2.1-1.8,3.3s-2,2.5-3.3,3.7c-1.3,1.3-2.7,2.6-4.2,3.9c-1.5,1.3-2.9,2.6-4.2,3.8c-1.3,1.2-2.5,2.3-3.5,3.4
		c-1,1-1.6,2-2,2.8l0.4,0.4h7.7c0.6,0,0.9-0.3,0.8-1.1c-0.1-0.7-0.2-1.5-0.4-2.4c-0.2-0.9-0.3-1.7-0.4-2.4c-0.1-0.7,0.2-1.1,0.9-1.1
		c0.7,0,1.5,0.3,2.4,0.9c0.8,0.6,1.7,1.4,2.5,2.2c0.8,0.8,1.7,1.5,2.5,2.2c0.8,0.6,1.7,0.9,2.5,0.9c0.4,0,0.8-0.2,1.1-0.6
		c0.1-0.1,0.2-0.6,0.3-1.5s0.2-2.1,0.3-3.6c0.1-1.5,0.2-3,0.3-4.7s0.2-3.2,0.3-4.8c0.1-1.5,0.2-2.9,0.3-4s0.1-1.9,0.1-2.2
		c0-2-0.2-3.9-0.7-5.8c-0.4-1.9-0.7-3.8-0.8-5.8l0.4-0.3c0.4-0.1,1,0.1,1.9,0.6s1.8,1,2.8,1.6s1.9,1.2,2.8,1.7
		c0.9,0.5,1.6,0.8,2.1,0.8c0.3,0,0.5-0.1,0.6-0.3c0.1-0.2,0.1-0.8,0.2-1.8c0-1,0.1-2.1,0.1-3.4c0-1.2,0-2.4,0-3.5s0-1.9,0-2.3
		c0-0.7,0.3-1.1,0.9-1.1s1.4,0.1,2.3,0.2c0.9,0.1,1.9,0.2,2.8,0.4c1,0.2,1.9,0.3,2.9,0.5c0.9,0.2,1.7,0.3,2.3,0.5
		c0.2,0.1,0.4,0.1,0.6,0.2c0.2,0,0.3,0.2,0.3,0.5c-0.2,0.3-0.9,1-2,1.9s-2.3,1.9-3.5,2.9c-1.2,1.1-2.2,2-3.1,2.9
		c-0.9,0.9-1.3,1.5-1.1,1.9c0.2,0.5,0.6,0.7,1.3,0.8c0.7,0,1.2,0.1,1.6,0.1c1,0,1.9-0.3,2.7-0.8c0.8-0.5,1.5-1.1,2.1-1.7
		s1.1-1.2,1.6-1.7c0.4-0.5,0.8-0.8,1.1-0.8c0.3,0,0.9,0.4,2,1.3c1,0.8,2.2,1.8,3.6,2.8c1.3,1.1,2.7,2,4.1,2.8
		c1.4,0.8,2.6,1.3,3.5,1.3c1.1,0,1.9-0.8,2.4-2.4c0.5-1.6,0.9-3.3,1.2-5.2c0.3-1.9,0.5-3.6,0.8-5.2c0.3-1.6,0.7-2.4,1.4-2.4
		c0.1,0,0.7,0.3,1.8,0.8c1,0.5,2.2,1.1,3.5,1.7c1.3,0.6,2.4,1.2,3.5,1.8c1.1,0.6,1.6,0.9,1.8,1.1c0.1,0.1,0.1,0.2,0.2,0.3
		c0.1,0,0.1,0.1,0.2,0.3c-0.1,0.3-0.7,0.7-1.9,1.4c-1.2,0.6-2.5,1.4-3.9,2.3s-2.8,1.8-4.1,2.7c-1.3,1-2.1,1.9-2.3,2.7l0.1,0.6
		c0.2,0.2,0.5,0.6,0.9,1.1s0.8,1,1.2,1.6c0.4,0.5,0.9,1,1.3,1.4s0.7,0.6,1,0.6c0.7,0,1.2-0.2,1.6-0.7c0.4-0.4,0.7-1,0.9-1.6
		c0.2-0.6,0.4-1.3,0.6-1.9c0.2-0.7,0.4-1.2,0.8-1.6l0.4-0.2c0.3,0.1,0.9,0.3,1.8,0.8c0.9,0.5,2,1,3,1.6c1.1,0.6,2.1,1.2,3.2,1.8
		c1,0.6,1.7,1,2.1,1.2l0.3,0.5c0,0.1-0.1,0.2-0.2,0.3c-0.1,0.1-0.2,0.2-0.4,0.3c-1.9,1.6-3.8,3.3-5.7,5.1c-2.3,2.2-4.6,4.3-6.9,6.4
		c-2.3,2.1-4.5,4.3-6.6,6.7c0,0.1,0,0.2-0.1,0.4c-0.1,0.2-0.1,0.3-0.1,0.4c0,0.6,0.4,0.9,1.1,0.9c0.7,0,1.2,0,1.6,0
		c0.3,0,0.7,0,1.4,0s1.4-0.1,2.2-0.2c0.8-0.1,1.5-0.1,2.1-0.2c0.6-0.1,1-0.1,1.2-0.2c0.5-0.3,0.7-0.7,0.6-1.3s-0.3-1.2-0.5-1.9
		c-0.2-0.7-0.3-1.2-0.4-1.8c0-0.5,0.3-0.8,1-0.8c1.2,0,2.4,0.3,3.8,1c1.4,0.7,2.6,1.5,3.8,2.5c1.2,1,2.1,2.2,2.9,3.4
		c0.8,1.3,1.2,2.5,1.2,3.7c0,1.6-0.5,2.9-1.6,4.2c-1.1,1.2-2.4,1.8-4.1,1.8c-1.5,0-2.7-0.4-3.6-1.3c-0.9-0.9-1.3-2.1-1.3-3.6
		c0-0.1,0-0.4,0-0.9c0-0.4,0-0.9,0-1.4s0-0.9-0.1-1.3c-0.1-0.4-0.2-0.6-0.4-0.6h-0.9c-0.7,0.3-1.6,0.9-2.9,2
		c-1.2,1.1-2.5,2.2-3.8,3.5c-1.3,1.2-2.5,2.3-3.5,3.3s-1.7,1.5-1.9,1.5c-0.2,0-0.4-0.1-0.6-0.3c-0.2-0.2-0.4-0.3-0.5-0.5
		c-0.5-1.6-1.3-3-2.2-4.3s-1.7-2.7-2.4-4.2l0.1-0.6c0.3-0.4,0.6-0.7,1-0.8c0.4-0.1,0.8-0.2,1.3-0.3s1-0.2,1.5-0.4s1-0.5,1.4-1.1
		c0.1-0.2,0.5-0.9,1.1-2s1.2-2.3,1.8-3.6c0.6-1.3,1.2-2.5,1.7-3.6s0.8-1.7,0.8-1.8c0-0.4,0-0.7-0.1-0.9c0-0.2-0.3-0.3-0.7-0.5
		c-0.9-0.3-1.7-0.5-2.6-0.6c-0.8,0-1.7-0.3-2.6-0.7c-1.1-0.5-1.8-1.3-2.1-2.4c-0.2-1-0.4-2.1-0.5-3.2c-0.1-1.1-0.3-2.1-0.6-3
		s-1.1-1.6-2.3-2c-0.3,0.1-0.7,0.3-1.2,0.6c-0.4,0.3-0.7,0.7-0.7,1.1v29.2c0,0.4-0.4,0.7-1.3,1c-0.9,0.3-1.8,0.5-2.9,0.7
		s-2.1,0.3-3.2,0.3c-1,0-1.7,0.1-2,0.1l-0.6-0.3c-0.1-0.4-0.2-0.9-0.5-1.5c-0.3-0.6-0.6-0.9-1.2-0.9h-6.8c-0.3,0-0.7,0.3-1.3,0.8
		c-0.6,0.5-1.3,1.1-2.2,1.7c-0.9,0.6-1.8,1.2-2.9,1.7c-1.1,0.5-2.1,0.8-3.2,0.8c-0.7,0-1.2-0.1-1.5-0.2c-0.3-0.1-0.5-0.3-0.7-0.5
		c-0.1-0.2-0.3-0.4-0.4-0.5s-0.4-0.2-0.7-0.2c-0.3,0-0.6,0.1-1,0.4c-0.4,0.3-0.8,0.6-1.3,0.9c-0.5,0.4-1,0.7-1.5,0.9
		c-0.5,0.3-1,0.4-1.6,0.4c-0.2,0-0.5-0.1-1-0.2c-0.4-0.1-0.9-0.3-1.3-0.5s-0.8-0.4-1.2-0.7c-0.4-0.2-0.6-0.5-0.6-0.7
		c0-0.3,0-0.8,0.1-1.6c0-0.8,0-1.5,0-2.3c0-0.7-0.2-1.4-0.4-2c-0.2-0.6-0.5-0.9-1-0.9c-0.4,0-1.3,0.5-2.6,1.6
		c-1.3,1.1-2.7,2.2-4.3,3.6c-1.5,1.3-3,2.6-4.4,3.7c-1.4,1.2-2.4,1.8-3,2L1056.9,167.7z M1079.8,175.8l0.1,0.2l-0.1,0.2
		c-1.6,0.3-3.2,0.5-4.8,0.6c-1.6,0-3.2,0.1-4.8,0.2c-2.8,0.1-5.7,0.2-8.5,0.2c-2.8,0-5.7,0-8.5,0c-0.7,0-1.1-0.3-0.9-0.8
		c0.1-0.5,0.4-0.8,0.8-0.8h26L1079.8,175.8z M1108.3,167.4c-0.3,0.5-0.7,0.8-1.2,1c-0.4,0.2-0.8,0.4-1.2,0.8c-0.2,0.2-0.3,0.5-0.4,1
		c-0.1,0.4-0.1,0.9-0.1,1.4s0,1,0.1,1.5c0,0.5,0.1,0.9,0.1,1.2s-0.1,0.6-0.2,0.7c-0.1,0.1-0.4,0.2-0.6,0.3c-0.2,0.1-0.4,0.3-0.6,0.5
		s-0.2,0.6-0.2,1.1c0,3.4,0.2,6.7,0.7,10s0.7,6.6,0.7,10c0,0.4,0,1.1,0,1.9s0,1.8,0,2.7s0,1.8-0.1,2.6s-0.1,1.3-0.2,1.5
		c-0.3,0.7-1,1.2-1.9,1.6c-0.9,0.4-1.9,0.6-3,0.8s-2.2,0.3-3.3,0.3c-1.1,0-2,0.1-2.6,0.1c-0.4,0-0.9,0-1.5,0s-0.9-0.3-0.9-1v-19.5
		c0-0.6-0.3-0.8-1-0.7c-0.3,0.1-0.7,0.3-1.2,0.7s-1.1,0.8-1.6,1.3c-0.6,0.5-1.1,0.9-1.7,1.4c-0.5,0.4-1,0.8-1.3,1
		c-1.8,1.2-3.9,2.6-6.3,4.1c-2.3,1.5-4.8,2.9-7.4,4.1c-2.6,1.3-5.2,2.3-7.7,3.2c-2.6,0.8-5,1.3-7.2,1.3c-0.1,0-0.4,0-0.7-0.1
		c-0.3,0-0.5-0.2-0.5-0.5s0.5-0.8,1.5-1.6s2.1-1.6,3.3-2.5c1.2-0.9,2.4-1.7,3.6-2.5c1.2-0.8,1.9-1.3,2.3-1.7
		c1.8-1.6,3.5-3.5,5.2-5.7c1.7-2.3,3.5-4.4,5.3-6.5c1.9-2.1,3.9-3.8,6-5.3s4.6-2.2,7.3-2.2c0.5,0,1,0,1.3-0.1c0.3,0,0.6-0.4,0.7-1
		c0.1-0.3,0.1-0.8,0.1-1.6s-0.1-1.7-0.1-2.6c0-0.9,0-1.7,0-2.5c0-0.7,0.1-1.2,0.3-1.3c0.3-0.3,0.8-0.5,1.3-0.5s1,0.1,1.5,0.1
		c0.8,0,1.8,0,3-0.1c1.2,0,2.5,0,3.8,0.1c1.3,0.1,2.6,0.2,3.7,0.3c1.2,0.1,2.1,0.4,2.7,0.7L1108.3,167.4z M1093.7,156.8
		c0,0.7,0.3,1,1,1h7.5c0.7,0,1-0.3,1-1v-28.5c0-0.7-0.3-1-1-1h-7.5c-0.7,0-1,0.3-1,1V156.8z M1099.8,142.2c0.1,0,0.3,0,0.6,0.1
		c0.2,0.1,0.4,0.2,0.4,0.3s-0.2,0.2-0.5,0.3c-0.3,0-0.6,0.1-0.7,0.1s-0.4,0-0.8,0c-0.4,0-0.8,0-1.2,0s-0.8,0-1.1-0.1
		s-0.5-0.2-0.5-0.3s0.1-0.2,0.3-0.3c0.2,0,0.4-0.1,0.5-0.1H1099.8z M1135.2,203.6c-0.2,0-0.4,0-0.5-0.1c-0.8-0.3-1.7-0.7-2.5-1.2
		c-0.9-0.5-1.7-0.9-2.4-1.3c-1.4-0.8-3.2-2-5.5-3.6c-2.3-1.6-4.7-3.3-7-5.2c-2.3-1.9-4.3-3.8-6-5.8c-1.7-2-2.5-3.8-2.5-5.5
		c0-0.7,0.2-1,0.7-1s1.5,0.3,3.1,0.9c1.6,0.6,3.3,1.2,5.1,2c1.8,0.7,3.6,1.5,5.3,2.2c1.7,0.7,3,1.2,3.9,1.4c2.8,0.7,5.6,1.2,8.5,1.4
		s5.6,0.9,8.3,2c0.1,0.1,0.3,0.2,0.5,0.3c0.2,0.1,0.3,0.3,0.3,0.5s-0.2,0.5-0.5,0.8c-1.1,1.2-2.2,2.3-3.2,3.5
		c-1.1,1.2-1.9,2.5-2.7,3.8c-0.3,0.7-0.6,1.4-0.9,2.1c-0.3,0.7-0.6,1.5-1,2.1C1135.9,203.3,1135.6,203.5,1135.2,203.6z
		 M1145.3,175.8c0,0.3-0.2,0.6-0.7,0.7c-0.5,0.1-1,0.2-1.6,0.3s-1.2,0.1-1.8,0.1c-0.6,0-1,0-1.2,0c-0.4,0-1.4,0-3,0s-3.5,0-5.6,0.1
		c-2.2,0-4.5,0-7,0s-4.8-0.1-7-0.2c-2.2-0.1-4-0.2-5.6-0.3c-1.6-0.1-2.5-0.3-2.8-0.5c0.1-0.1,0.3-0.3,0.6-0.4
		c0.3-0.1,0.5-0.2,0.7-0.2h14.6c0.9,0,1.9-0.5,2.7-1.4c0.9-0.9,1.7-2,2.4-3.1c0.7-1.1,1.4-2.2,1.9-3.1c0.5-0.9,1-1.4,1.3-1.4
		c0.3,0,1,0.4,2.1,1.3c1.2,0.8,2.4,1.8,3.7,2.9c1.3,1.1,2.6,2.1,3.8,3.2C1144.1,174.8,1144.9,175.5,1145.3,175.8z"/>
</g>
<g>
	<text transform="matrix(0.997 -7.708000e-02 7.708000e-02 0.997 671.1248 75.4475)" class="st0 st4 st5">Indie Pop Music</text>
	<text transform="matrix(0.997 -7.708000e-02 7.708000e-02 0.997 899.9363 57.7576)" class="st4 st5"> </text>
	<text transform="matrix(0.997 -7.708000e-02 7.708000e-02 0.997 908.3111 57.1102)" class="st2 st4 st5">Index of TAIWAN</text>
</g>
<rect x="131" y="561" class="st0" width="419" height="21.1"/>
<rect x="98" y="433" class="st1" width="419" height="161.1"/>
<g>
	<path class="st3" d="M269.8,398.2h-40.1c-1.3,0-1.9,0.6-1.9,1.9v15.3c0,1.3,0.6,1.9,1.9,1.9h29.8c0.8,0,1.8-0.5,3.2-1.4
		c1.4-1,2.8-2.1,4.2-3.5c1.4-1.4,2.7-2.9,3.9-4.6c1.2-1.7,2.1-3.2,2.6-4.6s0.5-2.6,0-3.5C272.9,398.7,271.7,398.2,269.8,398.2z"/>
	<path class="st3" d="M372.9,305.2c-1-0.2-2-0.1-3.2,0.3c-1.1,0.4-2.2,1-3.2,1.8s-1.4,1.8-1.4,3c0,1.1,0.5,2.1,1.4,3
		c1,0.8,2,1.4,3.2,1.8c1.1,0.4,2.2,0.5,3.2,0.3s1.4-0.7,1.4-1.6v-7.1C374.4,305.8,373.9,305.4,372.9,305.2z"/>
	<path class="st3" d="M419.6,330.1c0.6,0.6,1.6,1,3,1c0.8,0,1.8-0.1,3.2-0.3c1.3-0.2,2-0.9,2-2v-12c0-0.8-0.4-1.2-1.3-1.3
		c-0.9-0.1-1.6-0.2-2.1-0.2c-2.8,0-4.5,0.4-5,1.3s-0.8,2.6-0.8,5.2c0,0.9,0,1.9-0.1,3s0,2.1,0.1,3.1
		C418.7,328.7,419,329.5,419.6,330.1z"/>
	<path class="st3" d="M231.5,382.3c0,0.4-0.2,0.7-0.6,1.1c-0.4,0.3-0.8,0.6-1.3,1c-0.5,0.3-1,0.6-1.3,1c-0.4,0.3-0.6,0.7-0.6,1.2
		v7.8c0,0.8,0.3,1.1,1.1,1.1c0.7,0,1.3,0,1.8,0c0.9,0,2.3,0,4.3,0s4.1-0.1,6.3-0.2s4.3-0.3,6.1-0.5s3.1-0.5,3.7-0.9
		c0.4-0.3,1.1-0.9,2-1.8s1.9-2,2.9-3.2c1-1.1,1.8-2.3,2.5-3.3c0.7-1.1,1.1-1.9,1.2-2.4c-0.5-1.1-1.3-2.5-2.3-4s-2.2-3-3.4-4.3
		c-1.3-1.3-2.6-2.5-4.1-3.4c-1.5-1-2.9-1.4-4.3-1.4c-1.1,0-3.4,0.2-6.7,0.5s-6.7,0.8-10.2,1.4s-6.6,1.4-9.4,2.3
		c-2.7,0.9-4,2-3.9,3.2c0,0.6,0.9,1.1,2.6,1.5c1.7,0.4,3.6,0.7,5.6,1.1c2,0.3,3.9,0.6,5.5,1C230.7,381.4,231.5,381.8,231.5,382.3z"
		/>
	<path class="st3" d="M191.4,316.7h48.4c1.3,0,1.9-0.6,1.9-1.9V302c0-1.3-0.6-1.9-1.9-1.9h-48.4c-1.3,0-1.9,0.6-1.9,1.9v12.8
		C189.5,316.1,190.1,316.7,191.4,316.7z"/>
	<path class="st3" d="M456.4,282c-1.4-1.3-2.7-2.5-3.8-3.8c-1.1-1.3-2.3-2.4-3.3-3.3c-1.1-1-2.3-1.4-3.5-1.4H399
		c-0.4,0-1.2,0.5-2.6,1.5c-1.3,1-2.9,2.3-4.7,3.7c-1.8,1.5-3.7,3.1-5.6,5c-2,1.8-3.8,3.6-5.4,5.2s-2.9,3-4,4.3s-1.6,2.1-1.6,2.5
		s0.2,0.6,0.6,0.8c0.4,0.1,0.7,0.2,1,0.2c0.9,0,2,0,3.2,0c1.3,0,2.6-0.1,3.9-0.2s2.6-0.3,3.8-0.5c1.2-0.2,2.2-0.4,3-0.7
		c0.9-0.4,1.3-1,1.3-1.7c0-0.8-0.1-1.6-0.3-2.4c-0.2-0.8-0.3-1.6-0.4-2.2s0.3-1,1.1-1c1.1,0,2.4,0.3,3.7,1c1.3,0.6,2.7,1.4,4,2.4
		s2.6,2,3.8,3.1c1.2,1.1,2.2,2,3,2.8l1.3,0.6c0.8,0,1.9,0,3.5,0.1s3.2,0.1,4.9,0.1c1.7,0,3.2,0,4.6,0s2.4-0.1,3.1-0.4
		c0.5-0.4,1.2-1,2-1.7c0.8-0.8,1.6-1.6,2.4-2.5s1.4-1.8,2-2.7c0.6-0.9,0.8-1.7,0.7-2.5l-0.6-1.1c-0.6-0.4-1.9-0.6-3.7-0.6
		c-1.8,0-3.9,0.1-6.1,0.2s-4.4,0.3-6.6,0.4s-3.8,0.1-5-0.2c-0.4-0.1-0.8-0.3-1.2-0.4c-0.4-0.1-0.7-0.4-0.7-1s0.8-1.1,2.3-1.2
		c1.5-0.2,3.3-0.3,5.3-0.3s3.9,0.1,5.7,0.2c1.8,0.1,3.1,0.2,3.7,0.2c0.4,0,1-0.4,1.7-1.1s1.5-1.6,2.3-2.5s1.5-1.7,2.1-2.5
		s1.1-1.1,1.5-1.1c0.6,0,1.6,0.3,2.8,1c1.2,0.6,2.4,1.4,3.6,2.3s2.3,1.8,3.2,2.9c1,1,1.4,1.8,1.4,2.5l-1,0.8c-0.4,0-1,0.1-1.8,0.2
		s-1.7,0.3-2.6,0.5s-1.7,0.5-2.3,0.9c-0.6,0.4-1,0.8-1,1.3s0.3,1.1,0.9,1.9s1.2,1.5,2,2.3s1.6,1.4,2.4,2s1.5,0.9,2,0.9H455l1.3-0.6
		c1.3-1.3,2.5-2.9,3.7-4.8s1.9-3.8,2-5.5c-0.1-0.1-0.4-0.3-0.8-0.6C459.4,284.2,457.8,283.2,456.4,282z"/>
	<path class="st3" d="M546.4,61L42.9,100.6L82.5,604L586,564.5L546.4,61z M322.7,248.4c0.9-0.3,1.5-0.5,1.7-0.5
		c2.8,0,5.7,0.6,8.7,1.9c3,1.3,5.7,3,8.2,5.1s4.6,4.5,6.2,7.2c1.7,2.7,2.5,5.5,2.5,8.4c0,2.6-0.6,5-1.9,7.3s-3.4,3.4-6.3,3.4
		c-3.2,0-5.9-1.2-8-3.5c-2.2-2.4-4-5.2-5.4-8.6c-1.5-3.4-2.6-6.9-3.5-10.4c-0.9-3.6-1.7-6.5-2.5-8.8
		C321.7,249.2,321.8,248.7,322.7,248.4z M232.5,262.4c0.9,0,2.5,0,5,0.1c2.4,0.1,4.9,0.1,7.6,0.1c2.6,0,5,0,7.3-0.1
		c2.2-0.1,3.5-0.2,3.9-0.5c0.4-0.5,1.2-1.6,2.5-3.2s2.6-3.2,4.1-4.9s2.8-3.1,4.1-4.4c1.3-1.3,2.2-1.9,2.7-1.9c1,0,2.4,0.4,4.2,1.2
		c1.8,0.8,3.6,1.8,5.5,3.1c1.9,1.2,3.8,2.6,5.6,4c1.8,1.5,3.3,2.8,4.5,4c1.1,1.2,1.8,2.2,2,3.1c0.2,0.8-0.4,1.2-1.6,1.2h-58.5
		c-0.3,0-0.5-0.1-0.8-0.4C230.8,263,231.5,262.4,232.5,262.4z M199.6,279.1v-31.9c0-1.3,0.6-1.9,1.9-1.9c1.1,0,3.1,0.1,5.8,0.2
		c2.7,0.1,5.6,0.3,8.6,0.6s5.8,0.5,8.4,0.9c2.6,0.3,4.4,0.7,5.3,1.1c0.3,0.1,0.6,0.3,1,0.5s0.6,0.5,0.6,0.9s-0.6,1-1.7,1.9
		c-1.1,0.9-1.7,1.7-1.7,2.5c0,4.1,0,8.1,0,12c0,4,0.1,8,0.4,12c0,0.3,0,0.7,0.1,1.4c0.1,0.7,0.2,1.1,0.3,1.2l1.1,0.6
		c0.9,0,2.1,0,3.5-0.1c1.5-0.1,2.9-0.1,4.4-0.2s2.9-0.2,4.3-0.3c1.4-0.1,2.5-0.3,3.3-0.6c0.6-0.1,1.5-0.8,2.7-2.1
		c1.1-1.3,2.4-2.6,3.6-4c1.3-1.4,2.5-2.7,3.8-3.8c1.3-1.1,2.5-1.7,3.6-1.7s2.9,0.4,5.2,1.3c2.3,0.9,4.5,2,6.7,3.4s4.1,2.9,5.7,4.5
		c1.7,1.6,2.5,3,2.5,4.3c0,0.4-0.2,0.7-0.7,0.9c-0.4,0.2-0.8,0.3-1.1,0.3H168.5l-1.1,0.6l-1,2.1c0.1,1,1.3,2.1,3.4,3.3
		c2.2,1.2,4.6,2.4,7.4,3.4c2.7,1.1,5.4,2,8,2.8s4.4,1.1,5.4,1.1s2.9,0,5.5,0c2.7,0,5.8,0,9.4,0.1c3.6,0.1,7.3,0.1,11.3,0.1
		c3.9,0,7.6,0,10.9,0c3.3,0,6.1-0.1,8.3-0.2s3.5-0.3,3.7-0.4c0.4-0.4,1.1-1.1,2.3-2.2c1.1-1.1,2.4-2.2,3.6-3.3
		c1.3-1.1,2.5-2.2,3.5-3.1c1.1-0.9,1.8-1.3,2-1.3c0.9,0,2.5,0.7,5,2c2.4,1.3,4.9,2.9,7.5,4.7c2.5,1.8,4.8,3.5,6.8,5.3
		c2,1.7,3,3,3,3.9c0,0.6-0.2,1.2-0.7,1.6c-0.4,0.4-1,0.9-1.5,1.2c-0.6,0.4-1.1,0.8-1.5,1.2c-0.4,0.4-0.7,0.9-0.7,1.4v13.2
		c0,1.3-1.1,2.3-3.3,3.2c-2.2,0.8-4.8,1.5-7.6,1.9c-2.9,0.4-5.6,0.8-8.3,1s-4.5,0.3-5.5,0.3c-1.1,0-1.9-0.4-2.2-1.1
		c-0.3-0.8-0.5-1.6-0.7-2.6c-0.1-1-0.3-1.8-0.6-2.7c-0.3-0.8-0.8-1.2-1.5-1.2h-45.9c-2.3,0-4.6,0.5-6.9,1.4c-2.3,1-4.6,2-7,3.2
		s-4.7,2.3-7.1,3.2c-2.4,1-4.8,1.4-7.2,1.4c-1.3,0-1.9-0.6-1.9-1.9V290c0-1.5-0.4-2.8-1.3-3.8c-0.9-1-2-1.8-3.3-2.4s-2.7-1-4.2-1.2
		c-1.5-0.3-2.9-0.4-4-0.4l-0.6-0.6l0.8-0.6h47C199,281,199.6,280.4,199.6,279.1z M137.7,263.2c1.1,0,3.3,0,6.5,0s6.8,0,11-0.1
		c4.1-0.1,8.5-0.1,13-0.1s8.7,0,12.5,0s7.1,0.1,9.8,0.2s4.2,0.3,4.6,0.4l0.4,0.6c-0.1,0.1-1.5,0.2-4.2,0.2s-6,0-10,0s-8.4,0-13.1,0
		c-4.7,0-9.2,0-13.5,0s-8,0-11.1,0s-5.1,0-5.8,0l-0.6-0.6L137.7,263.2z M131,344.1c1.9-2.7,4.1-5.4,6.6-8.1s4.9-5.2,7.4-7.4
		c2.4-2.2,4.2-3.2,5.4-3.2c0.3,0,0.6,0.4,1.1,1.3s1.1,1.9,1.6,3.1c0.6,1.1,1.1,2.2,1.4,3.2c0.4,1,0.6,1.7,0.6,2.1
		c0,2.6-0.3,5.4-0.9,8.4s-1.5,5.9-2.8,8.5s-3,4.8-5.1,6.6c-2.1,1.8-4.8,2.7-7.9,2.7c-3.7,0-6.3-1.1-7.9-3.2
		c-1.6-2.1-2.4-4.9-2.4-8.3C128.1,348.7,129.1,346.8,131,344.1z M150.7,395.7h42.1c0.4,0,0.8,0.1,1.2,0.3c0.4,0.2,0.8,0.4,1.1,0.7
		c-0.3,0.3-0.4,0.4-0.6,0.4c-0.8,0.1-2.4,0.3-4.8,0.4c-2.4,0.1-5.2,0.3-8.4,0.4s-6.6,0.2-10.1,0.3c-3.6,0.1-6.9,0.1-10,0.1
		s-5.8,0-7.9-0.1c-2.2-0.1-3.5-0.2-4-0.3l-0.2-0.2l0.2-1.1l0.2-0.2L150.7,395.7z M160.2,469.3c0.1,0,0.3,0.1,0.6,0.2
		c0.2,0.1,0.4,0.3,0.4,0.5c-0.1,0.1-0.7,0.1-2,0.1s-2.9,0-4.9,0.1c-2,0-4.2,0.1-6.6,0.1c-2.4,0-4.7,0-7-0.1c-2.3,0-4.4-0.1-6.3-0.1
		c-1.9,0-3.3,0-4.3,0c-0.1,0-0.2,0-0.3-0.1l0.2-0.3l0.7-0.3h29.5L160.2,469.3L160.2,469.3z M123.3,494.3c0-0.5,0.6-1.6,1.8-3.3
		c1.2-1.7,2.5-3.5,4-5.4s2.9-3.6,4.2-5.1s2.2-2.2,2.5-2.2c0.1,0,0.4,0.2,0.7,0.7s0.6,1,0.9,1.6c0.3,0.6,0.5,1.1,0.7,1.7
		c0.2,0.5,0.3,0.9,0.3,1.1c0,1.6-0.1,3.3-0.3,5.1c-0.2,1.8-0.6,3.4-1.2,4.9c-0.6,1.5-1.5,2.8-2.7,3.8s-2.9,1.5-5,1.5
		c-1.7,0-3.1-0.2-4.2-0.7C123.8,497.5,123.3,496.3,123.3,494.3z M156.2,536.1c-1.4,0.9-3.1,1.9-5.1,2.9c-2.1,1-4.4,2.1-6.9,3.1
		s-4.9,2-7.3,2.8c-2.3,0.8-4.4,1.5-6.3,2.1c-1.8,0.5-3.1,0.8-3.9,0.8c-0.2,0-0.5,0-0.8-0.1c-0.3,0-0.5-0.2-0.5-0.6
		c0-0.2,0.1-0.4,0.2-0.5s0.2-0.3,0.4-0.4c1.6-1.7,3.2-3.3,5-4.8s3.6-3.1,5.3-4.6c1.7-1.6,3.4-3.2,4.9-4.8c1.6-1.7,2.9-3.5,4.2-5.5
		l0.6-0.3c0.4,0.1,1.3,0.6,2.5,1.4c1.3,0.8,2.6,1.6,4.1,2.5c1.4,0.9,2.7,1.7,3.8,2.4s1.7,1.2,1.7,1.4
		C158.3,534.5,157.6,535.2,156.2,536.1z M179.1,517.8c-0.3,0.1-0.7,0.1-1,0.1s-0.7,0.1-1,0.2c-0.5,0.2-0.8,0.5-0.8,1v28.2
		c0,0.8-0.5,1.4-1.5,1.8s-2.2,0.7-3.5,0.8s-2.6,0.2-4,0.2c-1.3,0-2.3-0.1-2.8-0.1l-0.7-0.3l-0.1-0.1l-0.3-0.7c0-0.6,0-1.7,0-3.3
		s0-3.4,0-5.4s0-4.2,0-6.4s0-4.3,0-6.3s0-3.6-0.1-4.9c-0.1-1.3-0.1-2.1-0.2-2.3c-0.5-0.3-1.2-0.4-2.2-0.3c-1,0.1-1.8,0.1-2.3,0.2
		c-4.3,0.3-8.3,1-12.1,1.9s-7.7,2.2-11.6,3.8c-0.1,0.1-0.2,0.1-0.4,0.1c-0.3,0-0.8-0.5-1.5-1.6c-0.7-1-1.4-2.3-2-3.6
		c-0.7-1.4-1.3-2.7-1.8-3.9c-0.5-1.3-0.8-2.1-0.8-2.5c0-0.7,0.3-1,0.8-1h25.6c0.7,0,1.4-0.1,2.1-0.2c0.7-0.1,1.4-0.3,2-0.5
		c1-0.3,2.2-1,3.4-2.3c1.3-1.3,2.5-2.8,3.8-4.5s2.5-3.5,3.8-5.4s2.4-3.7,3.5-5.3c1.1-1.6,2-3,2.8-4s1.4-1.6,1.8-1.6
		c0.2,0,0.9,0.3,2,0.9c1.2,0.6,2.4,1.2,3.9,1.9c1.4,0.7,2.8,1.4,4.1,2s2.2,1.1,2.6,1.3l0.6,0.6c0,0.1-0.1,0.2-0.2,0.3
		c-0.7,0.5-1.4,1-2.2,1.3s-1.5,0.7-2.3,1.1c-0.6,0.3-1.5,0.9-2.8,1.6s-2.7,1.5-4.2,2.4c-1.6,0.9-3.2,1.9-4.8,2.8
		c-1.7,1-3.2,1.9-4.7,2.8s-2.7,1.7-3.8,2.5c-1.1,0.7-1.7,1.3-2,1.6c-0.3,0.4-0.3,0.7,0.3,1c0.5,0.2,0.9,0.4,1.2,0.4
		c4.7,0,9.3-0.2,14-0.7c4.6-0.5,9.3-0.7,14-0.7l0.7-0.3l0.1-0.1l0.1-0.3c-0.1-0.2-0.4-0.6-1-1.2s-1.2-1.2-1.9-1.9
		c-0.7-0.7-1.4-1.3-2-1.9s-1.1-1-1.4-1.3L188,505l0.4-0.4c2,0,4.3,0.2,6.9,0.7c2.6,0.4,5.1,1.2,7.5,2.2s4.4,2.4,6,4
		c1.6,1.7,2.4,3.8,2.4,6.3c0,1.8-0.6,3.3-1.8,4.3s-2.7,1.6-4.4,1.6c-1.4,0-2.5-0.5-3.3-1.4c-0.7-0.9-1.4-1.9-1.9-3s-1.1-2.1-1.7-3
		c-0.6-0.9-1.4-1.4-2.6-1.4c-1.9,0-3.7,0.2-5.5,0.7s-3.5,0.9-5.3,1.2c-0.9,0.2-1.8,0.4-2.7,0.6C180.9,517.5,180,517.7,179.1,517.8z
		 M209.5,546.1c-1.4,0.8-3,1.2-5,1.2c-0.5,0-1,0-1.4,0.1c-0.4,0-0.9-0.1-1.4-0.3c-0.5-0.5-1.1-0.9-1.5-1.3c-0.4-0.3-0.8-0.7-1.1-1
		s-0.5-0.5-0.6-0.7c-0.3-0.3-1-0.8-1.8-1.6c-0.9-0.8-1.9-1.7-3-2.8c-1.2-1-2.3-2.2-3.5-3.3c-1.2-1.2-2.3-2.2-3.3-3.3
		s-1.8-1.9-2.5-2.6c-0.6-0.7-1-1.3-1-1.5c0-0.3,0.1-0.5,0.4-0.6c0.3-0.1,0.5-0.1,0.8-0.1c2.2,0,4.8,0.1,7.9,0.4
		c3.1,0.2,6,0.8,8.9,1.7c2.8,0.9,5.3,2.3,7.3,4c2,1.8,3,4.1,3,7.1C211.5,543.7,210.8,545.2,209.5,546.1z M214.8,486.6
		c-0.4,0.3-0.9,0.6-1.4,0.9s-1,0.6-1.5,0.9s-0.8,0.5-1,0.6c-0.9,0.6-1.9,1.3-3,2.2c-1.1,0.8-2.2,1.7-3.4,2.4c-1.2,0.8-2.4,1.4-3.6,2
		c-1.2,0.5-2.4,0.8-3.5,0.8c-0.2,0-0.4-0.1-0.6-0.2c-0.2-0.1-0.3-0.3-0.3-0.6c0-0.9,0.1-1.9,0.4-2.7c0.3-0.9,0.6-1.8,1-2.6
		c0.4-0.9,0.7-1.8,1-2.6c0.3-0.9,0.4-1.8,0.4-2.7c0-0.6-0.1-1-0.3-1.2s-0.6-0.3-1.2-0.3c-0.7,0-2,0-4.1,0.1s-4.4,0.1-7.1,0.1
		c-2.7,0-5.6,0.1-8.5,0.2c-3,0.1-5.7,0.1-8.2,0.2s-4.6,0.1-6.3,0.2s-2.6,0.1-2.6,0.2c-0.1,0.1-0.3,0.3-0.4,0.5
		c-0.1,0.2-0.2,0.3-0.2,0.5c0,0.7,0.5,1.4,1.6,1.8c1,0.5,2.2,0.9,3.5,1.2c1.3,0.3,2.4,0.7,3.5,1c1,0.3,1.6,0.6,1.6,1
		c0,0.3-0.6,0.7-1.7,1.4c-1.1,0.6-2.4,1.3-3.9,2.1c-1.5,0.7-2.8,1.4-4.2,2.1c-1.3,0.6-2.2,1.1-2.6,1.3l-0.4,0.5c0,1.1,0.3,2.1,0.8,3
		c0.5,1,0.8,2,0.8,3c0,3.7-1.9,5.6-5.6,5.6c-1,0-2.2-0.5-3.4-1.6c-1.3-1-2.5-2.3-3.7-3.6c-1.2-1.4-2.3-2.8-3.4-4.1
		c-1.1-1.4-2-2.4-2.7-3.2l-0.2-0.7l0.3-0.4c0.6-0.1,1.2-0.2,1.8-0.4c0.6-0.2,1.2-0.3,1.8-0.3c0.5,0,1.1,0.1,1.9,0.3
		c0.8,0.2,1.6,0.3,2.5,0.5c0.8,0.1,1.6,0.2,2.3,0.2s1.2-0.3,1.6-0.8c0.1-0.1,0.3-0.6,0.6-1.6s0.6-2.1,1-3.3c0.4-1.2,0.7-2.3,1.1-3.4
		c0.3-1.1,0.6-1.8,0.7-2.2l-0.2-0.8l-0.7-0.4H141c-0.3,0-0.5-0.2-0.5-0.5s0.2-0.5,0.5-0.5h21.5c0.7,0,1-0.3,1-1v-23.4
		c0-0.7,0.3-1,1-1c2.2,0,4.5,0,6.9,0.1c2.3,0.1,4.6,0.4,6.8,1c0.1,0.1,0.3,0.1,0.6,0.2c0.2,0.1,0.4,0.2,0.4,0.5
		c0,0.2-0.1,0.4-0.3,0.6s-0.4,0.3-0.7,0.5c-0.2,0.1-0.5,0.3-0.7,0.5s-0.3,0.4-0.3,0.7v20.1c0,0.7,0.3,1,1,1h19.5l0.7-0.3
		c0.2-0.2,0.6-0.7,1.3-1.4c0.7-0.7,1.4-1.4,2.1-2.2c0.7-0.7,1.4-1.4,2.1-2c0.6-0.6,1.1-0.9,1.3-0.9s0.8,0.5,1.9,1.5
		c1.1,1,2.3,2.2,3.5,3.4c1.3,1.3,2.4,2.4,3.4,3.6s1.5,1.7,1.5,1.9C215.4,486.1,215.2,486.3,214.8,486.6z M180.5,469
		c1.2-0.1,2.4-0.2,3.9-0.2s2.8,0,4.2,0.1s2.2,0.1,2.6,0.1c0.3,0,0.8-0.5,1.4-1.4c0.6-0.9,1.3-2,2-3.2s1.5-2.2,2.2-3.2
		c0.7-0.9,1.4-1.4,2-1.4c0.1,0,0.6,0.3,1.5,1c0.8,0.6,1.8,1.4,2.8,2.2c1,0.8,2,1.6,2.9,2.4s1.5,1.3,1.8,1.5c0.1,0.1,0.3,0.2,0.6,0.5
		s0.7,0.6,1,0.9s0.6,0.6,0.9,0.9c0.3,0.3,0.4,0.4,0.4,0.5c0,0.2-0.1,0.3-0.3,0.4h-31.5c-0.1,0-0.3-0.1-0.4-0.2
		C178.8,469.4,179.4,469.1,180.5,469z M232.4,515.6c-1.5,0-2.8-0.1-4-0.3s-1.8-0.5-1.8-1c0-0.3,0-0.4,0.1-0.5
		c0.5-2.6,1.1-5.3,1.8-7.9c0.6-2.6,1.2-5.3,1.6-8c0.3-2,0.6-3.9,0.8-5.8s0.4-3.9,0.7-5.8c0.1-0.9,0.2-1.9,0.3-2.8s0.2-1.8,0.5-2.7
		c0.1-0.6,0.4-0.9,0.9-0.9c0.2,0,0.4,0,0.5,0.1c2.2,0.8,4.5,1.6,6.8,2.3c2.3,0.7,4.6,1.4,7,1.9c1.6,0.3,3.2,0.6,4.8,0.7
		s3.2,0.3,4.8,0.6c0.3,0,0.5,0.2,0.5,0.5s-0.2,0.5-0.5,0.5h-12.4c-0.2,0-0.4,0.3-0.6,1c-0.2,0.6-0.4,1.4-0.5,2.2
		c-0.1,0.8-0.3,1.6-0.4,2.3c-0.1,0.7-0.2,1.3-0.2,1.5c-0.1,0.7-0.2,2.2-0.4,4.4c-0.2,2.2-0.5,4.5-0.8,6.9s-0.7,4.5-1.2,6.5
		c-0.4,2-0.9,3.1-1.4,3.4c-0.4,0.2-1.3,0.4-2.6,0.6C235.3,515.5,233.9,515.6,232.4,515.6z M258.9,463.6h-29.8
		c-0.5,0-0.7-0.2-0.7-0.7s0.2-0.7,0.7-0.7h28.8c0.3,0,0.8-0.3,1.4-1c0.6-0.6,1.2-1.3,1.9-2.1c0.6-0.7,1.3-1.4,1.9-2.1
		c0.6-0.6,1.1-1,1.4-1s0.9,0.4,2,1.1c1,0.7,2.2,1.6,3.4,2.5c1.2,1,2.3,1.9,3.4,2.8c1,0.9,1.7,1.5,2.1,1.9c0,0.3-0.2,0.6-0.5,0.9
		s-0.7,0.5-1.1,0.8c-0.4,0.2-0.8,0.5-1.1,0.8c-0.3,0.3-0.5,0.5-0.5,0.8v22c0,0.5-0.5,1-1.5,1.3s-2.2,0.6-3.5,0.8
		c-1.3,0.2-2.5,0.4-3.8,0.5c-1.2,0.1-2,0.2-2.4,0.2c-0.3,0-0.6-0.4-0.8-1.1c-0.2-0.7-0.3-1.6-0.4-2.5s-0.2-1.9-0.2-2.7
		c0-0.9,0-1.5,0-1.7c0-3.3,0.1-6.5,0.2-9.8s0.2-6.6,0.2-9.8C259.9,463.9,259.6,463.6,258.9,463.6z M275.9,510.6
		c-0.9,0.5-1.6,0.9-2,1.2l-0.1,0.4c-0.7,3.3-1.3,6.7-1.7,10.2c-0.4,3.5-1,6.9-1.9,10.1c-0.8,3.3-2.2,6.3-4,9s-4.5,5-8.1,6.7
		c-0.5,0.3-1.2,0.5-2,0.8c-0.8,0.3-1.6,0.5-2.4,0.8c-0.8,0.2-1.7,0.4-2.5,0.6c-0.8,0.1-1.5,0.2-2.1,0.2c-0.5,0-0.9-0.3-1.1-0.8
		c-0.3-0.7-0.6-1.5-0.9-2.4c-0.2-0.8-0.6-1.6-1-2.4c-0.6-1.2-1.2-2.1-1.9-2.5c-0.6-0.5-1.3-0.8-1.9-1.1c-0.6-0.3-1.3-0.6-2-0.9
		c-0.7-0.3-1.4-0.9-2.1-1.9c-0.2-0.2-0.3-0.4-0.3-0.7s0.1-0.5,0.4-0.6c0.3-0.1,0.5-0.2,0.7-0.2h12.5c1.2,0,2.3-0.6,3.3-1.7
		c0.9-1.2,1.8-2.6,2.4-4.4c0.7-1.8,1.3-3.7,1.7-5.9c0.5-2.2,0.8-4.3,1.1-6.4c0.3-2.1,0.5-4,0.6-5.7s0.2-3.1,0.2-4
		c0-0.6-0.7-1-2.1-1.1s-3-0.2-4.8-0.1s-3.6,0.2-5.3,0.3c-1.7,0.1-2.9,0.1-3.5,0c-0.3-0.1-0.6-0.2-0.9-0.3c-0.3-0.1-0.5-0.3-0.6-0.7
		c0.1-0.1,0.9-0.2,2.4-0.3c1.5,0,3.1-0.1,4.9-0.1c1.8,0,3.5,0,5.1,0.1c1.6,0,2.6,0.1,3,0.1c0.2-0.2,0.7-0.7,1.6-1.4
		c0.8-0.7,1.7-1.5,2.7-2.3c0.9-0.8,1.8-1.5,2.5-2.1s1.2-0.9,1.3-0.9c0.3,0,0.5,0.1,0.8,0.4s0.5,0.5,0.6,0.6c0.3,0.3,0.9,0.8,1.8,1.6
		c0.9,0.8,1.9,1.6,3,2.4c1,0.8,2,1.6,2.8,2.4c0.8,0.7,1.2,1.2,1.2,1.3C277.3,509.6,276.8,510.1,275.9,510.6z M293.9,420H134.2
		c-0.4,0-0.8-0.1-1.1-0.3c-0.4-0.2-0.6-0.5-0.6-1.1c0-0.4,0.2-0.7,0.6-1c0.4-0.3,0.8-0.4,1.1-0.4h63.5c1.3,0,1.9-0.6,1.9-1.9V380
		c0-1.3-0.6-1.9-1.9-1.9c-5.1,0-10.4,0.4-15.8,1.3c-5.4,0.9-10.5,2-15.4,3.4c-1,0.3-2,0.7-3.1,1.4c-1,0.7-1.9,1.1-2.7,1.2l-1.1-0.6
		c-0.3-0.9-0.8-2.3-1.7-4.1c-0.9-1.8-1.8-3.7-2.9-5.6c-1-1.9-1.9-3.6-2.7-5.2c-0.8-1.5-1.1-2.5-1.1-2.9c0-0.5,0-1,0.1-1.4
		s0.4-0.7,1.1-0.7c4.1,0,8.2,0.2,12.2,0.7c4.1,0.4,8.2,0.7,12.2,0.7c1.5,0,2.7-0.4,3.6-1.3c0.9-0.9,1.6-2,2.1-3.3s0.9-2.7,1.1-4.2
		c0.2-1.5,0.3-2.8,0.3-3.9c0-1.4-1.2-2.1-3.5-2.2c-2.4-0.1-4.9,0-7.7,0.2s-5.4,0.3-7.7,0.4c-2.4,0.1-3.5-0.5-3.5-1.6
		c0-0.8,0.4-1.1,1.3-1.1h73.8c1.1,0,2.2-0.5,3.2-1.5s1.9-2.1,2.9-3.3c1-1.2,2-2.3,3.1-3.3s2.3-1.5,3.7-1.5c1.9,0,3.6,0.5,5.1,1.6
		s2.9,2.3,4.2,3.6c1.3,1.3,2.7,2.6,4.1,3.6c1.4,1.1,2.9,1.6,4.6,1.6c0.8,0,1.5-0.8,2.1-2.3s1.1-3.2,1.3-5.2c0.3-1.9,0.3-3.6,0-5.2
		c-0.3-1.5-0.8-2.3-1.7-2.3H158.9c-0.5,0-0.8-0.2-0.8-0.6c0-1.3,0.6-1.9,1.9-1.9h107.6l1.3-0.6c0.4-0.4,1.2-1.2,2.5-2.5
		s2.6-2.6,4-3.9s2.7-2.5,3.9-3.5c1.2-1,2-1.5,2.4-1.5s1.6,0.9,3.5,2.7c2,1.8,4,3.8,6.2,6s4.1,4.3,5.9,6.3s2.7,3.2,2.7,3.5
		c0,0.4-0.2,0.7-0.6,1.1c-0.4,0.3-0.7,0.5-1,0.7c-4.6,2.2-9.1,4.3-13.6,6.5c-2.6,1.3-5.1,2.7-7.7,4.2s-5.3,2.7-8.1,3.4
		c-0.6-0.3-1.3-0.8-2.1-1.5c-0.8-0.8-1.4-1.1-1.9-1.1h-49.9c-0.3,0-1.5,0.5-3.8,1.6s-4.8,2.3-7.4,3.6c-2.6,1.3-5,2.6-7.2,3.8
		c-2.2,1.2-3.3,1.9-3.4,2l-0.6,1.1c0.3,1,1.2,1.6,3,1.7c1.7,0.1,3,0.2,3.9,0.2c4.5,0,9-0.1,13.6-0.2s9.1-0.3,13.6-0.6
		c1.8-0.1,3.6-0.2,5.5-0.2s3.8-0.1,5.5-0.4c1.3-0.1,1.8-0.5,1.6-1.1s-0.6-1.3-1.2-2.1c-0.6-0.8-1.3-1.5-2.1-2.2s-1.1-1.2-1.1-1.4
		c0-0.8,0.5-1.1,1.4-1.1s1.7,0,2.2,0c2.7,0,5.9,0.1,9.8,0.3c3.8,0.2,7.5,0.8,11.1,1.8c3.6,1,6.6,2.6,9.1,4.7s3.7,5.1,3.7,8.9
		c0,2.2-0.7,4.2-2,6s-2,3.9-2,6c0,0.8,0.7,1.6,2.2,2.5s3.1,1.8,4.8,2.8c1.7,1,3.3,2,4.8,3.1s2.2,2.1,2.2,3.2l-0.6,1
		c-1,0.1-2,0.4-3.1,0.9c-1,0.4-1.5,1.3-1.5,2.6c0,1,0.8,2.3,2.4,3.9s3.4,3.2,5.5,4.9c2.1,1.7,4.2,3.2,6.3,4.5c2.1,1.3,3.6,2.3,4.5,3
		l0.6,1.1l-0.6,1c-0.3,0.3-0.6,0.5-1,0.7C294.6,419.9,294.3,420,293.9,420z M311.7,459c-0.4,0.3-0.8,0.5-1.3,0.8
		c-0.4,0.3-0.8,0.6-1.2,0.9c-0.3,0.3-0.5,0.6-0.5,0.9V546c0,0.8-0.5,1.5-1.5,2s-2.1,0.9-3.4,1.2s-2.6,0.5-3.8,0.7
		c-1.3,0.1-2.2,0.2-2.8,0.2c-0.7,0-1-0.3-1-1c0-4.3,0-8.7-0.1-13c0-4.3-0.1-8.7-0.2-13c-0.1-9.1-0.2-18.2-0.3-27.2
		c0-9-0.1-18.1-0.1-27.2c0-1.8,0-3.7-0.1-5.5c-0.1-1.9-0.1-3.7-0.1-5.5c0-0.5,0.2-0.8,0.5-0.9s0.6-0.2,1-0.2c2.6,0,5.1,0.1,7.6,0.4
		s5,0.6,7.5,0.9l0.5,0.4C312.4,458.5,312.1,458.8,311.7,459z M378.2,507c1.3,1.4,3,3,4.9,4.9c2,1.9,4.1,3.9,6.4,6.1s4.4,4.2,6.4,6.1
		c2,1.9,3.6,3.5,4.9,4.9s2,2.3,2,2.7c0,0.3-0.3,0.8-0.9,1.4c-0.6,0.6-1,0.9-1.4,0.9s-1.3-0.7-2.7-2c-1.4-1.3-3-3-4.9-4.9
		c-1.9-2-3.9-4.1-6.1-6.4c-2.2-2.3-4.2-4.4-6.1-6.4s-3.5-3.6-4.9-4.9s-2.3-2-2.7-2s-1.3,0.7-2.7,2c-1.4,1.3-3,3-4.9,4.9
		c-1.9,2-3.9,4.1-6.1,6.4c-2.2,2.3-4.2,4.4-6.1,6.4s-3.5,3.6-4.9,4.9c-1.4,1.3-2.3,2-2.7,2c-0.3,0-0.8-0.3-1.4-0.9
		c-0.6-0.6-0.9-1-0.9-1.4s0.7-1.3,2-2.7s3-3,4.9-4.9c2-1.9,4.1-3.9,6.4-6.1c2.3-2.2,4.4-4.2,6.4-6.1s3.6-3.5,4.9-4.9s2-2.3,2-2.7
		c0-0.3-0.7-1.2-2-2.6c-1.4-1.4-3-3.1-5-5.1s-4.2-4.1-6.5-6.3c-2.3-2.2-4.5-4.3-6.5-6.3c-2-1.9-3.7-3.6-5-4.9c-1.4-1.4-2-2.2-2-2.4
		c0-0.4,0.3-0.9,1-1.6s1.2-1,1.6-1c0.3,0,1.1,0.7,2.4,2c1.4,1.4,3,3,4.9,5s4,4.2,6.3,6.5c2.2,2.3,4.3,4.5,6.3,6.5s3.7,3.7,5.1,5
		c1.4,1.4,2.3,2,2.6,2c0.3,0,1.2-0.7,2.6-2c1.4-1.4,3.1-3,5.1-5s4.1-4.2,6.3-6.5c2.2-2.3,4.3-4.5,6.3-6.5c1.9-2,3.6-3.7,4.9-5
		c1.4-1.4,2.2-2,2.4-2c0.4,0,0.9,0.3,1.6,1c0.6,0.7,1,1.2,1,1.6c0,0.3-0.7,1.1-2,2.4c-1.4,1.4-3,3-5,4.9s-4.2,4-6.5,6.3
		c-2.3,2.2-4.5,4.3-6.5,6.3s-3.7,3.7-5,5.1c-1.4,1.4-2,2.3-2,2.6C376.2,504.7,376.9,505.6,378.2,507z M441.8,413.3
		c-0.8-1.4-1.6-2.5-2.5-3.2c-0.9-0.8-1.8-1.4-2.7-1.9c-0.9-0.5-1.7-1-2.4-1.4c-0.7-0.4-1.3-1.1-1.8-1.8c0.3-0.5,0.6-0.8,1.1-0.9
		c0.4-0.1,0.9-0.1,1.4-0.1h18.4c0.8,0,1.5-0.7,2.3-2.1s1.4-2.9,1.9-4.6s0.8-3.2,0.9-4.6s-0.4-2.1-1.2-2.1h-68.8
		c-0.6,0-1.2,0.3-1.7,1c-0.5,0.6-1,1.4-1.5,2.3s-1,1.7-1.4,2.5s-0.9,1.3-1.4,1.7c-0.4,0.3-1.6,0.4-3.6,0.6c-2,0.1-4.2,0.2-6.5,0.1
		s-4.4-0.3-6.2-0.8c-1.8-0.4-2.8-1.1-2.8-1.8c0-0.4,0.1-0.6,0.2-0.8c1.4-3.7,2.7-7.5,3.9-11.3c1.2-3.9,2.3-7.7,3.3-11.6
		c0.5-1.8,1-3.7,1.4-5.6s1-3.8,1.6-5.5c0.3-1,0.8-1.5,1.5-1.5c0.4,0,1.4,0.5,3.2,1.6c1.7,1.1,3.8,2.3,6.1,3.5
		c2.4,1.3,4.9,2.5,7.6,3.5c2.7,1.1,5.3,1.6,7.7,1.6h50.3c1.3,0,1.9-0.6,1.9-1.9c0-0.5,0.1-1.5,0.2-2.9s0.2-2.9,0.2-4.4
		s-0.2-2.9-0.5-4.1s-0.9-1.8-1.8-1.8h-71.3c-0.6,0-1.5,0.2-2.5,0.5s-2,0.5-3,0.6s-1.8-0.1-2.5-0.5s-1.1-1.3-1.1-2.7
		c0-0.4,0.2-0.7,0.7-0.9c0.4-0.2,0.8-0.3,1.1-0.3h77.2l1.3-0.6c1.9-1.9,3.8-3.8,5.7-5.5c1.9-1.7,3.8-3.6,5.7-5.5l0.6-1.4
		c0-0.6,0.1-1.9,0.2-3.8s0.2-3.9,0.2-5.8c0-2-0.1-3.7-0.3-5.3c-0.2-1.5-0.6-2.3-1.2-2.3s-1.5,0.8-2.5,2.4s-2.1,3.3-3.3,5.3
		c-1.2,1.9-2.5,3.7-3.7,5.3c-1.3,1.6-2.5,2.4-3.6,2.4c-0.4,0-0.6-0.2-0.8-0.6c-0.1-0.4-0.2-0.7-0.2-1c0-0.8,0.2-2.3,0.5-4.6
		c0.3-2.3,0.8-4.7,1.3-7.2c0.6-2.5,1.2-4.6,2-6.5s1.6-2.8,2.5-2.8c1.3,0,2.5,0.2,3.5,0.6c1.1,0.4,2.3,0.6,3.5,0.8l1.3-0.6
		c0.3-0.4,0.4-1.1,0.6-2c0.1-1,0.2-1.9,0.2-3c0-1-0.1-1.9-0.4-2.8c-0.3-0.8-0.6-1.2-1.1-1.2c-1.7,0-3.1,0.5-4.4,1.6
		s-2.7,1.6-4.4,1.6c-0.6,0-1.2-0.4-1.8-1.1c-0.6-0.8-1.2-1.6-1.8-2.6c-0.6-1-1.2-1.8-1.8-2.7c-0.6-0.8-1.2-1.2-1.8-1.2h-36.3
		c-0.6,0-1.1,0.2-1.4,0.6s-0.6,0.8-0.9,1.3s-0.6,1-1,1.3c-0.4,0.4-0.8,0.6-1.3,0.6c-1.3,0-2.8,0.1-4.5,0.2s-3-0.4-3.7-1.7
		c-0.6-1-1.1-2.1-1.5-3.2s-1.3-1.7-2.7-1.7c-1.7,0-2.6,0.7-2.9,2.2s-0.4,2.8-0.4,3.9c0,2.3,0.5,4.2,1.6,5.8c1.1,1.6,2.4,3,4,4.3
		s3.2,2.5,5,3.6c1.7,1.1,3.2,2.5,4.5,4c1.1,0.6,2.2,0.4,3.3-0.8c0.4-0.5,0.5-1.6,0.4-3.2s-0.3-3.2-0.4-5c-0.1-1.7-0.1-3.2,0-4.6
		c0.1-1.3,0.7-2,1.7-2c1.4,0,2.8,0.3,4.3,0.9s2.9,1.2,4.3,1.8c1.4,0.6,2.8,1.1,4.2,1.5c1.4,0.4,2.8,0.4,4.2,0.2
		c0.4-0.4,0.9-0.9,1.6-1.4c0.7-0.6,1.5-1.2,2.3-1.9c0.8-0.7,1.6-1.3,2.3-1.8c0.7-0.5,1.2-0.9,1.6-1.1c0.5,0.3,1.3,0.8,2.5,1.7
		c1.1,0.9,2.3,1.8,3.4,2.9c1.1,1,2.1,2,3,3c0.8,1,1.2,1.7,1.2,2.2c0,0.4-0.4,0.7-1.1,1s-1.1,0.8-1.1,1.5V337c0,0.6-0.4,1.2-1.1,1.7
		c-0.8,0.5-1.7,0.9-2.7,1.2c-1,0.3-2,0.6-3.1,0.8c-1,0.2-1.8,0.3-2.3,0.3c-1.5,0-2.5-0.4-2.9-1.1s-0.7-1.5-1-2.3s-0.6-1.5-1.1-2.3
		c-0.4-0.7-1.5-1.1-3.2-1.1c-1.5,0-2.8,0.5-3.7,1.5c-1,1-1.9,2-2.9,3.1s-2,2.2-3.2,3.1c-1.1,1-2.7,1.5-4.8,1.5
		c-1.3,0-2.1-0.5-2.4-1.4c-0.3-1-0.4-2.1-0.3-3.3c0.1-1.3,0.2-2.6,0.3-3.9c0.1-1.3-0.2-2.4-0.7-3.2c-0.4-0.6-0.8-1-1.3-1
		s-1.1,0.1-1.6,0.3c-0.6,0.2-1.1,0.4-1.6,0.7c-0.5,0.3-1,0.4-1.5,0.4h-4c-0.6,0-1.1-0.6-1.4-1.8c-0.3-1.2-0.6-2.6-1-4.2
		c-0.3-1.6-0.7-3.2-1.1-4.9c-0.4-1.7-1.1-2.9-1.8-3.6c-1.8-0.5-2.8,0.3-3.2,2.4c-0.3,2.1-0.4,4.6-0.3,7.5s0.3,5.7,0.5,8.4
		c0.2,2.7,0,4.5-0.5,5.3c-1,1.3-2.6,2.1-4.9,2.4c-2.2,0.3-4.1,0.5-5.6,0.5c-1.3,0-2-1.1-2.1-3.2s-0.1-4.4,0.1-6.9s0.3-4.8,0.3-6.9
		s-0.4-3.2-1.3-3.2c-1.7,0-3.1,0.9-4.3,2.7c-1.2,1.8-2.4,3.7-3.6,5.8c-1.2,2.1-2.5,4-3.8,5.7s-3,2.6-5.1,2.6c-0.9,0-1.3-0.4-1.3-1.3
		c0-1.5,0.4-3.3,1.1-5.3c0.8-2,1.6-4,2.5-6.2s1.7-4.4,2.5-6.6s1.1-4.4,1.1-6.4c0-1.1-0.1-2.6-0.3-4.3c-0.2-1.7-0.5-3.4-1.1-5.2
		c-0.5-1.7-1.2-3.2-2-4.6c-0.8-1.3-1.9-2.3-3.2-2.8c-0.4-0.1-0.6-0.1-0.8,0.2c-1.1,1.7-2.3,4.3-3.3,7.8c-1.1,3.6-2.1,7.6-3,12
		c-0.9,4.5-1.7,9.2-2.4,14.2c-0.7,5-1.3,9.9-1.8,14.5c-0.5,4.7-0.9,9-1.1,12.9c-0.3,4-0.4,7.1-0.4,9.4c0,3.3,0.4,6.5,1.1,9.6
		s1.6,6.2,2.6,9.3c1,3.1,1.8,6.2,2.7,9.4c0.8,3.1,1.2,6.3,1.2,9.5c0,5.5-1.3,9.6-3.8,12.2c-2.6,2.7-5.3,4.2-8.3,4.7
		c-3,0.4-5.8-0.1-8.3-1.7c-2.6-1.6-3.8-3.9-3.8-7c0-2.8,0.3-6.3,0.8-10.4s0.8-8.3,1-12.5c0.1-4.2-0.1-8.2-0.8-11.9
		c-0.6-3.7-2-6.6-4.2-8.8c-0.6-0.6-1.4-1.2-2.4-1.6s-1.8-1-2.4-1.6c1.1-0.6,2.3-1.1,3.5-1.3c1.2-0.3,2.3-0.8,3.3-1.5
		c1.3-1,2.3-2.2,3.1-3.6c0.8-1.4,1.5-2.8,2.1-4.2c0.4-0.9,1.1-2.7,2-5.4s1.9-5.5,3-8.5c1-3,1.9-5.7,2.7-8.2s1.1-4,1.1-4.7
		c0-1,0-1.9-0.1-2.7c-0.1-0.8-0.7-1.3-1.8-1.5c-1.3-0.3-2.6-0.3-3.9-0.3c-1.3,0.1-2.7,0-4.1-0.3c-3.2-0.5-5.2-1.5-6.1-2.9
		s-1.7-3.6-2.3-6.5c-0.3-1.4-0.5-2.9-0.9-4.4c-0.3-1.5-0.7-3-1.1-4.4c-0.5-1.7-1.3-3.6-2.4-5.7c-1.1-2.2-1.6-4.1-1.6-5.7
		c0-0.5,0.2-0.8,0.6-1c0.4-0.1,0.8-0.2,1.1-0.2c2,0,4.3,0.6,6.8,1.8c2.5,1.2,4.9,2.7,7.4,4.5c2.4,1.8,4.7,3.7,6.8,5.6
		c2.1,2,3.8,3.7,5.1,5.3l1.1,0.6c1-0.4,2-1.9,3.1-4.5c1-2.6,2-5.4,2.9-8.4s1.7-5.8,2.5-8.3s1.4-3.9,1.9-4c0.1,0.1,0.2,0.3,0.2,0.6
		c0,2.3,0.3,4,0.9,5.1s1.4,1.8,2.4,2.3c1,0.4,2.2,0.7,3.6,0.7s3,0,4.8,0c0.5,0,1.1-0.1,1.9-0.4c0.8-0.6,1.7-1.8,2.9-3.3
		c1.1-1.6,1.7-2.9,1.7-3.9c0-0.8-0.4-1.5-1.1-2.3c-1.3-1.4-2.6-2.6-4.1-3.7s-2.7-2.5-3.7-4.1c-0.5-0.9-0.9-1.8-1.2-2.7
		c-0.3-0.9-0.7-1.8-1.2-2.7c-0.3-0.5-0.6-1.1-1.1-1.7c-0.4-0.6-0.7-1.3-0.7-1.9c0-0.5,0.3-0.9,1-1.1c0.6-0.2,1.4-0.3,2.2-0.4
		c0.8-0.1,1.6-0.1,2.4,0s1.3,0.1,1.7,0.1l1.1-0.6c1.7-3.3,2.8-6.7,3.5-10.2s1.8-6.9,3.3-10.2l1.1-0.6c0.5,0.1,1.5,0.4,3.1,1
		c1.5,0.5,3.1,1.1,4.7,1.7c1.6,0.6,3,1.3,4.2,2.1s1.8,1.4,1.8,1.9c0,1-1,2.1-2.9,3.3c-1.9,1.2-4,2.5-6.4,3.9s-4.5,2.9-6.4,4.6
		s-2.9,3.3-2.9,5c0,1.5,0.6,3.3,1.9,5.4c1.3,2,2.8,3.1,4.6,3.1c0.9,0,1.7-0.6,2.4-1.7c0.7-1.1,1.4-2.5,2.1-4s1.3-3,1.9-4.5
		s1.2-2.5,1.8-3.2l1-0.4c1.9,0.3,3.8,0.9,5.5,2c1.8,1.1,3.6,1.9,5.4,2.6c3.1,0.9,6.5,1.2,10.2,1.1c3.8-0.2,7.3-0.2,10.6,0.1
		c1,0.1,2,0.2,2.9,0.3c0.9,0.1,1.8,0.1,2.9,0.1c0.9,0,1.9-0.3,3-1.1c1.1-0.7,2.1-1.6,3.1-2.6s1.8-2.1,2.4-3.2s1-2.1,1.1-3l-0.4-1.1
		c-0.4-0.1-1.8-0.3-4.2-0.4c-2.4-0.1-5.1-0.2-7.9-0.2c-2.9,0-5.6,0-8.2,0s-4.4,0-5.3,0l-1.3-0.6c-0.3-0.3-0.4-0.6-0.4-1
		c0-0.9,0.8-1.5,2.4-1.7c1.6-0.3,3.4-0.4,5.5-0.4s4.1,0.1,6.1,0.2s3.3,0.2,3.9,0.2c0.4,0,0.9-0.4,1.6-1.3c0.7-0.9,1.5-1.8,2.3-2.9
		c0.8-1,1.6-2,2.4-2.9s1.4-1.3,1.9-1.3c0.4,0,1.1,0.4,2.2,1.2s2.2,1.8,3.3,2.9c1.1,1.1,2.2,2.1,3.2,3.1s1.4,1.6,1.4,2
		c0,0.5-0.2,0.9-0.6,1.1s-0.8,0.4-1.2,0.7c-0.4,0.3-0.9,0.6-1.2,1.1c-0.4,0.4-0.6,1.1-0.6,2c0,1.1,0.6,2.1,1.7,3
		c1.1,0.8,2.5,1.5,4.1,2.1s3.2,1,4.8,1.2c1.6,0.3,2.8,0.4,3.7,0.4c1.1,0,2-1.2,2.7-3.5c0.6-2.4,1.3-5,1.9-7.8c0.6-2.9,1.3-5.5,2-7.8
		c0.7-2.4,1.6-3.5,2.8-3.5c0.5,0,1.6,0.3,3.2,1c1.6,0.6,3.2,1.4,5,2.2c1.7,0.8,3.2,1.6,4.6,2.4c1.3,0.8,2,1.2,2,1.3
		c0,0.4-1,1.1-2.9,2.3c-1.9,1.1-4,2.5-6.2,4s-4.3,3.2-6.2,4.9s-2.9,3.3-2.9,4.7c0,0.4,0.3,1.1,0.8,2.3c0.5,1.1,1.1,2.3,1.7,3.5
		s1.3,2.3,1.9,3.3s1.1,1.4,1.5,1.4c0.8,0,1.6-0.7,2.4-2.2s1.7-3.1,2.6-4.9s1.8-3.4,2.6-4.9c0.8-1.5,1.6-2.2,2.4-2.2
		c0.1,0,0.9,0.4,2.2,1.1c1.3,0.7,2.8,1.5,4.5,2.3s3.2,1.7,4.5,2.5s2.1,1.3,2.4,1.4c0.3,0.3,0.4,0.4,0.4,0.6
		c-0.1,0.6-1.5,1.8-4.1,3.5s-5.4,3.7-8.5,5.9c-3.1,2.2-5.9,4.5-8.4,6.8c-2.6,2.3-3.8,4.3-3.8,6.1c0,0.8,0.6,1.2,1.7,1.2
		c1.1,0.1,2,0.1,2.5,0.1s1.5,0,3.1-0.1c1.5-0.1,3.1-0.2,4.7-0.4c1.6-0.2,3-0.5,4.3-1c1.3-0.4,1.9-1,1.9-1.6c0-1-0.2-1.9-0.7-2.7
		c-0.4-0.8-0.7-1.5-0.7-2.3c0-0.4,0.2-0.6,0.7-0.8c0.4-0.1,0.8-0.2,1.1-0.2c1.4,0,2.8,0.4,4.3,1.2c1.5,0.8,2.8,1.9,4,3.2
		c1.2,1.3,2.2,2.7,3,4.2s1.1,3,1.1,4.4c0,2.3-0.3,3.7-0.9,4.2s-2,0.8-4.3,0.8c-1.4,0-2.4-0.3-2.9-1.1c-0.5-0.7-1-1.5-1.3-2.3
		c-0.4-0.8-0.8-1.6-1.3-2.3c-0.5-0.7-1.5-1.1-2.9-1.1c-0.9,0-1.8,0.2-2.9,0.7c-1,0.4-1.5,1.2-1.5,2.2v8.7c0,0.8,1,1.6,2.9,2.6
		s4,2.2,6.2,3.6c2.2,1.5,4.3,3.3,6.2,5.4c1.9,2.2,2.9,4.8,2.9,7.8c0,1.8-0.5,3.2-1.5,4.4c-1,1.1-2.5,1.7-4.4,1.7c-2.4,0-4-1-4.8-3.1
		s-1.2-4.4-1.4-7c-0.2-2.6-0.5-4.9-0.9-7s-1.4-3.1-3.1-3.1c-0.3,0-0.7,0.1-1.2,0.4c-0.6,0.3-1,0.4-1.2,0.6c-0.3,1-0.4,2.8-0.4,5.4
		s0,5.2,0.1,8s0.1,5.3,0.2,7.6c0.1,2.2,0,3.5-0.3,3.7c-0.4,0.4-1.1,0.8-2.1,1.1c-1,0.4-2.1,0.8-3.2,1.2c-1.1,0.4-2,0.9-2.9,1.3
		c-0.8,0.4-1.2,0.9-1.2,1.4c0,1,0.5,2,1.4,3c1,1,2,1.8,3.2,2.7c1.2,0.8,2.3,1.6,3.2,2.4s1.4,1.4,1.4,1.9c0,0.9-0.6,1.6-1.8,2.2
		c-1.2,0.6-1.8,1.4-1.8,2.6c0,0.5,0,1.5,0,2.9s0,2.9,0,4.4s0,2.9-0.1,4.2c-0.1,1.3-0.2,2-0.3,2.3c-0.5,0.6-1,1.2-1.4,1.6
		s-0.9,1-1.4,1.6c0.5,0.5,1.6,1.5,3.2,3c1.7,1.5,3.4,3,5.2,4.7c1.8,1.7,3.4,3.2,4.9,4.5s2.2,2.2,2.2,2.6c0,0.3-0.2,0.6-0.7,1.1
		c-0.4,0.4-1,1-1.6,1.5c-0.6,0.6-1.2,1.1-1.8,1.6c-0.6,0.5-0.9,1-1.1,1.3c-0.8,1.5-1.4,3.1-2,4.8c-0.6,1.7-1.2,3.2-2,4.8
		c-1.7,3.4-3.4,6.2-5.2,8.4c-1.8,2.2-3.8,3.9-6.1,5.3c-2.3,1.3-4.8,2.3-7.6,2.8c-2.8,0.5-6.1,0.8-9.8,0.8c-0.3,0-0.6-0.5-1.1-1.6
		s-1.1-2.3-1.6-3.6c-0.6-1.3-1.1-2.6-1.6-3.9C442.5,414.5,442.1,413.7,441.8,413.3z M479.9,507c1.3,1.4,3,3,4.9,4.9
		c2,1.9,4.1,3.9,6.4,6.1s4.4,4.2,6.4,6.1c2,1.9,3.6,3.5,4.9,4.9s2,2.3,2,2.7c0,0.3-0.3,0.8-0.9,1.4c-0.6,0.6-1,0.9-1.4,0.9
		s-1.3-0.7-2.7-2c-1.4-1.3-3-3-4.9-4.9c-1.9-2-3.9-4.1-6.1-6.4c-2.2-2.3-4.2-4.4-6.1-6.4s-3.5-3.6-4.9-4.9s-2.3-2-2.7-2
		s-1.3,0.7-2.7,2c-1.4,1.3-3,3-4.9,4.9c-1.9,2-3.9,4.1-6.1,6.4c-2.2,2.3-4.2,4.4-6.1,6.4s-3.5,3.6-4.9,4.9c-1.4,1.3-2.3,2-2.7,2
		c-0.3,0-0.8-0.3-1.4-0.9c-0.6-0.6-0.9-1-0.9-1.4s0.7-1.3,2-2.7s3-3,4.9-4.9c2-1.9,4.1-3.9,6.4-6.1c2.3-2.2,4.4-4.2,6.4-6.1
		s3.6-3.5,4.9-4.9s2-2.3,2-2.7c0-0.3-0.7-1.2-2-2.6c-1.4-1.4-3-3.1-5-5.1s-4.2-4.1-6.5-6.3c-2.3-2.2-4.5-4.3-6.5-6.3
		c-2-1.9-3.7-3.6-5-4.9c-1.4-1.4-2-2.2-2-2.4c0-0.4,0.3-0.9,1-1.6s1.2-1,1.6-1c0.3,0,1.1,0.7,2.4,2c1.4,1.4,3,3,4.9,5s4,4.2,6.3,6.5
		c2.2,2.3,4.3,4.5,6.3,6.5s3.7,3.7,5.1,5c1.4,1.4,2.3,2,2.6,2c0.3,0,1.2-0.7,2.6-2c1.4-1.4,3.1-3,5.1-5s4.1-4.2,6.3-6.5
		c2.2-2.3,4.3-4.5,6.3-6.5c1.9-2,3.6-3.7,4.9-5c1.4-1.4,2.2-2,2.4-2c0.4,0,0.9,0.3,1.6,1c0.6,0.7,1,1.2,1,1.6c0,0.3-0.7,1.1-2,2.4
		c-1.4,1.4-3,3-5,4.9s-4.2,4-6.5,6.3c-2.3,2.2-4.5,4.3-6.5,6.3s-3.7,3.7-5,5.1c-1.4,1.4-2,2.3-2,2.6
		C477.9,504.7,478.5,505.6,479.9,507z"/>
	<path class="st3" d="M462.7,382.7c0.8-0.8,1.3-1.3,1.7-1.7l0.4-1.3l-0.4-1v-0.2c-0.4-0.1-1-0.3-1.9-0.4s-1.9-0.2-3-0.2
		s-2.1,0-3.1,0s-1.7,0-2.2,0c-1.1,0-1.9-0.6-2.2-1.7c-0.3-1.1-1.1-1.8-2.4-2.1c-1.7-0.4-3.3-0.6-5.1-0.6s-3.4,0-5.1,0
		c-4.8-0.1-9.7-0.2-14.5-0.1s-9.7,0-14.5-0.3c-2.8-0.1-5.6-0.2-8.4-0.3c-2.8-0.1-5.6-0.1-8.4-0.1c-0.5,0-1.1,0.2-1.7,0.6
		s-1.1,0.8-1.3,1.1c-0.8,2.4-1.4,4.4-1.8,5.8c-0.4,1.5-0.8,2.8-1.1,4c-0.3,1.2-0.5,1.9-0.5,2c0,1.1,0.6,1.7,1.9,1.7h66.7
		c0.5,0,1.2-0.3,2-0.9s1.7-1.3,2.5-2.1C461.1,384.3,461.9,383.5,462.7,382.7z"/>
</g>
<g>
	<path class="st0" d="M203.1,152.8l-0.1-0.1l-0.7-0.3h-27.9c-0.3,0-0.6,0.1-1,0.3s-0.8,0.3-1.2,0.3c-0.3,0-0.6-0.1-0.9-0.2
		c-0.3-0.1-0.6-0.3-0.9-0.4c-0.1,0.1-0.3,0.1-0.4,0.2c-0.1,0-0.2,0.1-0.4,0.2c-0.3,0.2-0.9,0.7-1.7,1.4s-1.6,1.6-2.4,2.4
		c-0.8,0.9-1.6,1.7-2.2,2.6c-0.6,0.8-1,1.4-1,1.8c0,0.7,0.4,1.2,1.2,1.6c0.8,0.4,1.7,0.7,2.7,0.9s2.1,0.3,3.1,0.4
		c1,0.1,1.8,0.1,2.2,0.1c0.8,0,1.2-0.5,1.3-1.5c0-1,0-2.1-0.1-3.3s-0.1-2.3-0.1-3.3s0.4-1.5,1.2-1.5c0.1,0,0.4,0.1,0.8,0.2
		c0.5,0.1,1.2,0.2,2.1,0.3c0.9,0,1.8,0.1,2.7,0.2c0.9,0.1,1.7,0.3,2.4,0.5s1,0.5,1,1v6.7c0,0.3,0.2,0.5,0.7,0.6
		c0.4,0.1,0.8,0.1,1,0.1c1.3,0,2.4-0.5,3.5-1.4s2-1.8,2.8-2.6l0.5-0.2h0.3c0.3,0.2,0.8,0.6,1.6,1.1s1.5,1.1,2.3,1.6
		c0.7,0.6,1.4,1.2,2,1.7c0.6,0.6,0.9,1,0.9,1.4c0,0.5-0.3,1-0.9,1.3c-0.6,0.3-0.9,0.7-0.9,1.3c0,0.4,0,1.3,0.1,2.5
		c0,1.3,0.1,2.6,0.1,4s0,2.6-0.1,3.7c-0.1,1.1-0.2,1.8-0.5,2s-0.9,0.4-1.6,0.5c-0.7,0.1-1.4,0.3-2.2,0.5c-0.7,0.2-1.4,0.4-2,0.7
		s-0.9,0.6-0.9,1.1c0,0.8,0.5,1.5,1.5,2s2.1,1.1,3.3,1.7s2.3,1.3,3.3,2.1s1.5,1.9,1.5,3.3c0,1.8-0.5,3-1.4,3.7c-1,0.7-2,1.1-3.2,1.1
		c-1.2,0.1-2.2-0.1-3.2-0.4c-0.9-0.3-1.4-0.6-1.4-1c0-0.3,0-0.7,0.1-1.3s0.1-1.2,0.1-1.8s-0.1-1.2-0.3-1.6c-0.2-0.5-0.5-0.7-0.9-0.7
		c-0.1,0-0.4,0-0.8,0s-0.7,0-0.8,0.1l-23.9,10c-0.5,0.3-1.1,0.7-1.6,1.3s-1.1,0.9-1.7,0.9c-0.3,0-0.7-0.5-1.4-1.5
		c-0.6-1-1.3-2.2-1.9-3.5c-0.6-1.3-1.2-2.6-1.7-3.8s-0.8-2-0.8-2.4s0.1-0.6,0.2-0.7c0.1-0.1,0.3-0.1,0.7-0.2
		c2.1-0.4,4.2-0.6,6.3-0.5s4.2,0.1,6.3-0.1c0.7-0.1,1.3-0.1,1.9-0.2c0.6-0.1,1.3-0.1,1.9-0.1l0.7-0.3l0.1-0.1l0.3-0.7v-7.7
		c0-0.5-0.3-0.7-1-0.7c-1.3,0-2.5,0.2-3.7,0.7c-1.2,0.4-2.3,0.9-3.4,1.4c-1.1,0.5-2.1,1-3.2,1.4c-1,0.4-2,0.7-3,0.7
		c-0.7,0-1-0.3-1-0.9c0-0.8,0-2,0.1-3.7c0-1.7,0.1-3.4,0.1-5.1c0-1.8,0-3.4,0-5s-0.1-2.6-0.3-3.2c-0.5-0.4-1-0.5-1.5-0.4
		s-1,0.3-1.4,0.5s-0.7,0.3-1,0.3s-0.4-0.3-0.4-1c0-1.6,0.4-3.1,1.1-4.7c0.7-1.6,1.5-3.2,2.3-4.8s1.6-3.3,2.3-5s1.1-3.5,1.1-5.3
		c0-0.3-0.2-0.5-0.5-0.8c-0.3-0.2-0.7-0.4-1.1-0.6c-0.4-0.2-0.8-0.3-1.2-0.5c-0.4-0.1-0.7-0.3-0.9-0.4c-0.1-0.1-0.1-0.7-0.1-1.6
		c0-0.9,0-2.1-0.1-3.5c0-1.4-0.1-2.9-0.1-4.5s0-3.1,0.1-4.6c0-1.5,0.1-2.7,0.1-3.9c0-1.1,0-1.9,0-2.4c0-0.3-0.3-0.5-0.8-0.6
		s-0.9-0.1-1.2-0.1c-0.6,0-1.4,0.5-2.4,1.5s-2.1,2.1-3.2,3.4c-1.1,1.3-2.2,2.6-3.2,3.8c-1,1.3-1.7,2.1-2.2,2.6l-0.2,0.7
		c0.1,1,0.3,2.1,0.7,3.1c0.4,1.1,0.9,2.1,1.4,3.2c0.5,1.1,1,2.1,1.5,3.2c0.5,1,0.9,2,1.2,3c1.4,4.3,2.2,8.8,2.4,13.4
		c0.2,4.6,0.4,9.1,0.4,13.6c0,2.1,0,4.4-0.1,6.9s-0.3,5-0.7,7.5s-0.9,5-1.7,7.4c-0.7,2.4-1.8,4.5-3.1,6.3s-3,3.3-5,4.4
		s-4.5,1.7-7.3,1.7c-0.5,0-0.9-0.3-1-1c-0.2-1-0.3-1.9-0.4-2.6c-0.1-0.7-0.2-1.5-0.3-2.1c-0.1-0.7-0.4-1.4-0.7-2.1
		c-0.3-0.7-0.8-1.6-1.5-2.6c-0.1-0.2-0.3-0.4-0.4-0.6c-0.1-0.2-0.2-0.4-0.2-0.7s0.2-0.6,0.5-0.7c0.3-0.1,0.6-0.2,0.9-0.3
		c1.2-0.3,2.2-0.7,3-1.1c0.9-0.4,1.7-1,2.5-1.9c1-1.2,1.8-2.4,2.4-3.9s1.1-2.9,1.4-4.5c0.3-1.6,0.5-3.1,0.6-4.7
		c0.1-1.6,0.2-3.1,0.2-4.6c0-0.4,0-1,0.1-1.8c0-0.8,0.1-1.6,0.1-2.4c0-0.8,0-1.6,0-2.3s-0.1-1.3-0.3-1.6c-0.1-0.4-0.3-0.6-0.6-0.6
		s-0.6,0.1-0.9,0.2c-0.7,0.7-1.8,1.7-3.2,2.9s-2.9,2.3-4.4,3.5c-1.6,1.1-3.1,2.1-4.6,2.9c-1.5,0.8-2.8,1.3-3.7,1.3
		c-0.3,0-0.5,0-0.7-0.1s-0.3-0.3-0.3-0.6s0.2-0.8,0.5-1.5c0.3-0.6,0.7-1.3,1.1-2s0.8-1.3,1.2-1.9s0.7-1.1,0.9-1.4
		c1.8-2.4,3.7-4.9,5.5-7.3c1.9-2.4,3.5-5,4.8-7.8c0.7-1.6,1.3-3.2,1.6-4.8c0.3-1.7,0.5-3.4,0.5-5.1c0-0.5-0.1-1-0.4-1.5
		c-0.3-0.5-0.7-0.8-1.2-0.8c-1.9,1.4-3.8,2.7-5.7,4.2c-1.9,1.4-3.9,2.6-6.1,3.6l-0.3-0.2c0-0.4,0.5-1.2,1.5-2.4s2.1-2.6,3.3-4.2
		c1.2-1.6,2.3-3.3,3.3-5.1s1.5-3.5,1.5-5.1c0-1.3-0.4-2.6-1.1-4c-0.7-1.4-1.5-2.7-2.4-3.9c-0.9-1.2-1.7-2.3-2.3-3.2
		c-0.7-0.9-1-1.5-0.9-1.9l0.3-0.2c1.4,0.6,2.6,1.4,3.7,2.3s2.3,1.8,3.4,2.8c0.5,0.4,1,0.8,1.5,1.3c0.4,0.4,1,0.8,1.6,1.1l0.5-0.2
		l0.5-0.5c0.1-0.4,0.4-1.3,0.8-2.6c0.4-1.3,0.8-2.7,1.3-4c0.5-1.4,0.9-2.6,1.4-3.7c0.4-1.1,0.8-1.6,1.2-1.6c0.1,0,0.8,0.4,2,1.1
		s2.5,1.6,4,2.4c1.5,0.9,2.9,1.7,4.2,2.4c1.3,0.7,2.1,1.1,2.4,1.1c0.9,0,1.4-0.3,1.5-0.9s0.1-1.3,0-2s-0.2-1.3-0.2-1.9
		c0-0.5,0.4-0.7,1.1-0.6c0.3,0.1,0.5,0.2,0.8,0.3c0.3,0.1,0.5,0.2,0.7,0.4c0.2,0.1,0.7,0.3,1.6,0.6c0.8,0.3,1.7,0.6,2.7,0.9
		c0.9,0.3,1.8,0.6,2.6,0.9s1.2,0.4,1.4,0.4h33.2l0.7-0.3c0.2-0.2,0.5-0.5,0.9-1c0.4-0.4,0.8-0.9,1.3-1.3s0.9-0.8,1.4-1.2
		c0.4-0.4,0.8-0.6,1-0.6s0.7,0.3,1.6,0.9c0.9,0.6,1.8,1.3,2.8,2s1.9,1.5,2.7,2.1c0.8,0.7,1.3,1.1,1.4,1.3c0.1,0.3,0.1,0.6,0,0.8
		c-0.1,0.2-0.3,0.3-0.6,0.5c-0.2,0.2-0.5,0.3-0.7,0.5s-0.3,0.4-0.3,0.7v16c0,0.4-0.2,0.7-0.6,1c-0.4,0.2-0.8,0.5-1.3,0.7
		c-0.4,0.2-0.9,0.4-1.3,0.7c-0.4,0.2-0.6,0.6-0.6,1v1l0.3,0.7c0.3,0.3,0.8,0.8,1.7,1.7c0.9,0.8,1.8,1.7,2.7,2.6
		c0.9,0.9,1.7,1.8,2.4,2.5c0.7,0.8,1.1,1.3,1.1,1.5c0,0.1-0.1,0.3-0.3,0.6c-0.2,0.2-0.5,0.5-0.8,0.8s-0.6,0.5-0.9,0.8
		c-0.3,0.3-0.4,0.5-0.5,0.6c-0.1,0.3-0.2,1-0.3,2.1s-0.1,2.4-0.2,3.8c0,1.4-0.1,2.7-0.1,4s0,2.1,0,2.6c-0.1,4-0.2,7.9-0.2,11.8
		c0,3.9-0.1,7.8-0.4,11.8c-0.1,2.6-0.5,5-1,7.3s-1.3,4.3-2.5,6s-2.7,3.1-4.6,4.1c-1.9,1-4.4,1.5-7.4,1.5c-0.3,0-0.5-0.2-0.8-0.5
		c-0.2-0.3-0.5-0.7-0.7-1.2c-0.2-0.4-0.4-0.9-0.5-1.3c-0.1-0.4-0.3-0.8-0.4-1c-0.2-0.3-0.5-0.8-1-1.3s-1-1-1.5-1.5s-1-1-1.4-1.5
		s-0.6-0.8-0.6-1.1s0.2-0.5,0.5-0.6s0.6-0.1,0.9-0.1c1.9,0,3.6-0.2,5.1-0.7c1.5-0.4,2.7-1.6,3.6-3.5c0.4-0.9,0.7-1.9,0.9-2.9
		s0.3-1.9,0.4-2.9c0.3-4.3,0.4-8.7,0.5-13c0-4.3,0.1-8.6,0.3-13c0.1-1.9,0.2-3.8,0.3-5.6s0.1-3.7-0.1-5.6L203.1,152.8z M166.1,177.8
		c0,0.7,0.3,1,1,1h4.8c0.7,0,1-0.3,1-1v-11.5c0-0.7-0.3-1-1-1h-4.8c-0.7,0-1,0.3-1,1V177.8z M172.5,150l0.1,0.1
		c0.1,0.1,0.7,0.1,2,0.2c1.3,0,2.9,0.1,4.8,0.1s4,0,6.4,0.1c2.3,0,4.5,0.1,6.6,0.1s3.9,0,5.4,0c1.6,0,2.6,0,3.2,0l0.7-0.3l4.8-4.8
		l0.3-0.7c0.1-0.7,0-1.3-0.2-1.6s-0.5-0.5-0.9-0.6s-0.8-0.1-1.3,0s-0.9,0.1-1.4,0.1c-0.3,0-0.6-0.1-0.8-0.4
		c-0.2-0.2-0.4-0.5-0.6-0.8c-0.2-0.3-0.4-0.6-0.6-0.8c-0.2-0.2-0.6-0.4-1.1-0.4h-31.8c-0.8,0-1.3,0.4-1.4,1.2
		c-0.1,0.8-0.1,1.5,0.1,2c0.1,0.2,0.5,0.4,1.3,0.7s1.7,0.6,2.6,0.9c0.9,0.3,1.8,0.6,2.6,1c0.8,0.3,1.3,0.6,1.3,0.9
		c-0.5,0.5-0.9,0.8-1.4,0.9c-0.5,0.1-0.8,0.5-1.1,1.4L172.5,150z M167.1,121.5c-0.1,0.1-0.1,0.2-0.2,0.3c-0.1,0.1-0.1,0.2-0.1,0.3
		v15c0,0.7,0.3,1,1,1h4.1c0.7,0,1-0.3,1-1v-14.5c0-0.6-0.2-1-0.6-1.2c-0.4-0.2-0.9-0.3-1.4-0.3h-3L167.1,121.5z M181,137.2
		c0,0.7,0.3,1,1,1h4.1c0.7,0,1-0.3,1-1v-14.5c0-0.5-0.3-1-1-1.3c-0.6-0.3-1.3-0.5-2.1-0.5c-0.7,0-1.4,0.1-2.1,0.4
		c-0.6,0.3-1,0.7-1,1.3v14.6H181z M182.7,187.9c0.1,0.1,0.3,0.2,0.8,0.3c0.5,0,1,0.1,1.6,0.1s1.1,0.1,1.6,0.1s0.9,0,1.1,0
		c0.5,0,0.7-0.3,0.7-1c0-0.8,0-1.6-0.1-2.5c0-0.8-0.2-1.6-0.5-2.3s-0.7-1.2-1.3-1.7c-0.6-0.4-1.4-0.7-2.5-0.7
		c-0.5,0-0.8,0.3-1.1,0.9c-0.2,0.6-0.4,1.3-0.5,2.1s-0.2,1.6-0.2,2.4c0,0.8-0.1,1.3-0.1,1.7L182.7,187.9z M187.7,165.9
		c0-0.3-0.2-0.5-0.5-0.6s-0.6-0.1-0.9-0.1c-0.2,0-0.5,0-0.8-0.1c-0.3,0-0.7,0-1.1,0c-0.4,0-0.7,0.1-1,0.2c-0.3,0.1-0.4,0.3-0.4,0.6
		v12.2c0,0.3,0.2,0.5,0.7,0.6s1,0.2,1.6,0.2s1.2-0.1,1.6-0.2c0.5-0.1,0.7-0.3,0.7-0.6L187.7,165.9L187.7,165.9z M201,121.4
		c-0.3-0.1-1-0.2-1.9-0.2c-1,0-1.6,0-2,0c-0.3,0-0.7,0.2-1,0.5c0,0.1,0,0.1-0.1,0.2c0,0.1-0.1,0.1-0.1,0.2v15c0,0.7,0.3,1,1,1h3.5
		c0.4,0,0.7-0.1,0.8-0.3s0.2-0.4,0.2-0.8v-15L201,121.4z"/>
	<path class="st0" d="M224.7,202.9l-0.2-0.3c0.1-0.1,0.2-0.1,0.3-0.1h51.8c0.1,0,0.2,0,0.3,0.1c0,0.2-0.1,0.4-0.4,0.5
		c-0.2,0.1-0.4,0.2-0.6,0.2h-50.6L224.7,202.9z M302.3,126.1c0.4,0.4,1.3,1.1,2.7,2.1c1.4,1,2.8,2.1,4.3,3.3s2.8,2.2,3.9,3.2
		c1.2,1,1.7,1.6,1.7,2c0,0.2-0.2,0.4-0.6,0.6c-0.4,0.2-0.6,0.3-0.8,0.3h-84c-0.3,0-0.5-0.2-0.5-0.5s0.2-0.5,0.5-0.5h33.8
		c0.7,0,1-0.3,1-1v-19.3c0-0.7,0.3-1,1-1c0.9,0,2.1,0,3.4,0.1c1.3,0,2.6,0.1,4,0.2s2.7,0.2,3.9,0.4c1.3,0.2,2.3,0.4,3.2,0.7
		c0.7,0.2,0.9,0.4,0.8,0.7c-0.1,0.2-0.4,0.5-0.8,0.8s-0.8,0.6-1.3,0.9c-0.4,0.3-0.7,0.7-0.7,1.1v15.2c0,0.7,0.3,1,1,1h13.9
		c1,0,1.9-0.5,2.6-1.5s1.5-2.1,2.1-3.3c0.7-1.2,1.3-2.4,2-3.5c0.6-1.1,1.3-1.7,2.1-1.9L302.3,126.1z M243.7,146.3
		c0.7,0.3,1.5,0.8,2.1,1.5c0.7,0.7,1.3,1.3,1.8,1.9c2.4,2.4,4.5,4.8,6.4,7.2s3.5,4.8,4.9,7.4c1.4,2.5,2.4,5.3,3.1,8.2
		s1.1,6.1,1.1,9.7c0,1-0.1,2.2-0.3,3.6c-0.2,1.4-0.5,2.6-1,3.8s-1.1,2.2-2,3c-0.8,0.8-1.9,1.3-3.3,1.3c-0.5,0-1-0.1-1.7-0.3
		c-0.6-0.2-1.3-0.4-1.9-0.7c-0.6-0.3-1.2-0.6-1.7-1s-0.9-0.8-1.1-1.3c-0.1-0.2-0.2-0.7-0.3-1.5s-0.1-1.6-0.2-2.5
		c-0.1-0.9-0.1-1.7-0.2-2.5c-0.1-0.8-0.1-1.4-0.1-1.7c-0.2-2.8-0.4-5.5-0.7-8.2s-0.7-5.4-1.2-8.1c-0.6-3.2-1.4-6.4-2.5-9.5
		c-1.1-3.2-1.6-6.4-1.7-9.7L243.7,146.3z M286.5,143.6l11.2,2.6c0.8,0.2,1.6,0.4,2.5,0.6c0.8,0.2,1.7,0.4,2.5,0.7
		c0.2,0.1,0.4,0.2,0.6,0.3s0.3,0.3,0.3,0.6c0,0.1-0.1,0.4-0.4,0.7c-0.2,0.3-0.5,0.6-0.8,1s-0.6,0.7-0.9,1.1
		c-0.3,0.3-0.5,0.6-0.6,0.7c-0.7,1.2-1.3,2.4-1.7,3.7c-0.4,1.3-0.8,2.6-1.4,3.9c-2,5.2-4.2,10.3-6.6,15.4c-2.3,5-4.7,10.1-7.1,15.1
		c-0.2,0.4-0.5,1.1-1,2.2c-0.5,1.1-1,2.1-1.6,3.3c-0.6,1.1-1.2,2.1-1.8,3c-0.6,0.9-1,1.3-1.4,1.3c-0.3,0-0.4-0.2-0.5-0.5
		s-0.1-0.5-0.1-0.7c0-1.9,0.2-3.8,0.5-5.6s0.7-3.7,1-5.5c1.4-7.3,2.5-14.5,3.6-21.7s2-14.5,3-21.8L286.5,143.6z M305.8,192
		c1.6,1.2,3.1,2.4,4.6,3.7c1.5,1.2,3.1,2.4,4.6,3.6c0.6,0.5,1.2,0.9,1.8,1.3c0.6,0.4,1.2,0.9,1.7,1.4c0,0.9-0.4,1.3-1.2,1.3h-36.2
		c-0.3,0-0.5-0.2-0.5-0.5s0.2-0.5,0.5-0.5h14.7c0.6,0,1.3-0.5,2.1-1.5c0.8-1,1.6-2.1,2.5-3.3s1.7-2.4,2.5-3.5s1.5-1.8,2.1-2.2
		L305.8,192z"/>
	<path class="st0" d="M354.7,151.3c0.3-0.3,0.5-0.8,0.5-1.3c0-0.2-0.2-0.8-0.5-1.9c-0.3-1.1-0.7-2.3-1.2-3.8s-1-3.1-1.6-4.8
		s-1.1-3.3-1.6-4.7c-0.5-1.5-0.9-2.7-1.3-3.7s-0.6-1.5-0.7-1.7c-0.1-0.1-0.3-0.3-0.5-0.5s-0.4-0.3-0.6-0.5c-0.2-0.1-1-0.2-2.4-0.3
		c-1.4,0-3-0.1-4.7-0.1s-3.3,0-4.9,0.1c-1.6,0-2.6,0.1-3.1,0.1s-0.7-0.2-0.7-0.7c0-0.4,0.2-0.6,0.7-0.6c5.3,0,10.6,0,15.9,0.1
		s10.6,0,15.9-0.1c0.1,0,0.3,0,0.8,0c0.4,0,0.7,0,0.8-0.1c0.1-0.1,0.3-0.4,0.4-0.7c0.1-0.3,0.2-0.6,0.2-0.8c0-1.8-0.1-3.5-0.4-5.3
		c-0.2-1.8-0.4-3.6-0.4-5.3c0-0.7,0.3-1,1-1c2.2,0,4.5,0.1,6.8,0.2s4.5,0.4,6.7,1c0.3,0.1,0.5,0.1,0.7,0.2s0.3,0.3,0.3,0.6
		c0,0.5-0.2,0.9-0.7,1.2c-0.4,0.3-0.7,0.7-0.7,1.2v7.5c0,0.7,0.3,1,1,1h16c0.8,0,1.5-0.5,2.1-1.4s1.1-2,1.7-3.1
		c0.5-1.1,1.1-2.2,1.7-3.1c0.6-1,1.3-1.4,2.1-1.4c0.3,0,1,0.5,2.3,1.4c1.3,1,2.6,2,4,3.2s2.6,2.3,3.7,3.4s1.6,1.8,1.6,2.1
		c0,0.2-0.1,0.3-0.4,0.4c-0.2,0.1-0.4,0.1-0.6,0.1h-22.7c-0.2,0-0.5,0.1-0.8,0.4c-0.3,0.3-0.5,0.5-0.5,0.7c0,0.6,0.6,1.2,1.7,1.7
		s2.4,1,3.7,1.4c1.4,0.4,2.6,0.8,3.8,1.2c1.2,0.4,1.8,0.7,1.8,1c-0.8,0.5-1.6,1.1-2.4,1.6s-1.6,1.2-2.3,1.8c-0.9,0.9-2.1,2-3.3,3.3
		c-1.3,1.3-2.6,2.5-3.9,3.8c-1.4,1.2-2.8,2.3-4.2,3.2c-1.5,0.9-2.9,1.3-4.2,1.3l-0.4-0.4c0-2.4,0.4-4.9,1.3-7.3
		c0.9-2.4,1.7-4.8,2.5-7.1c0.3-0.9,0.7-1.8,1-2.8s0.5-2,0.5-2.9c0-0.3-0.1-0.6-0.4-0.8s-0.6-0.3-1-0.3s-0.8,0-1.2,0
		c-0.4,0-0.7,0.1-0.9,0.1c-3.9,0-7.8,0.1-11.7,0.3c-3.9,0.2-7.8,0.3-11.7,0.3c-0.3,0-1,0-2-0.1s-2.1-0.1-3.2-0.1s-2.1,0.1-2.9,0.3
		s-1.2,0.5-1.1,1c0.7,1,1.6,1.8,2.6,2.4c1,0.6,2.1,1.1,3.3,1.5c1.2,0.4,2.3,0.8,3.5,1.2s2.2,0.9,3,1.6c0.9,0.7,1.6,1.6,2.2,2.6
		c0.6,1.1,0.9,2.5,0.9,4.3c0,1.2-0.4,2.6-1.1,4.1s-1.4,2.9-1.9,4c-0.1,0.3-0.3,0.5-0.4,0.7s-0.4,0.3-0.7,0.3h-32.7
		c-0.3,0-0.5-0.2-0.5-0.5s0.2-0.5,0.5-0.5c4.4,0,8.8,0.1,13.1,0.2C346,151.7,350.3,151.6,354.7,151.3z M406.7,167.4v0.3l-0.2,0.5
		c-0.4,0.3-1.1,0.7-1.9,1.2c-0.9,0.5-1.3,1-1.3,1.6v32.3c0,0.8-0.7,1.5-2,2.2c-1.3,0.6-2.8,1.1-4.4,1.5c-1.6,0.3-3.2,0.5-4.7,0.5
		s-2.4-0.3-2.6-0.8c-0.2-0.3-0.3-1.3-0.4-3.2c-0.1-1.8-0.1-4.1-0.1-6.7c0-2.6,0-5.4,0.1-8.4c0-3,0.1-5.9,0.1-8.7s0.1-5.3,0.1-7.4
		c0-2.1,0.1-3.6,0.1-4.5c0-0.7-0.3-1-1-1h-30.1c-0.7,0-1,0.3-1,1v30.5c0,0.7,0.3,1,1,1h28.3c0.3,0,0.5,0.2,0.5,0.5s-0.2,0.5-0.5,0.5
		h-28.6c-0.1,0-0.3,0.2-0.4,0.7c-0.1,0.4-0.3,0.9-0.5,1.5s-0.4,1.2-0.6,1.7c-0.2,0.6-0.4,1-0.6,1.2c-0.4,0.5-1.1,1-2,1.3
		s-1.9,0.6-2.9,0.8c-1.1,0.2-2.1,0.4-3.1,0.5s-1.9,0.2-2.5,0.2c-0.7,0-1-0.3-1-1c0-7.8-0.1-15.5-0.3-23.1s-0.3-15.3-0.3-23.1
		c0-0.7,0.3-1,0.8-1c0.4,0,1.1,0.3,2.1,0.8s2.1,1.1,3.4,1.7s2.5,1.2,3.8,1.7s2.4,0.8,3.5,0.8l29.2,0.7c0.3,0,0.9-0.4,1.7-1.1
		c0.8-0.7,1.7-1.6,2.5-2.5c0.9-0.9,1.7-1.7,2.4-2.5c0.7-0.7,1.3-1.1,1.5-1.1c0.3,0,1,0.4,2.1,1.2c1,0.8,2.2,1.7,3.5,2.7s2.5,2,3.6,3
		c1.2,1,2,1.6,2.6,1.9L406.7,167.4z M359.6,182.2h27l0.3,0.3l-0.3,0.4h-27l-0.4-0.4L359.6,182.2z M368.5,152.4c-0.3,0-0.7,0-1.1-0.1
		c-0.4,0-0.7-0.2-1.1-0.4c0.1-0.3,0.7-0.4,1.8-0.5c1-0.1,2.2-0.1,3.6-0.1c1.3,0,2.6,0.1,3.8,0.2c1.2,0.1,1.9,0.1,2.3,0.1
		c0.1,0,0.3,0,0.6,0.1c0.2,0.1,0.4,0.2,0.4,0.4l-0.3,0.2h-10L368.5,152.4L368.5,152.4z M407.3,141.8c0.3,0.2,1.2,0.8,2.4,1.8
		c1.3,1,2.6,2.1,4.1,3.2c1.4,1.2,2.7,2.2,3.8,3.2c1.1,1,1.7,1.6,1.7,1.8s-0.1,0.4-0.4,0.5c-0.2,0.1-0.4,0.2-0.6,0.2
		c-3.9,0-7.8,0-11.7,0.1c-3.9,0-7.8,0.1-11.7,0.1c-0.5,0-1.3,0-2.4,0.1c-1.1,0-2.1,0.1-3.3,0.1s-2.2,0-3.2-0.1c-1,0-1.8-0.1-2.2-0.3
		c0.3-0.3,1.2-0.6,2.6-0.7c1.4-0.1,2.9-0.2,4.6-0.2s3.3-0.1,4.9-0.2c1.6-0.1,2.8-0.2,3.5-0.4c0.5-0.4,1.1-1.1,1.8-2.1
		c0.7-1,1.5-2,2.2-3c0.8-1,1.5-1.9,2.2-2.7C406.4,142.2,406.9,141.8,407.3,141.8z"/>
	<path class="st0" d="M432.9,167.7c-0.3-0.5-0.7-1.3-1.4-2.4c-0.6-1.1-1.3-2.3-2-3.5s-1.3-2.3-1.8-3.4c-0.5-1-0.8-1.7-0.9-2
		c0.1-0.1,0.6-0.2,1.5-0.2c0.8,0,1.8,0,2.8,0.1c1,0,2,0.1,2.9,0.1s1.6-0.1,2-0.3c0.5-0.3,0.9-0.7,1.2-1c0.1-0.2,0.5-1,1.2-2.5
		c0.6-1.5,1.3-3,2-4.7s1.3-3.3,1.9-4.7c0.5-1.5,0.8-2.3,0.8-2.5c0-0.4-0.2-0.6-0.7-0.7c-0.4-0.1-0.9-0.1-1.5-0.1
		c-0.5,0-1.1,0.1-1.7,0.3c-0.6,0.1-1,0.2-1.2,0.2c-1.2,0-2.3-0.5-3.3-1.4s-1.8-2.1-2.5-3.5s-1.2-2.8-1.6-4.2
		c-0.4-1.5-0.6-2.7-0.6-3.7c0-0.5,0.3-0.8,1-0.8s1.4,0.1,2.3,0.4c0.8,0.2,1.7,0.5,2.5,0.8s1.4,0.4,1.8,0.4c0.5,0,0.9-0.6,1.3-1.9
		s0.7-2.8,1-4.5s0.5-3.3,0.7-4.9s0.3-2.6,0.4-3.2l0.4-0.3l0.4,0.1c0.4,0.1,1.2,0.4,2.4,0.9c1.2,0.5,2.4,1,3.7,1.5
		c1.3,0.5,2.4,1.1,3.4,1.6s1.5,0.9,1.5,1.2c0,0.4-0.2,0.7-0.6,0.9c-0.4,0.2-0.8,0.3-1.1,0.5c-0.1,0.1-0.7,0.5-1.6,1.4
		c-1,0.9-2,1.8-3.1,2.8s-2.1,2-3,2.8c-0.9,0.9-1.4,1.4-1.5,1.5c-0.2,0.3-0.2,0.8-0.1,1.5s0.4,1.4,0.7,2.1c0.3,0.7,0.7,1.3,1.1,1.8
		s0.8,0.8,1.3,0.8s0.9-0.3,1.3-0.8s0.7-1.2,1-1.9s0.6-1.4,0.8-2.2c0.2-0.7,0.4-1.3,0.6-1.6l0.5-0.3c0.5,0,1.1,0.2,2,0.6
		c0.8,0.4,1.7,0.9,2.6,1.5s1.8,1.1,2.5,1.7c0.8,0.6,1.3,1,1.7,1.4l0.2,0.5c-0.3,1-0.9,2.1-1.8,3.3s-2,2.5-3.3,3.7
		c-1.3,1.3-2.7,2.6-4.2,3.9c-1.5,1.3-2.9,2.6-4.2,3.8c-1.3,1.2-2.5,2.3-3.5,3.4c-1,1-1.6,2-2,2.8l0.4,0.4h7.7c0.6,0,0.9-0.3,0.8-1.1
		c-0.1-0.7-0.2-1.5-0.4-2.4c-0.2-0.9-0.3-1.7-0.4-2.4s0.2-1.1,0.9-1.1c0.7,0,1.5,0.3,2.4,0.9c0.8,0.6,1.7,1.4,2.5,2.2
		s1.7,1.5,2.5,2.2c0.8,0.6,1.7,0.9,2.5,0.9c0.4,0,0.8-0.2,1.1-0.6c0.1-0.1,0.2-0.6,0.3-1.5s0.2-2.1,0.3-3.6c0.1-1.5,0.2-3,0.3-4.7
		c0.1-1.7,0.2-3.2,0.3-4.8c0.1-1.5,0.2-2.9,0.3-4c0.1-1.1,0.1-1.9,0.1-2.2c0-2-0.2-3.9-0.7-5.8c-0.4-1.9-0.7-3.8-0.8-5.8l0.4-0.3
		c0.4-0.1,1,0.1,1.9,0.6s1.8,1,2.8,1.6s1.9,1.2,2.8,1.7s1.6,0.8,2.1,0.8c0.3,0,0.5-0.1,0.6-0.3c0.1-0.2,0.1-0.8,0.2-1.8
		c0-1,0.1-2.1,0.1-3.4c0-1.2,0-2.4,0-3.5s0-1.9,0-2.3c0-0.7,0.3-1.1,0.9-1.1s1.4,0.1,2.3,0.2s1.9,0.2,2.8,0.4c1,0.2,1.9,0.3,2.9,0.5
		c0.9,0.2,1.7,0.3,2.3,0.5c0.2,0.1,0.4,0.1,0.6,0.2c0.2,0,0.3,0.2,0.3,0.5c-0.2,0.3-0.9,1-2,1.9s-2.3,1.9-3.5,2.9
		c-1.2,1.1-2.2,2-3.1,2.9s-1.3,1.5-1.1,1.9c0.2,0.5,0.6,0.7,1.3,0.8c0.7,0,1.2,0.1,1.6,0.1c1,0,1.9-0.3,2.7-0.8
		c0.8-0.5,1.5-1.1,2.1-1.7s1.1-1.2,1.6-1.7c0.4-0.5,0.8-0.8,1.1-0.8c0.3,0,0.9,0.4,2,1.3c1,0.8,2.2,1.8,3.6,2.8
		c1.3,1.1,2.7,2,4.1,2.8c1.4,0.8,2.6,1.3,3.5,1.3c1.1,0,1.9-0.8,2.4-2.4c0.5-1.6,0.9-3.3,1.2-5.2c0.3-1.9,0.5-3.6,0.8-5.2
		s0.7-2.4,1.4-2.4c0.1,0,0.7,0.3,1.8,0.8c1,0.5,2.2,1.1,3.5,1.7s2.4,1.2,3.5,1.8c1.1,0.6,1.6,0.9,1.8,1.1c0.1,0.1,0.1,0.2,0.2,0.3
		c0.1,0,0.1,0.1,0.2,0.3c-0.1,0.3-0.7,0.7-1.9,1.4c-1.2,0.6-2.5,1.4-3.9,2.3s-2.8,1.8-4.1,2.7c-1.3,1-2.1,1.9-2.3,2.7l0.1,0.6
		c0.2,0.2,0.5,0.6,0.9,1.1s0.8,1,1.2,1.6c0.4,0.5,0.9,1,1.3,1.4s0.7,0.6,1,0.6c0.7,0,1.2-0.2,1.6-0.7c0.4-0.4,0.7-1,0.9-1.6
		c0.2-0.6,0.4-1.3,0.6-1.9c0.2-0.7,0.4-1.2,0.8-1.6l0.4-0.2c0.3,0.1,0.9,0.3,1.8,0.8s2,1,3,1.6c1.1,0.6,2.1,1.2,3.2,1.8
		c1,0.6,1.7,1,2.1,1.2l0.3,0.5c0,0.1-0.1,0.2-0.2,0.3c-0.1,0.1-0.2,0.2-0.4,0.3c-1.9,1.6-3.8,3.3-5.7,5.1c-2.3,2.2-4.6,4.3-6.9,6.4
		c-2.3,2.1-4.5,4.3-6.6,6.7c0,0.1,0,0.2-0.1,0.4s-0.1,0.3-0.1,0.4c0,0.6,0.4,0.9,1.1,0.9s1.2,0,1.6,0c0.3,0,0.7,0,1.4,0
		c0.7,0,1.4-0.1,2.2-0.2c0.8-0.1,1.5-0.1,2.1-0.2c0.6-0.1,1-0.1,1.2-0.2c0.5-0.3,0.7-0.7,0.6-1.3s-0.3-1.2-0.5-1.9s-0.3-1.2-0.4-1.8
		c0-0.5,0.3-0.8,1-0.8c1.2,0,2.4,0.3,3.8,1c1.4,0.7,2.6,1.5,3.8,2.5s2.1,2.2,2.9,3.4c0.8,1.3,1.2,2.5,1.2,3.7c0,1.6-0.5,2.9-1.6,4.2
		c-1.1,1.2-2.4,1.8-4.1,1.8c-1.5,0-2.7-0.4-3.6-1.3c-0.9-0.9-1.3-2.1-1.3-3.6c0-0.1,0-0.4,0-0.9c0-0.4,0-0.9,0-1.4s0-0.9-0.1-1.3
		c-0.1-0.4-0.2-0.6-0.4-0.6h-0.9c-0.7,0.3-1.6,0.9-2.9,2c-1.2,1.1-2.5,2.2-3.8,3.5c-1.3,1.2-2.5,2.3-3.5,3.3s-1.7,1.5-1.9,1.5
		c-0.2,0-0.4-0.1-0.6-0.3s-0.4-0.3-0.5-0.5c-0.5-1.6-1.3-3-2.2-4.3c-0.9-1.3-1.7-2.7-2.4-4.2l0.1-0.6c0.3-0.4,0.6-0.7,1-0.8
		s0.8-0.2,1.3-0.3s1-0.2,1.5-0.4s1-0.5,1.4-1.1c0.1-0.2,0.5-0.9,1.1-2s1.2-2.3,1.8-3.6c0.6-1.3,1.2-2.5,1.7-3.6s0.8-1.7,0.8-1.8
		c0-0.4,0-0.7-0.1-0.9c0-0.2-0.3-0.3-0.7-0.5c-0.9-0.3-1.7-0.5-2.6-0.6c-0.8,0-1.7-0.3-2.6-0.7c-1.1-0.5-1.8-1.3-2.1-2.4
		c-0.2-1-0.4-2.1-0.5-3.2c-0.1-1.1-0.3-2.1-0.6-3c-0.3-0.9-1.1-1.6-2.3-2c-0.3,0.1-0.7,0.3-1.2,0.6c-0.4,0.3-0.7,0.7-0.7,1.1v29.2
		c0,0.4-0.4,0.7-1.3,1s-1.8,0.5-2.9,0.7s-2.1,0.3-3.2,0.3c-1,0-1.7,0.1-2,0.1l-0.6-0.3c-0.1-0.4-0.2-0.9-0.5-1.5s-0.6-0.9-1.2-0.9
		h-6.8c-0.3,0-0.7,0.3-1.3,0.8c-0.6,0.5-1.3,1.1-2.2,1.7c-0.9,0.6-1.8,1.2-2.9,1.7s-2.1,0.8-3.2,0.8c-0.7,0-1.2-0.1-1.5-0.2
		c-0.3-0.1-0.5-0.3-0.7-0.5c-0.1-0.2-0.3-0.4-0.4-0.5s-0.4-0.2-0.7-0.2c-0.3,0-0.6,0.1-1,0.4c-0.4,0.3-0.8,0.6-1.3,0.9
		c-0.5,0.4-1,0.7-1.5,0.9c-0.5,0.3-1,0.4-1.6,0.4c-0.2,0-0.5-0.1-1-0.2c-0.4-0.1-0.9-0.3-1.3-0.5s-0.8-0.4-1.2-0.7
		c-0.4-0.2-0.6-0.5-0.6-0.7c0-0.3,0-0.8,0.1-1.6c0-0.8,0-1.5,0-2.3c0-0.7-0.2-1.4-0.4-2s-0.5-0.9-1-0.9c-0.4,0-1.3,0.5-2.6,1.6
		c-1.3,1.1-2.7,2.2-4.3,3.6c-1.5,1.3-3,2.6-4.4,3.7c-1.4,1.2-2.4,1.8-3,2L432.9,167.7z M455.8,175.8l0.1,0.2l-0.1,0.2
		c-1.6,0.3-3.2,0.5-4.8,0.6c-1.6,0-3.2,0.1-4.8,0.2c-2.8,0.1-5.7,0.2-8.5,0.2s-5.7,0-8.5,0c-0.7,0-1.1-0.3-0.9-0.8
		c0.1-0.5,0.4-0.8,0.8-0.8h26L455.8,175.8z M484.3,167.4c-0.3,0.5-0.7,0.8-1.2,1c-0.4,0.2-0.8,0.4-1.2,0.8c-0.2,0.2-0.3,0.5-0.4,1
		c-0.1,0.4-0.1,0.9-0.1,1.4s0,1,0.1,1.5c0,0.5,0.1,0.9,0.1,1.2s-0.1,0.6-0.2,0.7s-0.4,0.2-0.6,0.3s-0.4,0.3-0.6,0.5
		s-0.2,0.6-0.2,1.1c0,3.4,0.2,6.7,0.7,10s0.7,6.6,0.7,10c0,0.4,0,1.1,0,1.9s0,1.8,0,2.7s0,1.8-0.1,2.6s-0.1,1.3-0.2,1.5
		c-0.3,0.7-1,1.2-1.9,1.6c-0.9,0.4-1.9,0.6-3,0.8s-2.2,0.3-3.3,0.3c-1.1,0-2,0.1-2.6,0.1c-0.4,0-0.9,0-1.5,0s-0.9-0.3-0.9-1v-19.5
		c0-0.6-0.3-0.8-1-0.7c-0.3,0.1-0.7,0.3-1.2,0.7s-1.1,0.8-1.6,1.3c-0.6,0.5-1.1,0.9-1.7,1.4c-0.5,0.4-1,0.8-1.3,1
		c-1.8,1.2-3.9,2.6-6.3,4.1c-2.3,1.5-4.8,2.9-7.4,4.1c-2.6,1.3-5.2,2.3-7.7,3.2c-2.6,0.8-5,1.3-7.2,1.3c-0.1,0-0.4,0-0.7-0.1
		c-0.3,0-0.5-0.2-0.5-0.5s0.5-0.8,1.5-1.6s2.1-1.6,3.3-2.5s2.4-1.7,3.6-2.5s1.9-1.3,2.3-1.7c1.8-1.6,3.5-3.5,5.2-5.7
		c1.7-2.3,3.5-4.4,5.3-6.5c1.9-2.1,3.9-3.8,6-5.3s4.6-2.2,7.3-2.2c0.5,0,1,0,1.3-0.1c0.3,0,0.6-0.4,0.7-1c0.1-0.3,0.1-0.8,0.1-1.6
		s-0.1-1.7-0.1-2.6c0-0.9,0-1.7,0-2.5c0-0.7,0.1-1.2,0.3-1.3c0.3-0.3,0.8-0.5,1.3-0.5s1,0.1,1.5,0.1c0.8,0,1.8,0,3-0.1
		c1.2,0,2.5,0,3.8,0.1s2.6,0.2,3.7,0.3c1.2,0.1,2.1,0.4,2.7,0.7L484.3,167.4z M469.7,156.8c0,0.7,0.3,1,1,1h7.5c0.7,0,1-0.3,1-1
		v-28.5c0-0.7-0.3-1-1-1h-7.5c-0.7,0-1,0.3-1,1V156.8z M475.8,142.2c0.1,0,0.3,0,0.6,0.1c0.2,0.1,0.4,0.2,0.4,0.3s-0.2,0.2-0.5,0.3
		c-0.3,0-0.6,0.1-0.7,0.1s-0.4,0-0.8,0s-0.8,0-1.2,0c-0.4,0-0.8,0-1.1-0.1c-0.3-0.1-0.5-0.2-0.5-0.3s0.1-0.2,0.3-0.3
		c0.2,0,0.4-0.1,0.5-0.1H475.8z M511.2,203.6c-0.2,0-0.4,0-0.5-0.1c-0.8-0.3-1.7-0.7-2.5-1.2c-0.9-0.5-1.7-0.9-2.4-1.3
		c-1.4-0.8-3.2-2-5.5-3.6s-4.7-3.3-7-5.2s-4.3-3.8-6-5.8s-2.5-3.8-2.5-5.5c0-0.7,0.2-1,0.7-1s1.5,0.3,3.1,0.9c1.6,0.6,3.3,1.2,5.1,2
		c1.8,0.7,3.6,1.5,5.3,2.2c1.7,0.7,3,1.2,3.9,1.4c2.8,0.7,5.6,1.2,8.5,1.4c2.9,0.2,5.6,0.9,8.3,2c0.1,0.1,0.3,0.2,0.5,0.3
		s0.3,0.3,0.3,0.5s-0.2,0.5-0.5,0.8c-1.1,1.2-2.2,2.3-3.2,3.5c-1.1,1.2-1.9,2.5-2.7,3.8c-0.3,0.7-0.6,1.4-0.9,2.1
		c-0.3,0.7-0.6,1.5-1,2.1C511.9,203.3,511.6,203.5,511.2,203.6z M521.3,175.8c0,0.3-0.2,0.6-0.7,0.7c-0.5,0.1-1,0.2-1.6,0.3
		s-1.2,0.1-1.8,0.1s-1,0-1.2,0c-0.4,0-1.4,0-3,0c-1.6,0-3.5,0-5.6,0.1c-2.2,0-4.5,0-7,0s-4.8-0.1-7-0.2c-2.2-0.1-4-0.2-5.6-0.3
		s-2.5-0.3-2.8-0.5c0.1-0.1,0.3-0.3,0.6-0.4s0.5-0.2,0.7-0.2h14.6c0.9,0,1.9-0.5,2.7-1.4c0.9-0.9,1.7-2,2.4-3.1
		c0.7-1.1,1.4-2.2,1.9-3.1c0.5-0.9,1-1.4,1.3-1.4s1,0.4,2.1,1.3c1.2,0.8,2.4,1.8,3.7,2.9c1.3,1.1,2.6,2.1,3.8,3.2
		C520.1,174.8,520.9,175.5,521.3,175.8z"/>
</g>
<g>
	<text transform="matrix(0.997 -7.708000e-02 7.708000e-02 0.997 47.1248 75.4475)" class="st0 st4 st5">Indie Pop Music</text>
	<text transform="matrix(0.997 -7.708000e-02 7.708000e-02 0.997 275.9363 57.7576)" class="st4 st5"> </text>
	<text transform="matrix(0.997 -7.708000e-02 7.708000e-02 0.997 284.3111 57.1102)" class="st3 st4 st5">Index of TAIWAN</text>
</g>
</svg>
